<?xml version="1.0" encoding="UTF-8" standalone="no"?>
<!-- Created with Inkscape (http://www.inkscape.org/) -->

<svg
   inkscape:version="1.2.2 (732a01da63, 2022-12-09)"
   version="1.1"
   id="svg15158"
   viewBox="0 0 297 210"
   height="210mm"
   width="297mm"
   sodipodi:docname="postcard2.svg"
   xmlns:inkscape="http://www.inkscape.org/namespaces/inkscape"
   xmlns:sodipodi="http://sodipodi.sourceforge.net/DTD/sodipodi-0.dtd"
   xmlns="http://www.w3.org/2000/svg"
   xmlns:svg="http://www.w3.org/2000/svg"
   xmlns:rdf="http://www.w3.org/1999/02/22-rdf-syntax-ns#"
   xmlns:cc="http://creativecommons.org/ns#"
   xmlns:dc="http://purl.org/dc/elements/1.1/">
  <sodipodi:namedview
     inkscape:window-maximized="1"
     inkscape:window-y="147"
     inkscape:window-x="2391"
     inkscape:window-height="1001"
     inkscape:window-width="1920"
     showgrid="false"
     id="namedview15162"
     inkscape:current-layer="layer1"
     inkscape:cy="373.18675"
     inkscape:cx="527.01945"
     inkscape:zoom="0.87757672"
     inkscape:pageshadow="2"
     inkscape:pageopacity="0.0"
     borderopacity="1.0"
     bordercolor="#666666"
     pagecolor="#ffffff"
     inkscape:document-units="mm"
     inkscape:showpageshadow="2"
     inkscape:pagecheckerboard="0"
     inkscape:deskcolor="#d1d1d1" />
  <defs
     id="defs15160" />
  <metadata
     id="metadata15164">
    <rdf:RDF>
      <cc:Work
         rdf:about="">
        <dc:format>image/svg+xml</dc:format>
        <dc:type
           rdf:resource="http://purl.org/dc/dcmitype/StillImage" />
      </cc:Work>
    </rdf:RDF>
  </metadata>
  <g
     id="layer1"
     inkscape:groupmode="layer"
     inkscape:label="1-outline"
     style="display:inline">
    <path
       id="path4161"
       style="fill:none;stroke:#000000;stroke-width:0.38100001;stroke-miterlimit:4;stroke-dasharray:none"
       d=""
       inkscape:connector-curvature="0" />
    <path
       id="path4169"
       style="fill:none;stroke:#000000;stroke-width:0.38100001;stroke-miterlimit:4;stroke-dasharray:none"
       d=""
       inkscape:connector-curvature="0" />
    <path
       id="path4177"
       style="fill:none;stroke:#000000;stroke-width:0.38100001;stroke-miterlimit:4;stroke-dasharray:none"
       d=""
       inkscape:connector-curvature="0" />
    <path
       id="path4187"
       style="fill:none;stroke:#000000;stroke-width:0.38100001;stroke-miterlimit:4;stroke-dasharray:none"
       d=""
       inkscape:connector-curvature="0" />
    <path
       id="path4199"
       style="fill:none;stroke:#000000;stroke-width:0.38100001;stroke-miterlimit:4;stroke-dasharray:none"
       d=""
       inkscape:connector-curvature="0" />
    <path
       id="path4215"
       style="fill:none;stroke:#000000;stroke-width:0.38100001;stroke-miterlimit:4;stroke-dasharray:none"
       d=""
       inkscape:connector-curvature="0" />
    <path
       id="path4221"
       style="fill:none;stroke:#000000;stroke-width:0.38100001;stroke-miterlimit:4;stroke-dasharray:none"
       d=""
       inkscape:connector-curvature="0" />
    <g
       id="g2710"
       transform="matrix(0.10942052,0,0,0.09702265,11.145454,8.5529502)">
      <path
         fill-rule="nonzero"
         fill="#000000"
         fill-opacity="1"
         d="m 114.26657,199.31843 c 0.0156,0.0273 0.0547,0.0859 0.125,0.16016 -0.0117,-0.0195 -0.0195,-0.0352 -0.0312,-0.0469 -0.0312,-0.0391 -0.0625,-0.0781 -0.0937,-0.11329"
         id="path359" />
      <path
         fill-rule="nonzero"
         fill="#000000"
         fill-opacity="1"
         d="m 326.38766,326.93953 c 0.004,-0.0117 0.004,-0.0195 0.008,-0.0312 -0.008,0.0234 -0.0273,0.0664 -0.0508,0.1289 0.0156,-0.0391 0.0312,-0.0703 0.043,-0.0976"
         id="path361" />
      <path
         fill-rule="nonzero"
         fill="#000000"
         fill-opacity="1"
         d="m 389.83688,201.14656 c -0.16406,11.67969 -5.12109,22.30469 -12.85547,30.56641 -2.78125,2.91015 -4.69531,4.3789 -7.22266,6.28515 0.0508,-0.0351 0.0899,-0.0625 0.125,-0.0898 -0.26953,0.20312 -0.79687,0.60547 -0.98046,0.77344 -1.64844,1.48828 -2.46875,1.8164 -4.87891,3.40234 -1.73828,1.05078 -4.09766,2.18359 -4.79688,2.49609 -0.008,0 -0.0156,0.004 -0.0234,0.008 0.0976,-0.91016 0.16406,-1.82032 0.21093,-2.73438 0.0312,-0.91406 0.16797,-1.88672 -0.26171,-2.73047 -0.51563,-0.9375 -1.89063,-1.17578 -2.64844,-0.38672 -1.95703,2.44141 -3.19141,4.34375 -6.21485,7.73438 -0.64453,0.73047 -1.30859,1.44922 -1.97265,2.16797 -0.3711,-0.0391 -0.75,0.0391 -1.10938,0.16797 -0.86718,0.30468 -1.73828,0.60156 -2.61328,0.89062 -4.84765,1.63672 -5.98047,1.50781 -11.39453,1.77734 -0.98437,0 -1.96094,-0.0937 -2.93359,-0.20312 -0.0312,0 -0.0625,-0.004 -0.0937,-0.004 -0.0899,-0.33984 -0.17969,-0.67968 -0.27735,-1.01562 -2.38281,-6.67188 -5.57422,-13.08985 -9.91015,-18.71875 -1.6211,-2.11719 -3.44922,-4.05078 -5.33203,-5.92969 6.98828,-1.375 14.02343,-2.53516 20.95312,-4.19922 1.10938,-0.34375 2.37891,-0.4414 3.37109,-1.04687 0.94922,-0.63282 0.81641,-2.20313 -0.16796,-2.73828 -0.58204,-0.34375 -1.22657,-0.20313 -1.84766,-0.0586 -1.19531,0.27735 -2.39844,0.53906 -3.59375,0.8125 -6.85938,1.48047 -13.77344,2.67188 -20.64453,4.08594 -0.34375,0.10156 -0.59766,0.26953 -0.79688,0.47266 -0.53125,-0.51563 -1.0625,-1.03125 -1.58984,-1.55079 -1.10156,-1.0625 -2.15625,-2.17187 -3.19922,-3.29296 0.0469,-0.0234 0.0977,-0.0469 0.14453,-0.0781 9.54688,-6.88672 19.57813,-13.04297 29.73047,-18.98437 1.17188,-0.61329 0.93359,-2.4961 -0.35156,-2.80469 -0.70703,-0.20313 -1.3086,0.22265 -1.91797,0.51562 -9.85156,5.1211 -19.17188,11.21094 -28.23438,17.60547 -0.54687,0.42578 -1.26562,0.73828 -1.61328,1.34375 -0.55468,-0.60547 -1.07812,-1.26172 -1.72656,-1.73828 0.47656,-4.04687 -0.0273,-8.21484 -1.82422,-11.89453 -1.9414,-3.07031 -5.12109,-5.11328 -8.25,-6.82813 -0.5664,-0.28515 -1.14844,-0.53125 -1.74219,-0.75 0.69922,-0.5 1.39063,-1.00781 2.07813,-1.52734 4.62109,-3.55469 8.85156,-7.65234 12.66406,-12.05859 3.98438,-4.79297 7.3125,-10.07422 10.36719,-15.4961 0.375,-0.69531 0.73437,-1.39453 1.09766,-2.09375 4.92968,-4.35937 8.42187,-8.00781 13.89453,-10.8125 19.58203,-9.75781 40.99218,-6.99218 51.4375,13.58985 4.99218,10.22656 7.21093,22.49218 6.94531,35.07031 m -58.91406,53.26953 c 3.5039,0.37109 8.55078,0.33203 12.54297,-0.72656 -1.63282,1.63281 -3.27735,3.24609 -4.9375,4.84765 -2.48438,2.19141 -4.02735,3.70704 -6.3086,5.10157 -0.23047,-3.09766 -0.65234,-6.17578 -1.29687,-9.22266 m 23.48437,-3.26953 c -1.32422,6.89453 -3.50781,13.58203 -6.01953,20.13281 -1.90625,4.94922 -2.87109,7.58594 -5.35547,12.07031 -3.32422,5.87891 -7.1289,11.14063 -10.62109,15.54297 -2.28516,2.94532 -4.36719,6.00391 -6.48438,7.80078 0.84766,-1.94531 2.4375,-7.40234 3.08203,-10.44531 2.21094,-9.48828 3.69141,-19.41797 3.39063,-29.23047 4.46484,-2.3125 8.07031,-5.99609 11.65625,-9.46484 3.87109,-3.82031 7.70703,-7.69141 11.13672,-11.92188 0.13672,-0.16406 0.2539,-0.3125 0.3789,-0.46875 -0.27734,1.72266 -0.64843,3.69922 -1.16406,5.98438 m -27.03125,71.02734 c -0.0547,0.92188 -0.15625,2.20313 -0.98047,4.73047 0.0312,-0.0742 0.0234,-0.043 -0.008,0.0391 -0.004,0 -0.004,0.004 -0.004,0.004 -0.0273,0.0742 -0.0586,0.15234 -0.0898,0.22656 0.0195,-0.0547 0.0352,-0.0976 0.0508,-0.13672 -0.0508,0.11719 -0.1289,0.27735 -0.20703,0.39454 -0.0195,0.0234 -0.0391,0.0469 -0.0742,0.0937 -0.0391,0.0469 -0.082,0.0898 -0.12109,0.13281 -0.0937,0.082 -0.16016,0.14062 -0.20703,0.1875 -0.0234,0.0156 -0.0547,0.0351 -0.0899,0.0586 -0.0859,0.0234 -0.17187,0.043 -0.25781,0.0664 -0.043,0.008 -0.0742,0.0117 -0.10156,0.0195 -0.0312,-0.004 -0.0547,-0.004 -0.0781,-0.008 -1.04297,-0.25782 -1.67187,-0.92188 -3.25781,-2.37891 -4.07422,-4.05469 -7.46094,-8.73047 -11.5,-12.82031 -3.66797,-3.85938 -7.19141,-6.69922 -10.9375,-9.2461 -4.40234,-2.86328 -9.08203,-5.24609 -13.53906,-8.01562 -3.20703,-2.10547 -5.74219,-4.26953 -8.83203,-7.59766 -1.87891,-2.02734 -4.61719,-4.26562 -4.70313,-4.33984 7.8711,3.28516 18.46875,6.73047 25.46485,9.65625 4.91796,2.37891 9.46093,5.45703 13.82812,8.71484 3.6875,2.66797 6.52734,4.79297 10.125,8.5 0.98828,1.05469 1.90625,2.625 3.27344,4.57422 2.1875,3.16016 2.34375,3.57031 2.24609,7.14453 m -14.2539,-1.70703 c -0.0195,0.0391 -0.0391,0.0781 -0.0586,0.11719 -0.008,0.0156 -0.0156,0.0352 -0.0234,0.0508 -0.25781,0.25391 -0.51953,0.50391 -0.77734,0.75781 -4.87109,4.63282 -8.22656,7.53516 -13.34375,11.04297 -22.80859,15.66016 -51.51953,24.73438 -77.57031,21.5586 -1.97266,-0.29297 -3.86719,-0.64454 -5.70313,-1.0625 13.6875,-2.54688 26.51953,-8.3711 38.44141,-15.46875 6.60156,-3.9375 13.41016,-7.54297 19.82422,-11.78907 7.97656,-5.21093 15.5039,-11.09765 22.13281,-17.95312 0.5,-0.60547 1.25781,-1.10156 1.75,-1.73438 0.37891,0.23828 0.75781,0.47266 1.125,0.71875 4.33984,2.94922 8.19531,6.62891 12.24609,11.10938 0.70313,0.76953 1.37891,1.55859 2.05079,2.35156 -0.0352,0.0937 -0.0703,0.18359 -0.0899,0.28125 0.0508,-0.125 0.082,-0.20312 0.10547,-0.26172 0.004,0 0.004,0 0.004,0.004 -0.0312,0.0742 -0.0742,0.17969 -0.11328,0.27734 m -7.45313,20.64453 c 2.35938,2.6836 5.17969,4.92188 7.37891,7.75391 0.91797,0.84766 4.00781,6.35547 4.39062,7.5625 1.42578,3.69531 2.25781,8.03906 2.50391,10.76172 1.03125,10.9375 0.21094,24.24219 -6.82031,30.89453 -1.50782,1.33984 -3.99219,2.22266 -5.17969,1.27344 -1.92578,-0.9375 -3.94141,-5.00391 -3.94141,-7.13672 -0.38672,-8.60938 2.64453,-16.89453 3.58203,-26.24219 0.46875,-5.80078 0.4375,-11.78906 -1.26562,-17.40234 -0.97266,-2.64844 -2.41797,-5.12891 -4.14844,-7.35157 -1.05859,-1.44531 -2.48828,-2.54296 -3.8125,-3.73437 -0.0391,-0.0273 -0.0742,-0.0586 -0.11328,-0.0898 0.89844,-0.57422 1.79297,-1.15625 2.67187,-1.75 1.39844,1.97265 3.14844,3.66015 4.75391,5.46093 m -79.07031,39.26563 c 0.61719,2.82422 0.5664,6.55078 -0.5625,9.94531 -1.63281,5.20703 -6.75781,14.01563 -11.35547,19.09766 -2.55859,3.01562 -4.26563,4.95703 -7.19922,6.55078 -2.13672,0.98047 -1.96875,1.16015 -4.0625,1.09765 -0.71484,-0.0859 -2.64062,-1.01953 -2.97656,-2.57421 -0.51953,-2.70313 -0.16797,-5.64844 2.28515,-8.67969 1.38672,-1.8086 5.92969,-6.08985 8.61329,-8.52735 1.91406,-1.79687 3.44921,-3.94531 4.875,-6.13671 5.10546,-8.13672 5.14453,-15.22657 3.69921,-24.41797 -0.43359,-2.57032 -0.95312,-5.1211 -1.39453,-7.6875 -0.17968,-0.79297 -0.26953,-1.64063 -0.42578,-2.46485 0.16016,0.0274 0.32422,0.0547 0.48438,0.082 0.0742,0.15235 0.16406,0.35938 0.28906,0.77735 1.12891,3.00781 1.77734,4.11328 2.76953,7.07812 1.71094,5.26563 3.67188,10.46875 4.96094,15.85938 m -18.33203,-29.58594 c -5.31641,-1.89844 -10.29297,-4.47656 -15.44922,-7.83594 -0.73047,-0.50781 -0.98047,-0.6914 -1.26563,-0.91797 0.375,-0.55859 0.75,-1.12109 1.10157,-1.69531 4.96093,-7.95703 8.73046,-16.61328 11.62109,-25.51953 2.08594,-7.11328 3.67187,-14.35547 5.28125,-21.58984 0.0547,0.004 0.10937,0.0117 0.16406,0.008 6.4961,-0.45703 15.88281,-2.51953 20.41797,-4.67188 1.07813,-0.40625 0.86328,-0.44921 1.94141,-0.76562 1.36718,1.04687 2.80859,2.00781 4.30859,2.85937 4.59375,2.91797 9.875,4.3711 15.16797,5.39844 7.21094,1.42969 14.66797,2.41406 22.01172,1.52344 1.48828,-0.004 4.15625,-1.40234 5.14062,-3.89063 1.4961,1.39063 3.01172,2.69141 3.67188,3.13672 3.94531,2.86719 8.34375,5.00391 12.5664,7.42969 -10.70312,10.66797 -22.19921,18.58594 -35.86718,26.24219 -9.91797,5.87109 -20.14453,11.9375 -29.9375,15.3789 -7.29297,2.64844 -13.89453,4.21485 -20.875,4.91016 m -18.46875,-12.15234 c -3.37891,5.46875 -7.08985,9.15234 -11.50391,14.52343 -4.83203,5.96875 -9.37109,12.1836 -13.50391,18.65625 -3.10156,4.82813 -6.32812,9.625 -8.73046,14.85157 -2.375,5.30078 -3.83204,11.02734 -4.27344,16.82031 -0.0664,0.70703 -0.10938,1.39062 -0.15625,2.03516 -3.06641,-4.85547 -5.5586,-10.06641 -7.94141,-15.28907 -2.05859,-4.40234 -3.78125,-8.65234 -5.28906,-14.03515 -1.00391,-3.85938 -1.46484,-7.64063 -1.77734,-10.57813 -1.01563,-12.62109 0.40234,-23.41406 4.67187,-35.32422 2.19141,-7.17578 5.80469,-13.10547 10.33984,-19.8125 3.54297,-5.55468 7.6211,-9.64062 12.25391,-15.03906 1.80078,-2.10937 3.60156,-4.21484 5.28516,-6.41406 0.42968,-0.67578 1.24218,-1.1875 1.25,-2.04688 0,-0.0156 -0.004,-0.0312 -0.004,-0.043 5.46875,-4.90234 10.25,-10.5664 14.36719,-16.66406 0.21484,-0.0586 0.42187,-0.17187 0.60547,-0.36328 2.7539,-2.80859 5.80859,-4.03516 9.53125,-5.46094 1.91015,-0.74609 3.89843,-1.29687 5.92578,-1.60547 0.54297,-0.0976 1.09375,-0.15625 1.63672,-0.26171 0.0195,0 0.0391,-0.004 0.0586,-0.008 0.0117,0 0.0195,-0.004 0.0273,-0.004 0.0352,-0.008 0.0352,-0.0117 0.0156,-0.008 0.0391,-0.0117 0.0742,-0.0234 0.10937,-0.0351 2.3086,1.39453 4.63672,2.74609 6.96485,4.09765 1,0.63282 2.35937,-0.41015 2.00781,-1.54687 -0.14453,-0.53516 -0.59375,-0.82813 -1.05859,-1.06641 -0.76563,-0.44531 -1.51172,-0.92187 -2.26172,-1.39062 -4.4336,-2.8125 -9.09766,-5.27344 -13.35156,-8.36328 -0.44922,-0.33203 -0.90235,-0.66407 -1.35157,-0.9961 1.73438,-5.1875 2.40235,-10.60156 0.60157,-15.89453 1.07421,0.1875 2.15625,0.35547 3.23828,0.51172 0.0508,0.24609 0.17578,0.48438 0.39062,0.69141 4.50391,3.84375 8.15235,8.59765 12.58594,12.53125 2.61328,2.23047 7.58203,6.17578 9.1875,7.36718 1.46484,1.1875 3.00781,2.27344 4.60156,3.28125 0.15235,0.25 2.81641,1.69532 2.98438,1.78907 -2.0586,0.082 -4.09766,0.48828 -6.0625,1.375 -1.27735,0.47265 -2.03125,1.41797 -1.875,2.82812 0.043,0.60156 0.13672,1.19141 0.26562,1.77344 -0.0195,0.0156 -0.0391,0.0312 -0.0508,0.043 -0.26172,0.17969 -0.53125,0.34375 -0.78906,0.52344 -1.23438,0.78125 -2.53906,1.42968 -3.82422,2.12109 -3.36719,1.41406 -5.02344,4.46094 -5.77344,7.88281 -2.24219,10.80469 -4.61719,21.59766 -7.49609,32.25391 -3.01172,9.66406 -6.35938,17.40625 -11.83203,26.29297 m -28.47634,-48.11711 c -1.78515,0.99609 -2.71875,1.11719 -5.29687,1.17187 -0.39063,-0.0195 -0.87109,-0.2539 -1.3125,-1.47265 -0.66016,-7.4336 3.30469,-16.60156 7.16797,-24.30469 4.53125,-8.99219 9.33594,-16.70703 15.93359,-23.37109 3.85156,-3.82813 9.09375,-7.58203 12.04297,-7.04297 0.0586,0.0351 0.11328,0.0664 0.16016,0.0937 0.59375,0.52734 0.71484,1.0625 0.84765,1.23828 0.625,1.54297 0.97657,3.17187 1.21094,4.81641 1.71094,12.58984 -12.74609,32.75781 -22.48047,41.99218 -2.83203,2.64063 -5.82812,5.31641 -8.27344,6.87891 m -9.49609,-2 c -0.0469,0.20703 -0.0469,0.44141 0.0312,0.69922 0.004,0.0664 0.004,0.1289 0.008,0.19531 -0.3164,0.37109 -0.51172,0.89063 -0.64843,1.37109 -0.41797,1.15235 -0.8711,2.29688 -1.27735,3.45704 -1.47265,3.9375 -3.03906,7.60546 -5.375,12.07031 -3.05078,5.54687 -7.98828,10.66406 -12.14844,11.03515 -1.86718,0.008 -3.17578,-1.48828 -4.97265,-4.19921 -3.71875,-5.63282 -5.53125,-10.60157 -7.13672,-17.58594 -0.69531,-3.22656 -0.69141,-8.08985 -0.63281,-12.63281 -0.17188,-13.17969 2.83984,-24.79688 6.42578,-38.07032 1.26953,-4.7539 2.09375,-9.60937 2.60937,-14.5039 0.56641,-4.3711 0.79297,-8.77735 0.58203,-13.1836 -0.0508,-1.9375 -0.16406,-3.875 -0.0937,-5.8125 -0.0234,-0.5039 0.0664,-1.05078 0.0391,-1.5664 0.3164,-0.10547 0.64062,-0.23438 0.96093,-0.36719 0.0312,0.008 0.0586,0.0273 0.0898,0.0352 3.65625,0.92968 5.78125,2.08203 9.44922,3.98437 1.41015,0.82422 2.74609,1.76953 4.05859,2.73438 0.0391,0.0273 0.0742,0.0547 0.10938,0.082 6.10937,4.99218 9.04687,10.07422 11.39062,17.09375 2.70313,7.66797 3.49219,13.97265 3.86719,21.65234 0.16406,2.48828 0.1875,4.98828 0.11328,7.48047 -0.0586,0.15234 -0.082,0.25391 -0.0781,0.30469 -0.0898,0.20312 -0.14062,0.42968 -0.1289,0.66015 -0.004,0.30078 0.0742,0.56641 0.21094,0.78907 -1.5625,3.15625 -3,6.375 -4.32813,9.625 -1.66797,4.46875 -2.99609,9.16015 -3.15625,13.95312 0,0.23438 0.0234,0.46484 0.0312,0.69922 m -26.03516,-74.125 c -0.71875,0.42187 -0.83593,1.26953 -1.17187,1.96484 -0.66797,1.59375 -1.32422,3.19532 -1.99219,4.78907 -1.89062,4.38281 -4.35937,10.3125 -6.34765,14.90234 -5.38672,10.70703 -12.28907,22.30859 -19.023442,30.4375 -2.54297,3.09375 -4.94141,6.33594 -7.91406,9.04687 -5.23828,4.625 -9.61328,7.97657 -16.46485,11.0586 -5.46875,2.4414 -16.4375,5.17187 -24.074216,6.46094 -8.28125,1.51562 -12.121094,2.22265 -20.488282,2.42968 -5.828124,-0.0703 -9.460937,-0.0664 -14.953124,-1.89453 -13.49999961,-4.51562 -2.167969,-18.21094 6.246093,-29.6875 10.964844,-15.01562 22.339844,-26.38281 40.101559,-35.03515 12.10938,-6.09766 23.63282,-10.1211 36.78907,-15.04297 5.601562,-2.19922 11.539062,-3.33203 17.218752,-5.28516 0.0937,-0.0234 0.17578,-0.0625 0.25781,-0.0977 0.0234,-0.0117 0.0469,-0.0117 0.0703,-0.0273 1.07813,-0.37109 1.36328,-1.93359 0.53516,-2.70703 -0.49219,-0.5 -1.17578,-0.52344 -1.83594,-0.48828 -5.38672,0.55078 -10.30469,1.5664 -16.359382,2.83594 -3.73828,0.74218 -7.35546,1.9414 -11,3.02734 -4.5039,1.20703 -9.02734,2.4375 -13.63671,3.16016 -11.25,1.54296 -25.906254,2.44921 -37.593754,-2.32032 -3.597656,-1.46093 -11.222656,-6.32812 -15.957031,-9.28125 -3.445313,-2.14062 -6.617187,-4 -8.8359366,-6.02343 -2.808594,-2.59766 -4.722657,-5.51172 -5.589844,-8.55079 -1.804688,-7.96484 6.2734366,-14.22656 14.9531246,-17.17578 7.566406,-2.76172 13.71875,-2.97656 21.984375,-2.88672 10.460937,0.39063 19.792966,2.4375 30.464846,5.59375 9.74609,2.9336 17.5664,5.46094 26.08203,10.4336 5.035152,2.99609 8.785152,6.74219 13.960942,11.98437 1.83984,1.85938 3.39453,3.50782 5.26562,5.625 0.90234,5.64063 4.64844,9.02735 9.54688,8.79297 -0.0664,1.29688 -0.0898,2.59766 -0.0898,3.89844 -0.0508,0.0234 -0.10156,0.0352 -0.14844,0.0625 M 100.65348,177.3848 c -7.851572,-6.69141 -16.210942,-13.43359 -21.015632,-21.43359 -7.98047,-13.07813 -11.28515,-28.33594 -11.40234,-43.61328 0.14844,-5.1211 0.77734,-10.02735 1.33984,-14.046877 0.69922,-5.34766 1.70313,-10.66797 3.48047,-15.76953 0.36328,-1.35547 2.38672,-4.74219 2.98047,-4.87109 0.0742,-0.0352 0.11719,-0.0586 0.15234,-0.0781 0.0508,-0.0156 0.10157,-0.0273 0.15235,-0.043 4.52343,-0.30859 9.5625,5.03516 13.86328,9.66406 2.5664,2.96485 6.12109,6.73438 7.64453,8.76563 3.781252,4.703117 6.578122,10.039057 8.929692,15.574217 1.66015,3.84375 3.70312,7.99609 5.23437,13.51953 0.74219,2.23047 1.1875,4.33203 1.51953,6.20312 -0.0156,7.12891 0.80078,14.25391 2.61719,21.1836 2.62891,11.1914 7.71094,21.72656 14.65625,30.86719 -0.13281,-0.0195 -0.26563,-0.0391 -0.39063,-0.0625 -2.21875,-0.45313 -4.39453,0.32031 -6.26171,1.49218 -3.50782,2.16407 -6.03907,6.38672 -7.16016,10.69532 -3.47656,-7.41797 -10.14844,-12.85547 -16.33984,-18.04688 m 170.8164,23.78125 c -0.17578,-0.0664 -0.36719,-0.11328 -0.58984,-0.11719 -7.21485,-0.64062 -11.39063,-10.98828 -12.74219,-20.72265 -1.80078,-11.92188 3.55859,-25.5625 14.18359,-30.08985 6.20313,-2.40234 11.99219,-2.89453 17.44141,-1.5664 9.40625,2.3164 17.14453,10.14843 19.0625,17.70703 0.16406,0.59375 0.30469,1.19531 0.42578,1.79687 0.0469,0.3086 0.16797,0.60157 0.3711,0.83985 -1.85157,2.97265 -3.73438,5.67187 -5.5,7.83203 -4.38282,5.42187 -10.23438,10.79687 -14.65625,13.91015 -5.54297,4.0586 -11.9961,7.57813 -17.9961,10.41016 m -149.6875,-42.01562 c 0.0977,-0.13282 0.1836,-0.28907 0.23828,-0.47657 1.0586,-5.76953 8.67578,-9.76953 14.92969,-10.32031 6.03516,-0.33203 10.17969,1.67969 14.25781,6.05859 5.35938,6.10938 7.83203,15.75391 4.9336,24.13282 -2.06641,5.90625 -5.52344,11.24218 -11.05078,14.12109 -0.10938,0.0508 -0.20704,0.10938 -0.30079,0.17188 -5.04687,-4.44141 -9.57031,-9.35547 -12.92968,-14.26563 -4.46875,-6.67187 -7.8086,-12.53516 -10.07813,-19.42187 m 8.96094,26.95703 c 0.0703,0.008 0.12891,0.0117 0.18359,0.0195 0.63672,0.16015 3.44922,1.59765 4.46875,2.73047 1.5,1.70312 3.09375,3.32031 4.75,4.86718 -1.41797,0.45704 -3.00781,1.38282 -4.68359,2.83594 -2.83984,2.33985 -4.98438,5.63672 -5.83594,9.22656 -0.0312,0.32813 -0.0937,0.6836 -0.13281,1.03907 -6.21875,2.42187 -9.64063,-1.21094 -10.15625,-6.50391 -0.082,-5.01172 2.53125,-10.80469 6.05859,-13.02734 1.53125,-0.83985 1.45703,-0.92578 2.96875,-1.30078 0.77344,-0.0469 1.54297,0.0508 2.3086,0.10546 0.082,0.0117 0.0937,0.0117 0.0703,0.008 m 42.32422,57 c -4.21094,4.82812 -7.8125,10.13281 -10.94141,15.71875 -0.0273,-2.23438 -0.11328,-4.46875 -0.26953,-6.69922 -0.1875,-5.90235 -1.16797,-11.78906 -2.84375,-17.46094 3.42969,1.98047 6.85547,3.96094 10.23438,6.02344 1.2539,0.83203 2.47656,1.73437 3.82031,2.41797 m -0.48828,-3.76953 c -4.55469,-3.23047 -9.56641,-5.74219 -14.40235,-8.51172 -0.16015,-0.0899 -0.32031,-0.14063 -0.47265,-0.17188 -0.8086,-2.28515 -1.72266,-4.53906 -2.89063,-6.65234 2.29297,1.48437 4.61719,2.91406 6.98438,4.26953 5.14843,3.03125 10.73828,5.59375 16.75,6.13281 0.16406,0.0508 2.08593,0.29688 3.83203,0.5 -2.77735,1.76563 -5.4375,4.14453 -7.26953,5.98438 -0.13672,-0.0742 -0.27344,-0.15235 -0.39844,-0.24219 -0.74219,-0.38281 -1.43359,-0.84766 -2.13281,-1.30859 m 26.33593,20.85546 c -2.15625,0.375 -4.23046,1.125 -6.2539,1.95704 -1.32031,0.52734 -2.64844,1.05859 -3.89844,1.74609 0.22656,-0.39844 0.46094,-0.78906 0.67969,-1.1875 1.16406,-2.1875 2.28515,-4.46875 3.23047,-6.80859 2.02343,1.51171 4.11328,2.92968 6.24218,4.29296 m -11.46484,-27.57812 c -0.37891,-0.11719 -0.79687,-0.0664 -1.19141,-0.10547 -1.09765,-0.0508 -2.1914,-0.14062 -3.28125,-0.30078 -1.60937,-0.26953 -5.33203,-0.66797 -8.01953,-1.32031 -3.95312,-1.10547 -5.98828,-1.98047 -9.45703,-3.82813 -4.71484,-2.57422 -9.35547,-5.30469 -13.77344,-8.37109 -0.5,-0.27344 -0.97656,-0.75 -1.50781,-0.99219 -4.67969,-5.09375 -10.9375,-8.63672 -17.58203,-10.52734 0.1875,-2.1211 2.26953,-5.48438 4.18359,-7.39453 2.50391,-2.51954 3.71875,-3.32813 5.92969,-3.71094 2.10938,1.82422 4.29297,3.5625 6.51563,5.24609 0.72265,0.5586 1.45703,1.09766 2.19531,1.62891 -3.5625,-0.23438 -7.15234,-0.0195 -10.71875,-0.2461 -1.57422,0.0234 -1.58203,2.375 0,2.40625 3.55469,0.25782 7.12891,0.14063 10.6875,0.38282 2.05469,0.14062 3.17578,0.38281 4.75,0.58984 3.0625,1.87891 6.25,3.54297 9.57422,4.93359 11.66406,5.15235 24.42578,7.28907 37.07031,8.28125 8.27344,0.49219 16.53125,-0.27734 24.74609,-1.22265 0.1211,0.0976 0.25782,0.17578 0.41797,0.21484 9.07032,1.34766 16.82813,4.97656 24.51563,8.26563 -0.23047,-0.0937 0.16797,0.125 0.40234,0.11718 1.40235,0.25782 2.09766,-1.77343 0.85156,-2.46484 -5.77734,-2.76562 -11.78125,-5.0625 -17.9414,-6.81641 -0.33985,-0.0898 -0.67969,-0.17968 -1.01953,-0.26562 4.49609,-0.67188 8.97265,-1.48438 13.37109,-2.63672 2.59766,-0.69531 5.15625,-1.51953 7.6875,-2.41406 2.50781,1.17969 5.01172,2.37109 7.36719,3.84375 2.58984,1.67578 3.33203,2.18359 5.66797,4.28515 2.25781,2.07422 4.70703,5.38282 5.17968,6.28516 0.57813,1.52734 0.17188,1.43359 -0.60937,2.15234 -3.8125,2.35157 -10.33203,3.3711 -15.83594,4.64063 -10.13281,2.17969 -18.41015,3.44922 -28.58203,3.92187 -9.45703,0.69141 -18.88281,-0.69531 -28.28516,-1.55468 -3.21093,-0.25782 -4.7539,-0.66797 -7.77734,-1.07032 -1.34375,-2.01171 -3.32422,-2.4375 -5.53125,-1.95312 m 74.40625,37.69141 c -0.12891,1.94531 -0.26953,3.72656 -0.4375,5.38671 -1.07812,-0.51562 -2.55469,-1.26562 -4.26172,-2.13281 1.66406,-0.88281 3.19922,-2 4.65235,-3.20703 0.0156,-0.0156 0.0312,-0.0312 0.0469,-0.0469 m -1.43359,-2.58594 c -1.40235,1.26953 -2.14844,1.83594 -4.22266,3.05859 -0.68359,0.47656 -1.62109,0.66406 -2.30078,1.14063 -4.67188,-2.33594 -10.07422,-4.91407 -13.64844,-5.95313 -2.48047,-0.77734 -5.07812,-1.53515 -7.69922,-1.99609 -0.28125,-0.65235 -4.83593,-3.39063 -5.58984,-3.86719 -3.44531,-2.17969 -5.63281,-3.99609 -8.82422,-6.58594 2.79297,0.55078 5.67188,0.73828 8.50391,0.75782 3.74218,0.26953 7.44531,-0.20313 11.16797,-0.48829 7.53125,-0.57421 14.39062,-1.6875 22.19921,-4.42968 2.07422,-0.78516 4.21094,-1.46875 6.19922,-2.45313 -0.33203,0.88672 -0.60937,1.71875 -0.83593,2.44141 -1.80079,5.47656 -2.79688,11.16797 -3.25,16.90625 -0.61329,0.33203 -1.20313,0.99609 -1.69922,1.46875 m -31.00391,17.85156 c -1.12891,0.49609 -2.35156,1.01172 -3.82812,1.47266 -4.20313,1.26953 -8.49219,2.23828 -12.85547,2.76562 -1.27344,0.17969 -1.23438,0.19531 -2.48047,0.30469 0.23828,-1.05469 0.47656,-2.10938 0.71875,-3.16016 0.95703,-4.70312 1.09375,-9.02343 3.73047,-11.23047 0.47265,-0.34375 0.98047,-0.625 1.48437,-0.91796 1.41406,-0.83985 2.85547,-1.62891 4.25781,-2.48438 0.22657,0.57031 0.47266,1.13281 0.72657,1.69141 1.90234,4.41797 4.75,8.32031 8.24609,11.55859 m -4.84375,-11.19141 c -1.21484,-2.43359 -2.26172,-4.58984 -2.37109,-6.79296 0.41015,-0.17969 2.35156,-0.96094 3.72656,-1.10938 1.78125,-0.20703 5.32422,-0.16797 7.73828,0.51953 3.625,0.875 9.80469,2.85156 11.98828,3.80078 4.29688,1.92188 8.37891,4.28516 12.44922,6.64453 3.75,2.28125 7.67578,4.28516 11.27344,6.8125 -0.4375,-0.3125 -0.10547,-0.0937 0.10547,0.0859 0.86718,0.74219 7.71484,5.95313 6.41797,8.21485 -0.0742,0.15234 -0.23829,0.48437 -0.35938,0.66406 -0.0781,0.082 -0.14453,0.16406 -0.22656,0.23828 -0.0899,0.0859 -0.57031,0.68359 -3.1211,0.94141 -4.19531,0.42187 -11.78906,-0.15235 -14.30078,-0.48438 -5.36328,-0.81641 -10.77734,-1.73437 -15.85156,-3.71094 -6.71875,-3.03515 -13.84766,-8.13672 -17.46875,-15.82422 m 53.01563,7.57422 c -3.08985,-1.20703 -6.22657,-2.44922 -6.40625,-2.48828 -1.83594,-0.92969 -5,-2.07031 -6.89063,-2.6875 0.53125,-3.19922 0.57813,-6.45312 0.85938,-9.67969 0.46484,-5.13281 0.91406,-8.82421 2.47265,-14.21484 1.44141,-5.34766 3.86328,-10.94922 6.89844,-13.11328 0.88672,-0.5625 2.25,-0.24609 2.83203,0.80859 0.90234,1.8086 1.23438,6.40235 1.20703,10.42578 0.13281,5.44141 -0.6875,10.83204 -1.11328,16.24219 -0.29297,4.90235 0.125,9.80469 0.14063,14.70703 m 22.22265,-70.03125 c -0.15234,2.64453 -0.16406,3.09375 -0.92187,5.8086 -0.57422,2.10547 -2.26953,4.80468 -4.08594,7.52343 -1.79688,2.42579 -6.17188,7.15235 -9.73047,9.81641 -0.30078,0.22266 -2.96094,2.13281 -4.36328,2.98828 -0.28125,0.22266 -0.62891,0.39453 -0.95313,0.58594 -0.58203,-0.75 -1.3789,-1.37891 -2.53515,-1.83594 -4.22656,-1.37109 -7.33203,2.31641 -9.40235,6.39063 -0.10156,-0.0234 -0.20703,-0.0391 -0.3164,-0.0391 -0.95313,0.0859 -1.67188,0.88672 -2.5586,1.19922 -3.75781,1.55078 -11.15234,4.16016 -16.55859,4.94532 -4.88281,1.02734 -10.3125,1.25781 -16.23437,1.76562 -6.54688,0.0977 -11.8125,0.24609 -17.48829,-1.51172 -0.53906,-0.20312 -1.125,-0.49609 -1.6875,-0.33203 -1.10156,-0.94531 -2.17578,-1.92187 -3.17187,-2.98828 -1.98047,-1.99219 -3.96875,-3.98047 -5.91797,-6.00391 -0.57812,-0.57812 -1.14844,-1.17578 -1.73437,-1.75781 2.79687,0.3125 5.59765,0.56641 8.39843,0.82422 3.64453,0.34766 7.27735,0.90625 10.94532,0.90234 11.45312,0.21094 22.87109,-1.22265 34.08593,-3.45312 4.01563,-0.8711 8.0586,-1.61328 12.0586,-2.54688 3.33593,-0.9414 9.22265,-2.10156 9.95703,-6.07812 0.39844,-2.53516 -1.45313,-4.67969 -2.84766,-6.59766 -3.50781,-4.66797 -8.4375,-8.13281 -13.66797,-10.63672 -0.26562,-0.082 -0.60156,-0.22656 -0.98047,-0.40234 1.71094,-0.66406 3.41016,-1.34766 5.10547,-2.04688 7.7461,-3.16406 15.31641,-6.83203 22.33985,-11.3789 2.5664,0.76172 2.88281,0.77734 5.04687,2.0625 4.36328,2.90625 5.65625,3.54297 6.76953,8.28515 0.51172,2.20313 0.49219,2.14454 0.44922,4.51172 m 4.01172,8.15625 c -3.875,7.16797 -8.27734,14.26172 -12.97266,19.54688 -2.48437,2.76953 -5.17968,5.34375 -7.86328,7.91797 -0.28906,0.33984 -0.67578,0.60547 -1.03906,0.88281 -0.0859,-1.63672 -0.22656,-3.16406 -0.46875,-4.65234 -0.16016,-0.90625 -0.3125,-1.78125 -0.53906,-2.59766 4.61328,-2.68359 8.96484,-5.82422 12.61719,-9.73047 3.65234,-3.63281 6.96093,-8.04297 8.65625,-12.94531 0.11718,-0.39063 0.22656,-0.78125 0.32812,-1.17969 0.57422,0.63672 1.14063,1.28516 1.70703,1.92578 -0.27734,0.375 -0.23047,0.58203 -0.42578,0.83203 m 23.71875,34.58594 c 1.01953,4.50391 1.22266,8.16016 1.44922,13.45313 0.0977,9.71484 -0.90234,17.17187 -2.98828,26.38281 -0.86328,4.22656 -2.1836,8.69531 -3.5625,12.07031 -2.2461,-2.1875 -4.65235,-4.20703 -7.16406,-6.07812 -2.47266,-1.88282 -5.61329,-4.21875 -8.99219,-6.38282 0.0117,-0.0117 0.0234,-0.0234 0.0312,-0.0391 0.39844,-0.44922 1.96875,-2.49609 2.16797,-2.76172 4.61718,-5.54687 9.4375,-14.80469 13.2539,-22.3789 1.46094,-2.98047 2.5625,-6.10547 3.72657,-9.20704 0.42187,-1.0664 1.33203,-3.03125 2.07812,-5.05859 m -5.79687,6.45313 c -1.6836,4.66015 -4.41797,9.77734 -7.29688,14.97656 -2.39844,4.27344 -4.65625,8.65234 -7.63672,12.55859 -0.90625,1.23828 -1.73437,2.53125 -2.66797,3.75 -0.15234,0.19922 0.10157,-0.13281 0.15235,-0.19922 -0.11719,0.15235 -0.23438,0.3086 -0.35547,0.46485 -1.29688,-0.76563 -2.61328,-1.49219 -3.92578,-2.13672 -5.77735,-2.53516 -11.75782,-4.59766 -17.6875,-6.75391 -0.41016,-0.15234 -0.89453,-0.33594 -1.42578,-0.53906 0.0117,-0.36719 -0.0234,-0.74609 0.0117,-1.10547 0.043,-2.16797 0.004,-4.33984 -0.0234,-6.50781 -0.0547,-3.12891 -0.0508,-6.26563 0.19531,-9.38672 0.37109,-3.98438 0.94922,-7.95313 0.96875,-11.96094 0.004,-0.95703 0,-1.86328 -0.0117,-2.73437 0.48047,0.13281 1.02344,0.043 1.44141,-0.39453 5.0039,-4.25782 9.71093,-8.96485 13.62109,-14.25391 3.38281,-4.39063 6.19531,-9.15625 8.88281,-13.98828 0.10157,-0.19922 0.39844,-0.69141 0.61719,-1.05469 0.14453,0.15234 0.28516,0.31641 0.43359,0.47266 2.86719,2.92187 8.10547,8.16015 9.61329,10.19531 3.45703,4.28516 7.23437,11.20312 9.42578,17.17969 -0.83594,4.27734 -2.70313,7.0039 -4.33203,11.41797 M 118.2861,115.08797 c 1.44531,-8.27344 4.02734,-16.542967 7.04687,-23.183597 3.07422,-6.25 6.49219,-12.38281 10.51172,-18.07812 4.51953,-5.98828 9.14063,-11.92969 14.96485,-18.382815 1.66015,-1.910156 3.40234,-3.746094 5.22656,-5.503906 1.14453,-1.101563 2.96484,-3 3.10937,-3.0625 3.60938,5.359375 6.6211,9.363281 8.98828,12.378911 2.98438,4.33593 6.03125,8.625 9.53125,12.57031 1.2461,1.57031 2.40235,3.24609 4.14454,4.30469 0.76562,0.6875 2.07031,0.30859 2.33203,-0.69922 0.0469,-0.14063 0.0586,-0.27344 0.0547,-0.40625 0.31641,-0.40235 0.42188,-0.96875 0.11329,-1.45703 -1.83204,-2.54297 -3.05469,-5.46094 -4.5625,-8.20313 -1.39844,-2.61719 -3.07422,-5.07422 -4.47657,-7.691406 -1.55078,-2.957032 -2.76562,-6.070313 -4.25781,-9.054688 -1.16406,-2.304687 -2.48828,-4.53125 -3.625,-6.847656 0.0508,-0.02344 0.10156,-0.04687 0.14844,-0.07422 5.50781,-3.867187 10.32812,-5.152343 16.63281,-7.535156 12.78516,-4.914063 25.10547,-7.441406 38.04688,-7.941406 3.23437,-0.05859 6.46875,0 9.69531,0.179687 0.58984,0.01953 1.98047,0.15625 2.35937,0.191406 0.0547,0.01563 0.11328,0.02734 0.17188,0.03516 2.16797,1.40625 4.49219,2.507812 6.65625,3.226562 4.79297,1.5625 9.87109,2.121094 14.89844,2.164063 0.23437,0 0.46484,-0.02344 0.69921,-0.03125 1.69532,4.84375 2.45313,9.949218 3.77735,14.898437 1.35937,5.070313 2.48437,10.199219 3.72265,15.300777 1.48047,5.82813 4.21094,14.76563 5.57422,18.05078 0.96875,1.48829 2.6875,0.44922 2.63672,-0.74218 0.0117,-0.13282 0.008,-0.26563 -0.0351,-0.39844 -1.48047,-8.08984 -1.16797,-18.09766 -0.36329,-27.261718 0.72266,-8.253906 1.32422,-19.351562 1.35157,-19.707031 1.84375,0.492187 5.2539,2.269531 7.69531,3.671875 9.37109,5.398437 16.39844,10.410156 23.82422,17.898437 5.58594,5.980467 9.98828,13.488277 13.92969,21.812497 4.99609,10.39063 7.72656,23.50391 7.21484,36.132807 -0.0234,13.24219 -3.03906,28.71485 -7.4375,39.78907 -1.75,4.40234 -4.07031,9.14453 -6.56641,13.55078 -0.5039,-2.16797 -1.42187,-4.29688 -2.97265,-6.73047 -5.06641,-7.84375 -13.98438,-13.32031 -23.35938,-13.82031 -5.07031,-0.28907 -10.2539,0.67578 -14.91797,2.67187 -4.07422,1.79297 -7.53125,4.8125 -10.14062,8.39453 -6.87891,9.31641 -7.4961,21.84766 -4.14844,32.64453 1.48047,4.75391 3.44141,9.7461 7.38281,12.98828 0.99219,0.77344 2.07422,1.48829 3.22657,2.02344 -1.1875,0.51563 -2.34375,1.00781 -3.45313,1.46485 -5.43359,2.23437 -10.91406,4.35546 -16.59766,5.88281 -5.98828,1.61328 -13.78515,2.79687 -18.20312,3.32031 -11.42188,1.55078 -24.76172,2.22656 -34.46484,0.57031 -9.23047,-1.21875 -18.40625,-3.23437 -26.98438,-6.92968 -6.33594,-2.63282 -13.20312,-6.91016 -19.5,-12.00782 0.83984,-0.48047 1.65234,-1.0039 2.40234,-1.61718 2.29688,-1.78907 4.20313,-4.03125 5.82032,-6.44141 4.46875,-6.61719 6.26562,-14.91016 4.54297,-22.74219 -1.65625,-7.32031 -6.24219,-14.33203 -13.03907,-17.78125 -5.80859,-2.94531 -12.63672,-2.62109 -18.4414,0.16016 -3.60938,1.5664 -7.02735,4.21484 -8.78125,7.75781 -3.97657,-13.37109 -4.4336,-26.82812 -2.10547,-39.70312 m 37.21094,-79.304686 c 0.27343,-0.199219 0.53515,-0.394531 0.78515,-0.59375 0.79688,-0.910157 0.0156,-2.445313 -1.17969,-2.410157 -0.3789,-0.0078 -0.70703,0.15625 -1.00781,0.367188 -0.76172,0.480469 -1.53906,0.9375 -2.30469,1.417969 -2.875,1.769531 -5.95312,3.175781 -9.04296,4.519531 -1.28125,0.554688 -6.94141,2.851562 -9.83985,3.398438 -4.60937,0.824218 -8.64453,1.386718 -12.90625,-0.05078 -2.35156,-0.84375 -5.63281,-3.691406 -6.21094,-6.804687 -0.33984,-0.582031 0.25391,-4.296875 0.89454,-5.339844 3.46875,-6.460937 6.73046,-10.175781 13.54687,-13.125 2.04297,-1.011719 10.00781,-2.878906 12.45703,-3.007813 6.92578,-0.835937 12.57422,0.390626 15.10547,6.136719 2.5625,5.644531 5.28125,14.222657 8.35156,21.023438 1.42969,3.335937 3.42578,6.378906 4.99219,9.648437 1.61719,3.351563 2.98438,6.832032 4.92578,10.01953 1.14844,1.73828 2.15625,3.51953 3.125,5.30469 -1.82422,-2.37891 -3.47656,-4.70704 -5.57422,-7.73829 -3.28125,-4.277336 -5.54297,-7.011711 -8.66015,-11.687492 -2.50391,-3.683594 -5.36719,-7.125 -7.45703,-11.078125 m 73.95305,-18.480473 c -1.375,-2.984375 -1.1875,-6.640625 1.83594,-9.3515618 4.57031,-4.1875 11.28515,-5.5625 18.75781,-4.5625 -0.78125,-0.136719 3.16797,0.507812 3.97266,0.714843 1.67578,0.378907 3.3164,0.925781 4.91015,1.566407 2.46875,1.113281 7.31641,4.5351558 8.78907,7.2929678 2.83984,4.40625 3.14843,8.023438 2.88281,13.6875 -0.7461,10.699219 -1.34375,21.402344 -1.92578,32.113284 -0.14844,2.63672 -0.15235,5.28515 -0.0547,7.92969 -1.68359,-6.47657 -3.28516,-13.441411 -4.89063,-19.566411 -1.49218,-5.074219 -2.14843,-10.449219 -3.96875,-15.410157 0.89454,-0.109374 1.90235,-0.398437 1.96875,-1.441406 0.21485,-1.050781 -0.92187,-2.015625 -1.9375,-1.703125 -0.26562,0.03906 -0.0195,0.0078 0.13282,-0.01172 -0.69141,0.109376 -1.19532,0.144532 -2.69922,0.242188 -2.57813,0.128906 -5.16406,-0.02734 -7.73438,-0.289062 -4.15234,-0.5 -8.80468,-1.550782 -12.95312,-4.109376 -2.86719,-1.890624 -5.4961,-3.949218 -7.08594,-7.101562 M 327.71187,133.6114 c 4.61719,2.60547 7.69141,6.05078 10.41406,10.04297 0.35938,0.60547 0.7461,1.19922 1.0625,1.82813 0.008,0.0234 0.0156,0.0469 0.0234,0.0703 0.0195,0.0586 0.0352,0.10547 0.0508,0.14453 0.0117,0.0391 0.0234,0.0781 0.043,0.11328 0,0.004 0,0.004 0,0.008 -4.03516,1.26563 -7.92578,3.02735 -11.57422,5.13282 -2.48828,1.60937 -4.75,3.51953 -6.95703,5.49218 3.12891,-7.33593 5.44531,-15 6.9375,-22.83203 m 55.40625,25.51154 c -7.78516,-11.60156 -21.38672,-16.94922 -35.07031,-15.1875 -1.88672,0.21485 -3.75391,0.55469 -5.60157,1.00391 -0.0156,-0.23047 -0.0703,-0.46094 -0.14062,-0.67578 -1.86719,-4.22266 -5.17578,-7.70703 -8.6875,-10.63282 -1.41797,-1.13671 -2.94141,-2.125 -4.54688,-2.96875 -0.2539,-0.12109 -0.51171,-0.26953 -0.77734,-0.39843 0.57422,-3.58594 0.98828,-7.20313 1.22266,-10.83594 0.78906,-10.66016 0.4414,-21.492187 -2.39063,-31.847657 -1.59375,-5.87109 -3.79687,-11.55078 -6.64062,-16.92578 -2.91407,-6.07031 -6.54297,-11.78125 -10.83594,-16.972654 -4.50781,-5.375 -10.00391,-9.871094 -15.71484,-13.910156 -4.05079,-2.902344 -8.26954,-5.558594 -12.65625,-7.925781 -1.67188,-0.902344 -6.21094,-3.304688 -7.64844,-3.625 0.30078,-4.121094 0.42187,-7.9375 -0.80078,-11.914063 -3.4336,-10.5742178 -13.63672,-15.48046779 -24.12891,-16.17968679 -5.10937,-0.417969 -10.44922,0.132812 -15.02344,2.59374999 -2.77343,1.460937 -5.42968,3.535156 -6.89062,6.363281 -2.53516,5.3984378 -0.38672,10.3593748 3.4414,14.1757808 -0.53906,-0.02344 -1.07812,-0.04297 -1.61718,-0.0625 -11.23438,-0.402343 -22.53125,1.109375 -33.36328,4.054688 -4.77344,1.355469 -9.41407,3.101562 -14.0625,4.816406 -3.91407,1.484375 -7.85157,2.949219 -11.53125,4.964844 -1.07813,0.609375 -2.14063,1.246093 -3.13672,1.980469 -0.0977,0.07031 -0.19922,0.140624 -0.29688,0.214843 -2.35156,-5.132812 -5.30078,-14.867187 -8.54297,-21.757812 -3.41406,-6.449219 -11.69531,-7.5156248 -18.24218,-6.386719 -4.29688,0.625 -8.59766,1.574219 -12.60547,3.277344 -6.81641,2.765625 -11.52735,7.976562 -14.76953,14.46875 -1.10547,2.484375 -1.71485,5.394531 -1.02735,8.070312 1.1875,3.871094 4.40235,7.03125 8.17188,8.421875 5.34765,1.785157 11.24218,0.886719 16.60156,-0.425781 5.46875,-1.738281 12.23047,-4.507812 17.09375,-7.410156 1.38281,2.605468 3.09375,5 4.81641,7.386718 -0.21094,0.191407 -1.04688,0.816407 -1.26172,1.035157 -7.22266,6.542969 -13.5625,14.019531 -19.51563,21.714841 -4.76562,5.65625 -8.57812,12 -12.1289,18.47266 -3.80469,6.83594 -6.32032,14.289057 -8.35547,21.820307 -1.10938,4.51172 -1.92578,9.10547 -2.41016,13.73438 -0.99609,-3.20313 -2.16406,-6.41797 -3.34375,-9.11329 -1.87109,-4.48046 -3.64062,-9.05078 -6.25391,-13.167957 -4.44531,-6.86329 -10.066402,-12.86329 -15.746092,-18.71485 -2.36719,-2.16015 -3.15625,-2.83593 -5.92969,-4.49609 -1.72265,-0.99609 -3.60937,-1.80078 -5.625,-1.78906 -6.41796,-0.5 -8.61718,12.46093 -9.69921,17.22265 -1.2461,7.94922 -2.55469,15.976557 -2.35938,24.046877 0.75781,15.07031 4.24219,30.46093 12.62891,43.1914 6.92578,10.37891 17.33203,17.65625 26.652342,25.71875 2.69531,2.46094 5.18359,4.92969 7.10156,7.42188 -2.5625,-2.67188 -5.25781,-5.22266 -8.10547,-7.58594 -5.492182,-4.34766 -11.968752,-7.20312 -18.441402,-9.76953 -13.3711,-4.87891 -27.26172,-8.8125 -41.511721,-9.84766 -8.589844,-0.47656 -17.457031,-0.21484 -25.617188,2.76563 -8.2695306,2.78125 -18.04296861,8.82031 -17.78906161,18.63672 0.03516,3.74218 1.93750001,7.17578 4.20703101,10.03906 4.265625,5.43359 10.7695306,8.35156 16.4296876,12.07422 5.925781,3.76953 12.042968,7.5039 18.980468,9.05078 13.5625,2.94141 27.664064,2.07812 41.156254,-1.07031 -0.89063,0.33593 -1.77735,0.66797 -2.66797,1 -12.91797,5.05078 -25.914065,10.55078 -37.046878,18.96484 -11.871093,8.61328 -20.652343,20.54297 -29.136718,32.33203 -5.6210936,8.02735 -14.1562496,20.55469 -2.1367186,27.21485 11.7304686,5.33593 27.7304686,3 40.0585936,0.69531 8.964841,-1.67969 18.015621,-3.57422 26.328121,-7.44141 4.7461,-2.26172 9.03125,-5.32031 13.06641,-8.66797 3.61719,-2.85156 6.625,-6.33984 9.43359,-9.96484 7.246102,-8.57031 12.933602,-18.28125 18.265632,-28.11719 2.51953,-4.41406 4.59375,-10.24609 6.09765,-13.63672 0.98047,-2.20703 1.91016,-4.43359 2.83985,-6.66406 -0.008,0.24609 -0.0156,0.49219 -0.0273,0.73438 -0.33984,5.83593 -0.875,9.25781 -1.78125,14.59765 -1.04296,5.51953 -2.76171,10.87891 -4.01562,16.34766 -2.12109,8.73047 -3.79688,17.59765 -3.84375,26.61328 -0.0156,5.07812 -0.23828,10.1875 0.61328,15.21875 0.65625,3.98047 2.01563,7.80859 3.48438,11.55469 1.25781,3.11328 2.92578,6.05859 4.89062,8.78125 1.30859,1.77734 2.73047,3.6875 4.91016,4.40625 3.91015,1.44531 7.72265,-1.25782 10.59375,-3.6836 5.14453,-4.58984 8.10937,-10.92968 10.70312,-17.1914 0.84375,-1.94922 1.5586,-3.94922 2.25,-5.95703 0.79688,0.74218 1.91016,1.21093 3.42578,1.01171 1.60547,-0.0508 3.21094,-0.3125 4.67969,-0.95312 -3.03906,3.48047 -6.12109,6.91797 -8.98828,10.53516 -4.00781,5.625 -7.94141,11.36328 -11.10547,17.51171 -1.9375,3.98438 -3.29297,8.22266 -4.71094,12.41016 -4.01172,12.64844 -4.67578,26.30469 -2.28125,39.33594 1.03516,5.5625 3.09766,10.88672 5.36328,16.05469 2.83204,6.20703 5.66797,12.48046 9.57422,18.10156 0.27344,0.3789 0.55078,0.7539 0.82032,1.1289 0.0742,0.16016 0.29687,0.4375 0.43359,0.59375 0.26562,0.38672 0.50781,0.82422 0.96875,0.98438 0.78516,0.35937 1.72266,-0.1875 1.91016,-1.01172 0.8164,-3.4375 0.63671,-6.49219 1.19921,-9.09766 1.57813,-9.10937 5.3711,-15.74218 10.54688,-23.54687 4.71875,-7.34766 9.83594,-14.50781 14.6875,-20.37891 3.16016,-3.90234 6.62109,-7.58593 9.63672,-11.59765 3.09765,2.34765 6.5625,4.17578 10.02734,5.92578 1.38281,0.69922 8,3.5 8.13672,3.48828 2.29688,0.80859 4.64063,1.48437 7.01563,2.03906 0.47656,2.03516 0.65625,4.1211 1.03125,6.17578 0.69921,3.86328 1.20703,6.10938 1.48828,9.4375 0.40234,4.85547 0.41797,7.97266 -1.01172,12.23047 -0.95703,3.02735 -3.62891,7.62891 -5.6211,9.85938 -2.32031,2.64843 -5.125,4.8164 -7.53906,7.375 -3.14844,3.05468 -6.16797,6.85156 -6.05078,11.46875 -0.57812,5.50781 4.84766,9.49218 9.91016,7.16015 4.39453,-1.69922 7.62109,-5.26172 10.52343,-8.83984 5.20313,-6.33984 9.54297,-13.64063 11.70704,-21.59375 0.92968,-4.06641 0.60937,-8.3125 -0.625,-12.28125 -1.10157,-3.86719 -2.41016,-7.68359 -3.75391,-11.47266 -0.89063,-2.80078 -2.31641,-6.0664 -3.03906,-7.7539 -0.0703,-0.17969 -0.13672,-0.35938 -0.20313,-0.53907 1.88672,0.2461 3.78516,0.42188 5.6875,0.50782 23.73438,1.25781 48.02735,-6.3711 68.31641,-18.75391 1.49609,1.41016 3.58203,3.27344 3.89062,3.84766 2.44532,3.54297 3.53907,5.76562 4.22657,9.6289 0.35546,1.95703 0.69921,5.01953 0.68359,9.01172 0.082,9.33203 -3.28125,18.39844 -3.67969,28.59375 -0.17187,3.56641 0.875,7.14844 3.16797,9.91406 4.98438,6.23047 12.09375,0.9961 14.89063,-4.54687 4.77343,-9.04688 5.03125,-19.80078 3.97265,-29.77344 -0.10156,-1.0664 -0.8789,-6.1914 -2.17578,-9.59375 -1.37109,-3.54687 -3.19141,-6.96875 -5.63281,-9.89453 -2.01563,-2.49219 -4.62891,-4.38281 -6.8125,-6.71094 -1.51563,-1.59375 -3.14453,-3.09375 -4.51563,-4.8164 -0.16015,-0.21485 -0.30859,-0.44532 -0.44922,-0.67578 3.99219,-2.90625 7.84375,-6.03907 11.17579,-9.69141 0.52343,-0.60938 0.83593,-0.92578 1.05859,-1.16797 1.04687,1.25391 2.10156,2.50781 3.21094,3.71094 1.54687,1.58594 3.10937,3.37109 5.22656,4.17187 5.00391,1.41016 6.29687,-4.91797 6.5625,-8.59765 0.0625,-1.71094 0.0234,-3.46485 -0.51172,-5.10938 -0.49219,-1.38281 -1.375,-2.57422 -2.19922,-3.77734 -0.57422,-0.81641 -1.13281,-1.64453 -1.70703,-2.46485 0.26563,-0.12109 0.50391,-0.30468 0.6875,-0.55468 0.17969,-0.17578 0.36328,-0.35157 0.54688,-0.52344 1.20312,-0.97656 2.3125,-2.0625 3.29687,-3.26563 5.10938,-6.3789 11.4375,-14.05468 16.04297,-22.32031 2.56641,-4.60156 4.34766,-9.57812 6.21875,-14.48828 2.67578,-6.92578 4.46875,-14.13672 5.66406,-21.45312 0.33985,0.043 0.70313,-0.0195 1.0586,-0.23438 0.043,-0.0273 0.0781,-0.0508 0.11718,-0.0742 1.50391,-0.61719 2.90235,-1.47265 4.38282,-2.14062 1.23046,-0.46094 5.47656,-2.87891 7.67578,-4.69532 6.60156,-4.45312 12.03906,-10.48437 16.02734,-17.36328 3.15234,-5.99218 5.44141,-12.48047 5.91016,-19.26953 1.09375,-14.30078 -2.25391,-33.6875 -10.71094,-45.46875"
         id="path363" />
      <path
         fill-rule="nonzero"
         fill="#000000"
         fill-opacity="1"
         d="m 158.05172,116.06062 c 0.54297,0.41016 1.16797,0.69531 1.81641,0.89453 1.49609,0.33594 2.99219,0.22657 4.47266,-0.0547 -2.76172,3.64062 -4.15625,8.3789 -4.02735,12.90234 0.004,2.89453 0.52344,5.84375 2.17188,8.28125 3.97656,6.30469 13.11328,8.32422 18.97656,3.42969 3.52734,-2.70703 5.4375,-7.19141 5.69922,-11.5625 0.1289,-5.16797 -1.1875,-8.875 -3.58985,-12.57032 -2.26953,-3.37109 -6.30078,-5.1289 -10.2539,-5.5 -4.26172,-0.39453 -8.66016,2.01954 -11.60547,1.9961 -2.14063,0.0508 -1.46094,-0.26563 -2.91016,-0.63672 -0.99218,-0.21094 -1.89843,0.87109 -1.60156,1.82031 0.45703,0.99219 0.48047,0.66797 0.85156,1"
         id="path365" />
      <path
         fill-rule="nonzero"
         fill="#000000"
         fill-opacity="1"
         d="m 262.80172,136.38875 c 4.10547,-4.53125 5.94922,-14.98438 0.83203,-22.26953 -0.65625,-0.92969 -1.45312,-1.80469 -2.34765,-2.5625 0.1289,-0.004 0.25781,-0.0117 0.39062,-0.0195 1.19922,-0.17968 3.51172,-0.1875 5.36328,-1.38281 0.89844,-0.57812 1.91016,-1.32812 2.20704,-2.39453 0.22656,-1.1875 -1.53516,-1.79687 -2.10938,-0.73047 -2.32812,3.33203 -11.04297,0.75 -16.94141,3.21875 -10.71093,4.16016 -15.71093,17.60156 -7.73437,26.82031 4.14844,5.03516 14.22656,6.06641 20.33984,-0.67968"
         id="path367" />
      <path
         fill-rule="nonzero"
         fill="#000000"
         fill-opacity="1"
         d="m 206.62204,165.27156 c 1.58203,1.44922 3.03906,3.25391 5,4.17187 1.67187,0.30079 3.03125,-1.0664 4.36718,-1.86328 2.73828,-1.83984 6.51172,-5.32031 7.98047,-6.41797 0.28516,-0.23437 1.34375,-1.08984 1.52344,-1.24609 0.28516,-0.21875 0.50391,-0.51562 0.59766,-0.86328 0.30078,-1.00781 -0.52735,-2.07422 -1.57032,-2.0625 -0.60547,-0.0195 -1.07812,0.38281 -1.53515,0.73437 0.40625,-0.3164 -1.47657,1.08985 -1.8125,1.37891 -4.11328,3.30469 -5.22657,4.74219 -8.98047,7.00781 -0.0859,-0.0703 -0.17578,-0.13672 -0.26172,-0.20703 -2.24609,-1.97265 -4.33984,-4.12109 -6.50391,-6.1875 -0.72656,-0.75 -1.48047,-1.47265 -2.19922,-2.23437 -0.30078,-0.29688 -0.53515,-0.70703 -0.96093,-0.83594 -1.47266,-0.69922 -2.83985,1.33984 -1.66407,2.46484 1.90235,2.15235 3.96875,4.14844 6.01954,6.16016"
         id="path369" />
      <path
         fill-rule="nonzero"
         fill="#000000"
         fill-opacity="1"
         d="m 117.7861,183.47078 c 0.0195,-0.46485 -0.2461,-0.83985 -0.51172,-1.19531 -0.4375,-0.62891 -0.85938,-1.26563 -1.27734,-1.90625 -2.98438,-4.57422 -5.77344,-9.26563 -8.21875,-14.15235 -2.70313,-4.9375 -4.22657,-8.30078 -6.07813,-13.25781 -2.234372,-5.57031 -4.035162,-13.25391 -4.683592,-17.96484 -0.23828,-0.97657 0.004,-2.23829 -0.64063,-3.03907 -0.75,-0.80078 -2.22656,-0.20312 -2.1875,0.90625 1.12891,11.82422 4.66016,23.39844 10.343752,33.83594 3.23047,6.1875 6.57813,12.42188 10.83594,17.95703 0.91016,0.79688 2.45312,0.0195 2.41797,-1.18359"
         id="path371" />
      <path
         fill-rule="nonzero"
         fill="#000000"
         fill-opacity="1"
         d="m 107.20797,199.51765 c -6.65234,-3.5039 -13.921872,-5.67187 -21.371092,-6.60547 -5.70312,-0.64453 -11.45312,-0.9375 -17.18359,-1.26562 -3.71485,-0.14844 -7.41797,0.32812 -11.13282,0.23437 -1.800778,0.0273 -1.832028,2.73829 0,2.77735 3.34766,0.17969 6.69922,-0.14063 10.04688,0.004 4.32812,0.16797 8.62109,0.79688 12.94141,1.08594 4.71484,0.33985 8.27734,0.89453 13.49609,2.16016 3.16015,0.74219 9.687502,3.39062 10.078122,3.57031 0.5586,0.23438 1.10938,0.48047 1.66797,0.70703 0.0937,0.0508 0.1875,0.0859 0.28516,0.11719 0.004,0.004 0.008,0.004 0.0156,0.004 -0.008,0 -0.0117,0 -0.0156,-0.004 0.27734,0.0859 0.57422,0.0977 0.85156,0.0195 1.28125,-0.30859 1.51172,-2.21484 0.32031,-2.80469"
         id="path373" />
      <path
         fill-rule="nonzero"
         fill="#000000"
         fill-opacity="1"
         d="m 115.71969,213.05281 c -5.07812,2.59766 -10.42969,4.63281 -15.42578,7.39453 -7.871092,4.21875 -15.312502,9.33203 -21.824222,15.45313 -3.625,3.23046 -6.78906,6.90625 -9.97265,10.5625 -2.89063,3.26562 -5.8711,6.44531 -8.73047,9.74218 -0.73047,0.92969 -1.65625,1.75 -2.26563,2.75391 -0.43359,0.85547 0.32422,1.96484 1.27344,1.92969 0.54297,0 0.97266,-0.33985 1.30469,-0.7461 0.51172,-0.53906 1.02734,-1.08203 1.54297,-1.625 1.79297,-1.91406 3.5664,-3.84375 5.35547,-5.75781 3.61328,-3.80078 6.93359,-7.87109 10.6289,-11.58594 5.39844,-5.21484 9.66406,-8.69922 15.57422,-12.6289 6.58594,-4.46875 13.656252,-8.1211 20.851562,-11.4961 1.03906,-0.51172 2.06641,-1.05859 3.08985,-1.60156 0.3125,-0.17969 0.54296,-0.48047 0.63671,-0.82812 0.35157,-1.14454 -1.01171,-2.21094 -2.03906,-1.56641"
         id="path375" />
      <path
         fill-rule="nonzero"
         fill="#000000"
         fill-opacity="1"
         d="m 135.63766,215.51375 c -0.53516,-0.83985 -0.83203,-2.19532 -1.83203,-2.55078 -1.05859,-0.32032 -2.03125,0.93359 -1.44141,1.875 2.64844,4.60156 3.85547,9.65625 5,15.49218 1.75391,9.16797 2.58594,17.8125 1.73828,27.7461 -0.29296,2.89062 -0.35156,3.73047 -0.88281,6.44922 -0.12109,0.9414 -0.53906,1.875 -0.49219,2.82031 0.0469,0.76172 0.78125,1.33984 1.52735,1.34375 1.58594,-0.0117 1.61328,-1.80078 1.85156,-2.97266 0.48438,-2.48047 0.75391,-4.99609 0.98438,-7.51172 0.8164,-9.60156 -0.14063,-19.26953 -2.03907,-28.69531 -0.97656,-4.80469 -2.08203,-9.64062 -4.41406,-13.99609"
         id="path377" />
      <path
         fill-rule="nonzero"
         fill="#000000"
         fill-opacity="1"
         d="m 207.71969,270.3575 c 0.59766,-0.27344 1.36328,-0.33594 1.71485,-0.95313 0.60156,-0.95703 -0.38672,-2.28125 -1.48438,-1.93359 -2.69141,0.9375 -5.24219,2.21484 -7.79297,3.46484 -2.625,1.28516 -5.28515,2.52344 -7.73828,4.1211 -7.83594,5.1914 -14.98437,11.64062 -19.73828,19.83984 -2.80078,4.50391 -4.62891,9.52734 -6.58984,14.4375 -3.28516,8.69922 -5.58985,17.73828 -8.79297,26.47266 -2.07422,5.76953 -4.47657,11.42187 -6.34375,17.26562 -0.40625,1.25 -0.77735,2.50781 -1.08594,3.78516 -0.0703,0.39062 -0.26172,0.78125 -0.17188,1.17968 0.0312,0.55079 0.48829,1.02735 1.00782,1.17188 0.49218,0.12109 1.00781,-0.0117 1.37109,-0.36328 0.34375,-0.32422 0.40234,-0.80078 0.54688,-1.23047 0.35156,-1.13281 0.71093,-2.26172 1.08203,-3.38672 1.87109,-5.57812 4.14062,-11.00391 6.20703,-16.50781 5.01953,-13.44141 8.51172,-28.14063 14.76953,-39.73828 3.80078,-6.50391 7.31641,-11.02344 13.33203,-15.91797 2.49219,-2.03906 4.13281,-3.3711 7.30078,-5.35547 2.6875,-1.64844 5.53906,-3.00781 8.33594,-4.45703 1.46094,-0.72656 3.48047,-1.67969 4.07031,-1.89453"
         id="path379" />
      <path
         fill-rule="nonzero"
         fill="#ffffff"
         fill-opacity="1"
         d="m 174.5361,122.25984 c 0,1.87109 -1.51563,3.38672 -3.38672,3.38672 -1.87109,0 -3.39063,-1.51563 -3.39063,-3.38672 0,-1.87109 1.51954,-3.39062 3.39063,-3.39062 1.87109,0 3.38672,1.51953 3.38672,3.39062"
         id="path381" />
      <path
         fill-rule="nonzero"
         fill="#ffffff"
         fill-opacity="1"
         d="m 251.61813,121.13093 c 0,1.8711 -1.51563,3.38672 -3.38672,3.38672 -1.87109,0 -3.39062,-1.51562 -3.39062,-3.38672 0,-1.87109 1.51953,-3.39062 3.39062,-3.39062 1.87109,0 3.38672,1.51953 3.38672,3.39062"
         id="path383" />
      <path
         fill-rule="nonzero"
         fill="#000000"
         fill-opacity="1"
         d="m 42.661097,121.75203 c -1.09375,3.6289 -2.433594,7.20312 -3.292969,10.89453 -0.144531,-0.082 -0.28125,-0.17188 -0.414062,-0.26563 -6.246094,-3.63281 -12.105469,-7.92578 -16.660157,-11.67187 -7.34375,-5.91016 -13.9101556,-12.33984 -13.0976556,-20.10547 0.269531,-1.460937 0.210937,-1.445307 0.730469,-2.218747 0.02344,-0.0234 0.04687,-0.0469 0.07422,-0.0781 0.183594,-0.17188 0.253907,-0.23438 0.246094,-0.23047 0.3125,-0.19922 0.742188,-0.41407 0.9375,-0.51563 0.03516,-0.0117 0.06641,-0.0234 0.101563,-0.0352 3.285156,-0.82422 7.808593,0.74218 11.007812,4.183587 2.921875,3.03516 4.300781,4.90234 6.40625,8.69922 0.496094,0.73437 0.792969,1.44531 1.675781,2.10547 0.02344,0.008 2.351563,1.79297 2.441407,-1.69922 0.609375,-23.089847 8.957031,-25.441407 11.554687,-19.332027 2.59375,6.08984 1.714844,12.503897 0.980469,18.109367 -0.648437,4.10547 -1.527344,8.17188 -2.691406,12.16016 m 1.042969,-36.093747 c -11.042969,-5.26563 -15.355469,17.800777 -14.445313,19.789057 -1.21875,-1.91016 -2.570313,-3.72656 -4.128906,-5.38281 -1.621094,-1.960937 -3.546875,-3.707027 -5.863281,-4.800777 -5.410157,-2.98047 -13.2929614,-2.46875 -13.8163994,5.039057 -1.003906,9.71875 7.0038994,17.44141 13.9492114,23.05469 4.402344,3.60937 8.964844,7.03515 13.753906,10.11328 1.492188,0.93359 2.992188,1.85156 4.488282,2.77344 0.660156,0.34375 1.261718,0.91796 2.019531,0.99218 2.226562,0.0625 2.847656,-3.11718 3.03125,-3.73828 0.449219,-1.94531 1.023437,-3.85937 1.675781,-5.74609 3.023438,-8.46485 5.039062,-17.35156 5.320312,-26.35547 0.01172,-5.390627 -0.96875,-12.699217 -5.984374,-15.738277"
         id="path385" />
      <path
         fill-rule="nonzero"
         fill="#000000"
         fill-opacity="1"
         d="m 10.024378,98.244223 c -0.0039,0.004 -0.0078,0.0117 -0.01172,0.0156 0.0039,-0.004 0.0078,-0.0117 0.01172,-0.0156"
         id="path387" />
      <path
         fill-rule="nonzero"
         fill="#000000"
         fill-opacity="1"
         d="m 379.64547,110.6739 c -3.47656,1.51172 -7.07031,2.79688 -10.4414,4.53125 -0.0312,-0.16406 -0.0508,-0.32812 -0.0625,-0.48828 -1.26563,-7.11719 -1.77735,-14.35937 -1.86328,-20.257807 -0.23829,-9.42187 0.41796,-18.58984 6.87109,-22.98828 1.29297,-0.74219 1.23828,-0.77344 2.16797,-0.87891 0.0312,0.004 0.0625,0.004 0.10547,0.008 0.25,0.0273 0.34375,0.043 0.33593,0.0391 0.35547,0.10937 0.79297,0.29687 0.9961,0.38281 0.0312,0.0156 0.0664,0.0312 0.0937,0.0508 2.7539,1.97656 4.48047,6.4375 3.92578,11.10547 -0.42969,4.19141 -0.96094,6.44922 -2.49609,10.51172 -0.24219,0.85156 -0.58985,1.53906 -0.52735,2.64062 0.0117,0.0195 0.15625,2.94922 2.87891,0.76563 18.01172,-14.46094 25.19922,-9.61328 22.21875,-3.6836 -2.97266,5.91407 -8.4336,9.394537 -13.1836,12.457037 -3.55078,2.15625 -7.22265,4.11718 -11.01953,5.80468 m 28.21485,-22.535147 c -3.1211,-11.82813 -23.50782,-0.21094 -24.4375,1.76953 0.66797,-2.16406 1.18359,-4.36719 1.4375,-6.63281 0.44922,-2.5 0.53515,-5.10157 -0.125,-7.57422 -1.22266,-6.05078 -6.71094,-11.73828 -12.77735,-7.28516 -8.0625,5.51953 -8.78125,16.61719 -8.57422,25.54688 0.0899,5.6914 0.42579,11.386707 1.17188,17.031247 0.25391,1.74218 0.52344,3.48046 0.78516,5.21875 0.16796,0.72265 0.11718,1.55468 0.55078,2.17968 1.39062,1.73828 4.21875,0.15625 4.8125,-0.10547 1.77343,-0.91406 3.60547,-1.71093 5.46484,-2.43359 8.41406,-3.16406 16.5,-7.37109 23.55078,-12.97656 4.1211,-3.472657 9.0625,-8.949217 8.14063,-14.738277"
         id="path389" />
    </g>
  </g>
  <g
     inkscape:groupmode="layer"
     id="layer8"
     inkscape:label="2-fill" />
  <plotdata
     application="axidraw"
     model="4"
     plob_version="n/a"
     layer="-2"
     pause_dist="-25400"
     pause_ref="-25400"
     last_x="7.049916206369744e-16"
     last_y="1.236819674454992e-13"
     rand_seed="1"
     row="0" />
</svg>
