<?xml version="1.0" encoding="UTF-8" standalone="no"?>
<!-- Created with Inkscape (http://www.inkscape.org/) -->

<svg
   width="98mm"
   height="98mm"
   viewBox="0 0 98 98"
   version="1.1"
   id="SVGRoot"
   xml:space="preserve"
   sodipodi:docname="bee.svg"
   inkscape:version="1.2.2 (732a01da63, 2022-12-09)"
   xmlns:inkscape="http://www.inkscape.org/namespaces/inkscape"
   xmlns:sodipodi="http://sodipodi.sourceforge.net/DTD/sodipodi-0.dtd"
   xmlns="http://www.w3.org/2000/svg"
   xmlns:svg="http://www.w3.org/2000/svg"><sodipodi:namedview
     id="namedview24"
     pagecolor="#ffffff"
     bordercolor="#000000"
     borderopacity="0.25"
     inkscape:showpageshadow="2"
     inkscape:pageopacity="0.0"
     inkscape:pagecheckerboard="0"
     inkscape:deskcolor="#d1d1d1"
     inkscape:document-units="mm"
     showgrid="true"
     inkscape:zoom="2.1312939"
     inkscape:cx="152.95873"
     inkscape:cy="113.78065"
     inkscape:window-width="1920"
     inkscape:window-height="1001"
     inkscape:window-x="2391"
     inkscape:window-y="147"
     inkscape:window-maximized="1"
     inkscape:current-layer="SVGRoot"><inkscape:grid
       type="xygrid"
       id="grid1169"
       units="cm"
       spacingx="4.9999999"
       spacingy="4.9999999" /></sodipodi:namedview><defs
     id="defs9" /><g
     id="g37524"
     transform="matrix(0.5051379,0,0,0.4993458,57.113305,30.015033)"><path
       fill-rule="nonzero"
       fill="#000000"
       fill-opacity="1"
       d="m 26.887745,42.539158 c 0.002,0.0034 0.007,0.01064 0.01591,0.01984 -0.0015,-0.0024 -0.0025,-0.0044 -0.004,-0.0058 -0.004,-0.0048 -0.008,-0.0097 -0.01193,-0.01404"
       id="path359"
       style="stroke-width:0.125573" /><path
       fill-rule="nonzero"
       fill="#000000"
       fill-opacity="1"
       d="m 53.887392,58.349482 c 5.06e-4,-0.001 5.06e-4,-0.002 0.001,-0.004 -0.001,0.003 -0.0035,0.008 -0.0065,0.016 0.002,-0.005 0.004,-0.009 0.0055,-0.0121"
       id="path361"
       style="stroke-width:0.125573" /><path
       fill-rule="nonzero"
       fill="#000000"
       fill-opacity="1"
       d="m 61.963471,42.765636 c -0.02089,1.446937 -0.651834,2.763214 -1.636299,3.786716 -0.354008,0.360524 -0.597638,0.54248 -0.919328,0.778635 0.0065,-0.0043 0.01144,-0.0077 0.01591,-0.01113 -0.03431,0.02517 -0.10143,0.07501 -0.124799,0.09582 -0.209819,0.184375 -0.314233,0.225025 -0.621007,0.421498 -0.221253,0.130176 -0.521566,0.270514 -0.610566,0.309228 -0.0011,0 -0.0018,4.92e-4 -0.0029,9.84e-4 0.01241,-0.112755 0.02089,-0.22551 0.02684,-0.338749 0.004,-0.113238 0.0214,-0.233736 -0.0333,-0.338264 -0.06563,-0.116142 -0.240646,-0.145661 -0.337104,-0.04791 -0.2491,0.302454 -0.406216,0.538126 -0.791051,0.958173 -0.08204,0.09049 -0.166563,0.179537 -0.251089,0.268579 -0.04723,-0.0048 -0.09546,0.0048 -0.141204,0.02081 -0.110378,0.03775 -0.221257,0.07453 -0.332631,0.110335 -0.617027,0.202765 -0.76122,0.186795 -1.450343,0.220185 -0.125294,0 -0.249595,-0.01161 -0.373398,-0.02517 -0.004,0 -0.0079,-4.91e-4 -0.01194,-4.91e-4 -0.01144,-0.0421 -0.02288,-0.0842 -0.03529,-0.12582 -0.303294,-0.826545 -0.70951,-1.621635 -1.261405,-2.318971 -0.206341,-0.262288 -0.439031,-0.50183 -0.678683,-0.734599 0.889497,-0.170341 1.78496,-0.314068 2.666999,-0.52022 0.141208,-0.04258 0.302798,-0.05468 0.429088,-0.129691 0.120819,-0.0784 0.103915,-0.272935 -0.0214,-0.339232 -0.07409,-0.04259 -0.156124,-0.02517 -0.23518,-0.0073 -0.152145,0.03436 -0.305281,0.06678 -0.457426,0.100656 -0.873091,0.183408 -1.753141,0.331006 -2.627722,0.506186 -0.04375,0.01258 -0.07607,0.03339 -0.10143,0.05856 -0.06762,-0.06388 -0.135239,-0.127756 -0.202362,-0.192119 -0.140211,-0.131628 -0.274456,-0.269063 -0.40721,-0.407948 0.006,-0.0029 0.01244,-0.0058 0.0184,-0.0097 1.215166,-0.853161 2.491985,-1.615827 3.784217,-2.351877 0.149161,-0.07598 0.118831,-0.309229 -0.04475,-0.347459 -0.08999,-0.02517 -0.166563,0.02759 -0.244125,0.06388 -1.253947,0.634427 -2.440276,1.388866 -3.593789,2.181051 -0.06961,0.05275 -0.161093,0.09146 -0.205345,0.166471 -0.0706,-0.07501 -0.137227,-0.156308 -0.219763,-0.215347 0.06066,-0.501346 -0.0035,-1.017694 -0.232195,-1.473553 -0.247109,-0.380365 -0.651833,-0.633458 -1.050094,-0.845902 -0.07209,-0.03533 -0.146178,-0.06581 -0.221753,-0.09291 0.089,-0.06194 0.177005,-0.124852 0.264513,-0.189214 0.588191,-0.440372 1.126663,-0.948009 1.611934,-1.493877 0.507148,-0.593777 0.930765,-1.248044 1.319579,-1.919733 0.04773,-0.08614 0.09347,-0.172761 0.139715,-0.259384 0.627469,-0.54006 1.07197,-0.992047 1.768552,-1.339505 2.49248,-1.208846 5.217654,-0.866226 6.547178,1.683577 0.635426,1.266916 0.917835,2.786442 0.884028,4.344682 m -7.498825,6.59929 c 0.445988,0.04597 1.088377,0.04113 1.596521,-0.09001 -0.207835,0.20228 -0.417156,0.402141 -0.628465,0.60055 -0.316225,0.271483 -0.512618,0.459247 -0.802987,0.632008 -0.02933,-0.383753 -0.08303,-0.765086 -0.165069,-1.142549 m 2.989186,-0.405045 c -0.168553,0.854128 -0.446489,1.682609 -0.766191,2.494151 -0.242635,0.613134 -0.365442,0.939784 -0.681666,1.49533 -0.423121,0.7283 -0.907397,1.38015 -1.351895,1.92554 -0.290867,0.36488 -0.555874,0.74379 -0.825358,0.96639 0.107893,-0.24099 0.310255,-0.91703 0.392293,-1.29401 0.281415,-1.17546 0.469856,-2.405592 0.431571,-3.621212 0.568305,-0.286484 1.027224,-0.742826 1.483657,-1.172551 0.492727,-0.473279 0.980983,-0.95285 1.417529,-1.476941 0.01739,-0.02033 0.03233,-0.03871 0.04822,-0.05807 -0.03529,0.213411 -0.08253,0.458277 -0.148165,0.741374 m -3.440648,8.79921 c -0.007,0.11421 -0.01989,0.27294 -0.124798,0.58604 0.004,-0.009 0.003,-0.005 -10e-4,0.005 -5.05e-4,0 -5.05e-4,4.9e-4 -5.05e-4,4.9e-4 -0.0035,0.009 -0.0075,0.0189 -0.01143,0.0281 0.0025,-0.007 0.0045,-0.0121 0.0065,-0.0169 -0.0065,0.0145 -0.01641,0.0344 -0.02635,0.0489 -0.0025,0.003 -0.005,0.006 -0.0094,0.0116 -0.005,0.006 -0.01044,0.0111 -0.01541,0.0164 -0.01193,0.0102 -0.02039,0.0174 -0.02635,0.0232 -0.003,0.002 -0.007,0.004 -0.01144,0.007 -0.01093,0.003 -0.02188,0.005 -0.03281,0.008 -0.0055,9.9e-4 -0.0094,10e-4 -0.01293,0.002 -0.004,-4.9e-4 -0.007,-4.9e-4 -0.0099,-9.9e-4 -0.132754,-0.0319 -0.212803,-0.1142 -0.414668,-0.29471 -0.518583,-0.50231 -0.949659,-1.08157 -1.463767,-1.58824 -0.466875,-0.47812 -0.915353,-0.82993 -1.39217,-1.14545 -0.560348,-0.35472 -1.155998,-0.64991 -1.723308,-0.99302 -0.408204,-0.26083 -0.730889,-0.52893 -1.124177,-0.94123 -0.239155,-0.25116 -0.587695,-0.52845 -0.598634,-0.53764 1.001866,0.40698 2.350779,0.8338 3.241271,1.19626 0.625979,0.29471 1.204227,0.67604 1.7601,1.07964 0.469361,0.33052 0.830827,0.59377 1.288752,1.05302 0.125793,0.13066 0.242636,0.3252 0.416657,0.56668 0.278434,0.39149 0.298322,0.4423 0.285892,0.8851 m -1.814295,-0.21148 c -0.0025,0.005 -0.005,0.01 -0.0075,0.0145 -10e-4,0.002 -0.002,0.004 -0.003,0.006 -0.03282,0.0315 -0.06613,0.0624 -0.09894,0.0939 -0.620012,0.57394 -1.04711,0.93349 -1.698447,1.36806 -2.903172,1.94006 -6.557619,3.06422 -9.87347,2.67078 -0.251088,-0.0363 -0.492231,-0.0798 -0.725917,-0.13162 1.742201,-0.31552 3.375515,-1.03706 4.892981,-1.91635 0.840274,-0.48779 1.7069,-0.93446 2.523309,-1.46049 1.015289,-0.64555 1.9734,-1.37483 2.817155,-2.22412 0.06364,-0.075 0.160099,-0.13646 0.222747,-0.21486 0.04823,0.0295 0.09646,0.0586 0.143195,0.089 0.552392,0.36537 1.043132,0.82122 1.558733,1.37629 0.0895,0.0953 0.175513,0.19308 0.261033,0.29132 -0.0045,0.0116 -0.0089,0.0228 -0.01144,0.0348 0.0065,-0.0155 0.01044,-0.0252 0.01342,-0.0324 5.06e-4,0 5.06e-4,0 5.06e-4,4.9e-4 -0.004,0.009 -0.0094,0.0223 -0.01442,0.0344 m -0.948665,2.55755 c 0.300311,0.33245 0.659292,0.60974 0.939218,0.96059 0.116843,0.10501 0.51013,0.78734 0.558856,0.93688 0.181479,0.45779 0.287383,0.99592 0.318708,1.33321 0.131262,1.35499 0.02685,3.00324 -0.868117,3.82737 -0.191922,0.16598 -0.508143,0.27535 -0.659293,0.15776 -0.245121,-0.11615 -0.501678,-0.61991 -0.501678,-0.88413 -0.04922,-1.06658 0.336606,-2.09298 0.455935,-3.25102 0.05966,-0.71862 0.05569,-1.46048 -0.161093,-2.15588 -0.123804,-0.3281 -0.30777,-0.6354 -0.528031,-0.91075 -0.134742,-0.17905 -0.316718,-0.31504 -0.48527,-0.46263 -0.005,-0.003 -0.0094,-0.007 -0.01442,-0.0111 0.114357,-0.0711 0.228216,-0.14324 0.340086,-0.2168 0.178,0.24438 0.400747,0.45344 0.605098,0.67653 m -10.064465,4.86441 c 0.07856,0.34988 0.07209,0.81155 -0.0716,1.23208 -0.207831,0.64507 -0.860162,1.73632 -1.445371,2.36591 -0.325668,0.37359 -0.542947,0.6141 -0.916346,0.81154 -0.271971,0.12147 -0.250591,0.14373 -0.517092,0.13599 -0.09099,-0.0106 -0.336109,-0.12631 -0.378869,-0.31891 -0.06613,-0.33488 -0.02138,-0.69976 0.290863,-1.07528 0.176508,-0.22406 0.754756,-0.75444 1.096335,-1.05641 0.24363,-0.22261 0.43903,-0.48877 0.620511,-0.76025 0.649844,-1.00802 0.654817,-1.88634 0.47085,-3.02502 -0.05519,-0.31842 -0.121317,-0.63442 -0.177501,-0.95236 -0.02287,-0.0982 -0.03431,-0.20325 -0.05419,-0.30536 0.02039,0.003 0.04127,0.007 0.06165,0.0102 0.0094,0.0189 0.02088,0.0445 0.03679,0.0963 0.143693,0.37262 0.226228,0.50957 0.352517,0.87687 0.217776,0.65234 0.467373,1.29692 0.63145,1.96474 m -2.333377,-3.66525 c -0.676694,-0.23519 -1.310132,-0.55458 -1.96644,-0.97076 -0.09298,-0.0629 -0.124799,-0.0857 -0.161095,-0.11372 0.04773,-0.0692 0.09546,-0.13888 0.140212,-0.21002 0.631448,-0.98576 1.111249,-2.05814 1.479181,-3.16149 0.265507,-0.88122 0.46737,-1.77842 0.672219,-2.67465 0.007,4.9e-4 0.01392,10e-4 0.02088,9.8e-4 0.826851,-0.0566 2.02163,-0.31213 2.598884,-0.57877 0.137229,-0.0503 0.109882,-0.0556 0.247111,-0.0948 0.17402,0.12969 0.357489,0.24874 0.548415,0.35423 0.584711,0.36149 1.256931,0.54151 1.930642,0.66879 0.917838,0.17711 1.866999,0.29906 2.801742,0.18873 0.189435,-4.9e-4 0.529025,-0.17373 0.654319,-0.48199 0.19043,0.17227 0.383345,0.33342 0.467373,0.38859 0.502175,0.3552 1.062026,0.61991 1.599503,0.92043 -1.362338,1.3216 -2.825607,2.30251 -4.565323,3.25101 -1.2624,0.72734 -2.564079,1.47887 -3.810568,1.90521 -0.92828,0.3281 -1.768553,0.52216 -2.657057,0.6083 m -2.350778,-1.5055 c -0.430082,0.6775 -0.902426,1.13384 -1.464265,1.79924 -0.615041,0.73944 -1.192791,1.50936 -1.718834,2.31123 -0.394779,0.59813 -0.805469,1.19239 -1.111249,1.83988 -0.3023,0.65669 -0.487757,1.36612 -0.543941,2.08378 -0.0084,0.0876 -0.01392,0.17228 -0.01989,0.25213 -0.390305,-0.60152 -0.707521,-1.24708 -1.010815,-1.89409 -0.262026,-0.54538 -0.481293,-1.07189 -0.673214,-1.73874 -0.127781,-0.47812 -0.18645,-0.94656 -0.226227,-1.31047 -0.129273,-1.56356 0.05121,-2.90065 0.594655,-4.37614 0.278932,-0.88897 0.738845,-1.62357 1.316098,-2.45447 0.450964,-0.68814 0.970045,-1.19432 1.559728,-1.86311 0.229211,-0.26132 0.458421,-0.52216 0.672717,-0.79461 0.05469,-0.0837 0.15811,-0.14711 0.159105,-0.25357 0,-0.002 -5.05e-4,-0.004 -5.05e-4,-0.005 0.696085,-0.607322 1.304662,-1.309013 1.828715,-2.064422 0.02734,-0.0073 0.0537,-0.02129 0.07707,-0.045 0.350528,-0.347942 0.739341,-0.499896 1.213177,-0.676528 0.243132,-0.09243 0.496208,-0.160663 0.754258,-0.198894 0.06911,-0.01209 0.139217,-0.01936 0.208328,-0.03242 0.0025,0 0.005,-4.92e-4 0.0075,-9.84e-4 0.0015,0 0.0025,-4.91e-4 0.0035,-4.91e-4 0.0045,-9.84e-4 0.0045,-0.0014 0.002,-9.84e-4 0.005,-0.0014 0.0095,-0.0029 0.01392,-0.0043 0.293848,0.172761 0.590181,0.340199 0.886515,0.507637 0.127284,0.0784 0.300311,-0.05081 0.255563,-0.191634 -0.0184,-0.0663 -0.07558,-0.102593 -0.134742,-0.132112 -0.09745,-0.05517 -0.192418,-0.114206 -0.287881,-0.172277 -0.564327,-0.348426 -1.157988,-0.653299 -1.699442,-1.036084 -0.05718,-0.04113 -0.114855,-0.08227 -0.172033,-0.123402 0.220759,-0.642653 0.305781,-1.313373 0.07657,-1.969092 0.136729,0.02323 0.274456,0.04404 0.412181,0.06339 0.0065,0.03049 0.02237,0.06001 0.04972,0.08566 0.573276,0.476182 1.037665,1.065119 1.601991,1.552432 0.332629,0.276322 0.965072,0.765086 1.169423,0.912683 0.18645,0.147113 0.382846,0.281645 0.585705,0.406497 0.01939,0.03097 0.358484,0.210025 0.379864,0.221639 -0.262027,0.01016 -0.521567,0.06049 -0.77166,0.170342 -0.162586,0.05855 -0.258546,0.175665 -0.238657,0.350361 0.0055,0.07452 0.0174,0.147598 0.03381,0.219702 -0.0025,0.0019 -0.005,0.0039 -0.0065,0.0053 -0.03331,0.02226 -0.06762,0.04259 -0.100435,0.06485 -0.157117,0.09678 -0.323182,0.177116 -0.486763,0.262771 -0.42859,0.175181 -0.639404,0.552643 -0.734867,0.976561 -0.285395,1.338539 -0.587695,2.675619 -0.954134,3.995769 -0.383344,1.19723 -0.809448,2.15637 -1.506029,3.2573 m -3.624577,-5.96099 c -0.227221,0.1234 -0.346054,0.1384 -0.674207,0.14517 -0.04972,-0.002 -0.110876,-0.0315 -0.167061,-0.18244 -0.08403,-0.920902 0.420635,-2.056674 0.912369,-3.010976 0.576756,-1.113996 1.188317,-2.069748 2.028093,-2.895325 0.490243,-0.474247 1.15749,-0.939299 1.532879,-0.872517 0.0075,0.0043 0.01442,0.0082 0.02039,0.01161 0.07558,0.06533 0.09099,0.131628 0.107892,0.153405 0.07955,0.19115 0.124302,0.392946 0.154134,0.59668 0.217775,1.559691 -1.622375,4.058198 -2.861407,5.202203 -0.360473,0.32713 -0.741827,0.65862 -1.053078,0.85219 m -1.208701,-0.24778 c -0.006,0.0256 -0.006,0.0547 0.004,0.0866 5.05e-4,0.008 5.05e-4,0.016 10e-4,0.0242 -0.04027,0.046 -0.06513,0.11034 -0.08254,0.16986 -0.0532,0.14276 -0.110878,0.28455 -0.162587,0.42827 -0.187445,0.48781 -0.386824,0.94221 -0.684152,1.49533 -0.388316,0.68718 -1.016781,1.32112 -1.546304,1.36709 -0.237662,9.8e-4 -0.404226,-0.18437 -0.632939,-0.52022 -0.473338,-0.69781 -0.70404,-1.31337 -0.908391,-2.17862 -0.0885,-0.39973 -0.08801,-1.00222 -0.08055,-1.565019 -0.02188,-1.632765 0.361467,-3.071959 0.8179,-4.716338 0.161591,-0.588937 0.266501,-1.190456 0.332131,-1.796815 0.07209,-0.541513 0.100933,-1.087381 0.07408,-1.633249 -0.0065,-0.240027 -0.02088,-0.480054 -0.01193,-0.720081 -0.003,-0.06243 0.0084,-0.130176 0.005,-0.194053 0.04027,-0.01307 0.08154,-0.02904 0.122311,-0.04549 0.004,9.83e-4 0.0075,0.0034 0.01143,0.0044 0.465383,0.115173 0.735862,0.257932 1.202736,0.493603 0.17949,0.102109 0.349534,0.219218 0.516594,0.338749 0.005,0.0034 0.0095,0.0068 0.01392,0.01016 0.777626,0.618456 1.151523,1.248044 1.449845,2.117658 0.344066,0.949946 0.4445,1.731 0.492232,2.682398 0.02088,0.30826 0.02387,0.617973 0.01442,0.926717 -0.0075,0.01887 -0.01044,0.03145 -0.0099,0.03775 -0.01143,0.02517 -0.0179,0.05323 -0.01641,0.08178 -5.05e-4,0.03726 0.0094,0.07017 0.02685,0.09775 -0.198882,0.391012 -0.381853,0.789767 -0.550903,1.192393 -0.212305,0.55361 -0.381354,1.134804 -0.40174,1.728577 0,0.029 0.003,0.0576 0.004,0.0866 m -3.313853,-9.182976 c -0.09149,0.05226 -0.106401,0.157276 -0.149161,0.243415 -0.08502,0.197441 -0.168552,0.395851 -0.253574,0.593293 -0.240646,0.542964 -0.554878,1.277563 -0.807955,1.846175 -0.685644,1.326439 -1.564203,2.763697 -2.421382,3.770747 -0.32368,0.383269 -0.628963,0.784927 -1.007334,1.120771 -0.66675,0.572967 -1.223618,0.988175 -2.095714,1.369995 -0.696085,0.30245 -2.092233,0.64071 -3.064266,0.80041 -1.054072,0.18776 -1.542823,0.27535 -2.607833,0.301 -0.741828,-0.009 -1.204227,-0.008 -1.903296,-0.2347 -1.718335,-0.55942 -0.275947,-2.256063 0.795029,-3.677835 1.395651,-1.860209 2.843508,-3.268432 5.104292,-4.340326 1.541332,-0.755408 3.008083,-1.253852 4.682665,-1.863597 0.71299,-0.27245 1.468739,-0.412789 2.191674,-0.654752 0.01193,-0.0029 0.02237,-0.0077 0.03282,-0.0121 0.003,-0.0014 0.006,-0.0014 0.0089,-0.0034 0.137228,-0.04597 0.173524,-0.239542 0.06812,-0.33536 -0.06265,-0.06194 -0.149658,-0.06485 -0.233686,-0.06049 -0.685644,0.06823 -1.311624,0.194053 -2.08229,0.35133 -0.475824,0.09194 -0.936233,0.24051 -1.400125,0.375042 -0.573275,0.149532 -1.149037,0.301969 -1.735737,0.391496 C 20.043942,44.578709 18.178433,44.69098 16.6908,44.100107 16.232876,43.91912 15.262334,43.316149 14.659723,42.9503 14.22119,42.68511 13.81746,42.454761 13.535049,42.204088 13.177559,41.882277 12.93393,41.52127 12.82355,41.144774 c -0.229708,-0.986723 0.798509,-1.762456 1.903296,-2.127819 0.963083,-0.342136 1.746179,-0.368751 2.798262,-0.357622 1.331511,0.04839 2.51933,0.30197 3.877691,0.692982 1.240522,0.363429 2.235924,0.676528 3.319828,1.292565 0.640895,0.371171 1.118211,0.835256 1.777007,1.484683 0.234182,0.230349 0.432069,0.434566 0.670229,0.696852 0.114854,0.698789 0.591673,1.118353 1.215166,1.089317 -0.0084,0.160664 -0.01143,0.32181 -0.01143,0.482958 -0.0065,0.0029 -0.01293,0.0044 -0.0189,0.0077 m -3.199528,-4.584478 c -0.999381,-0.828965 -2.063396,-1.664219 -2.674957,-2.655298 -1.015787,-1.620183 -1.43642,-3.510396 -1.451337,-5.403027 0.01889,-0.634427 0.09894,-1.242238 0.170541,-1.740196 0.089,-0.662495 0.216781,-1.321601 0.443008,-1.953607 0.04624,-0.167922 0.303792,-0.587486 0.379367,-0.603455 0.0095,-0.0044 0.01492,-0.0073 0.01939,-0.0097 0.0065,-0.0019 0.01293,-0.0034 0.01939,-0.0053 0.575761,-0.03823 1.217154,0.62378 1.764575,1.197231 0.326662,0.3673 0.779118,0.834288 0.973028,1.08593 0.481293,0.582645 0.83729,1.243687 1.136608,1.92941 0.21131,0.476183 0.471348,0.990595 0.666252,1.674865 0.09447,0.276322 0.15115,0.536674 0.193412,0.768473 -0.002,0.883165 0.101926,1.765845 0.333127,2.624329 0.334618,1.386445 0.98148,2.691593 1.865507,3.823979 -0.0169,-0.0024 -0.03381,-0.0048 -0.04972,-0.0077 -0.282412,-0.05614 -0.559354,0.03968 -0.797017,0.184859 -0.446489,0.268096 -0.768677,0.791218 -0.911374,1.324989 -0.442511,-0.918975 -1.291735,-1.592599 -2.079803,-2.235736 m 21.742216,2.946092 c -0.02237,-0.0082 -0.04674,-0.01403 -0.07508,-0.01452 -0.918336,-0.07936 -1.449846,-1.361281 -1.621878,-2.567223 -0.229211,-1.476941 0.452952,-3.166808 1.805345,-3.727678 0.789561,-0.297614 1.526416,-0.358589 2.220015,-0.194053 1.197266,0.286966 2.182227,1.257237 2.426354,2.193633 0.02088,0.07356 0.03878,0.148081 0.05419,0.222605 0.006,0.03823 0.02138,0.07453 0.04723,0.104045 -0.235676,0.368267 -0.475327,0.702659 -0.700063,0.97027 -0.557863,0.671688 -1.302674,1.33757 -1.865508,1.723258 -0.705532,0.502799 -1.526913,0.938816 -2.290618,1.289662 m -19.05283,-5.2051 c 0.01244,-0.01646 0.02337,-0.03581 0.03033,-0.05904 0.134743,-0.714757 1.10429,-1.210297 1.900313,-1.27853 0.76818,-0.04113 1.295713,0.208088 1.814793,0.750567 0.682164,0.75686 0.996893,1.951672 0.627969,2.989692 -0.263022,0.731696 -0.703046,1.392737 -1.406589,1.74939 -0.01392,0.0063 -0.02635,0.01355 -0.03829,0.02129 -0.642386,-0.55022 -1.218148,-1.158998 -1.645743,-1.767292 -0.568801,-0.826545 -0.993911,-1.552918 -1.282786,-2.406077 m 1.140586,3.339569 c 0.0089,9.83e-4 0.01641,0.0014 0.02337,0.0024 0.08104,0.01984 0.439031,0.197925 0.568801,0.338264 0.190926,0.210991 0.393785,0.411337 0.6046,0.60297 -0.180485,0.05662 -0.382847,0.171311 -0.596147,0.35133 -0.361466,0.289873 -0.634432,0.698305 -0.742823,1.143032 -0.004,0.04065 -0.01193,0.08469 -0.0169,0.128725 -0.791548,0.300033 -1.227099,-0.150017 -1.29273,-0.805736 -0.01044,-0.620877 0.322188,-1.338538 0.771162,-1.613891 0.194904,-0.104045 0.185457,-0.11469 0.377875,-0.161147 0.09845,-0.0058 0.196396,0.0063 0.293848,0.01306 0.01044,0.0014 0.01193,0.0014 0.0089,9.84e-4 m 5.3872,7.061467 c -0.535986,0.598131 -0.994408,1.255303 -1.392668,1.947316 -0.0035,-0.276806 -0.01442,-0.553611 -0.03431,-0.829932 -0.02387,-0.731212 -0.148664,-1.460487 -0.361964,-2.163147 0.436545,0.24535 0.872593,0.4907 1.302674,0.746213 0.159602,0.103076 0.315227,0.214863 0.486265,0.29955 m -0.06215,-0.466988 c -0.57974,-0.400206 -1.217652,-0.71137 -1.833191,-1.054473 -0.02038,-0.01114 -0.04077,-0.01742 -0.06016,-0.02129 -0.102922,-0.283096 -0.219267,-0.562321 -0.367931,-0.824125 0.291858,0.183891 0.587695,0.361008 0.889001,0.528931 0.655313,0.375526 1.366812,0.692981 2.132009,0.759762 0.02088,0.0063 0.265505,0.03678 0.487756,0.06194 -0.353512,0.218735 -0.692107,0.513445 -0.925295,0.741374 -0.0174,-0.0092 -0.0348,-0.01887 -0.05071,-0.03 -0.09447,-0.04742 -0.182474,-0.105012 -0.271473,-0.162114 m 3.352146,2.583676 c -0.274457,0.04646 -0.538471,0.139371 -0.796023,0.242448 -0.168054,0.06533 -0.337104,0.131143 -0.496209,0.216314 0.02884,-0.04936 0.05867,-0.09775 0.08651,-0.147113 0.148167,-0.270998 0.290863,-0.553611 0.411188,-0.843482 0.25755,0.187278 0.523555,0.362943 0.79453,0.531833 M 36.202879,46.66415 c -0.04823,-0.01452 -0.101429,-0.0082 -0.151648,-0.01307 -0.139714,-0.0063 -0.27893,-0.01742 -0.417651,-0.03726 -0.204847,-0.03339 -0.678683,-0.08275 -1.020759,-0.163565 -0.503169,-0.136951 -0.762213,-0.245351 -1.20373,-0.474248 -0.600124,-0.318907 -1.190803,-0.657171 -1.75314,-1.037051 -0.06364,-0.03387 -0.124301,-0.09291 -0.19192,-0.122918 -0.595651,-0.631039 -1.39217,-1.069959 -2.237914,-1.304179 0.02387,-0.262772 0.288875,-0.679431 0.532505,-0.91607 0.318708,-0.312133 0.473338,-0.412305 0.754755,-0.45973 0.268491,0.225994 0.546427,0.44134 0.829337,0.649912 0.09198,0.0692 0.185456,0.135983 0.279428,0.201797 -0.45345,-0.02903 -0.91038,-0.0024 -1.364327,-0.03049 -0.200373,0.0029 -0.201367,0.294226 0,0.298098 0.452456,0.03194 0.907397,0.01742 1.360349,0.04742 0.261529,0.01742 0.404226,0.04743 0.6046,0.07307 0.389807,0.232768 0.795526,0.43892 1.218646,0.611197 1.48465,0.638299 3.109014,0.903006 4.718462,1.025922 1.053078,0.06097 2.104166,-0.03436 3.149784,-0.151468 0.01541,0.01209 0.03282,0.02178 0.0532,0.02661 1.154508,0.166955 2.141954,0.616521 3.120451,1.023987 -0.02933,-0.01161 0.02138,0.01549 0.05121,0.01452 0.178497,0.03194 0.266999,-0.219701 0.10839,-0.305356 -0.735363,-0.342619 -1.499566,-0.627167 -2.283655,-0.84445 -0.04326,-0.01113 -0.08651,-0.02226 -0.12977,-0.0329 0.572281,-0.08324 1.142076,-0.183892 1.701927,-0.32665 0.330641,-0.08614 0.656309,-0.188247 0.978497,-0.299065 0.319205,0.146145 0.637913,0.293742 0.937726,0.476182 0.329646,0.207604 0.424115,0.270514 0.721443,0.530866 0.287383,0.256964 0.59913,0.66685 0.659291,0.778636 0.07359,0.189214 0.02188,0.1776 -0.07756,0.266642 -0.485271,0.291325 -1.315103,0.417629 -2.015664,0.574905 -1.289746,0.27003 -2.34332,0.427306 -3.638039,0.48586 -1.203729,0.08566 -2.403481,-0.08614 -3.600251,-0.192601 -0.408701,-0.03194 -0.605096,-0.08275 -0.989932,-0.132597 -0.171038,-0.24922 -0.423121,-0.301969 -0.70404,-0.241962 m 9.470734,4.669397 c -0.01641,0.240995 -0.0343,0.461664 -0.05569,0.667332 -0.137227,-0.06388 -0.325171,-0.156791 -0.542449,-0.264223 0.211808,-0.109367 0.40721,-0.24777 0.59217,-0.397303 0.002,-0.0019 0.004,-0.0039 0.006,-0.0058 m -0.182473,-0.320359 c -0.178497,0.157276 -0.273463,0.227445 -0.537478,0.378913 -0.08701,0.05904 -0.206339,0.08227 -0.292853,0.141307 -0.594656,-0.289388 -1.282288,-0.608779 -1.737229,-0.737503 -0.315725,-0.0963 -0.646365,-0.190182 -0.979989,-0.247285 -0.0358,-0.08082 -0.615537,-0.420048 -0.711498,-0.479087 -0.438533,-0.270031 -0.716967,-0.495055 -1.123183,-0.815899 0.355501,0.06823 0.721941,0.09146 1.082413,0.09388 0.47632,0.03339 0.94767,-0.02517 1.421505,-0.06049 0.958609,-0.07114 1.831698,-0.209056 2.825607,-0.54877 0.264016,-0.09727 0.535986,-0.181956 0.789062,-0.303906 -0.04226,0.109851 -0.07756,0.212927 -0.1064,0.302454 -0.229212,0.678463 -0.355999,1.383543 -0.413674,2.094429 -0.07806,0.04113 -0.153139,0.123401 -0.216283,0.181956 m -3.946306,2.211535 c -0.143692,0.0615 -0.299316,0.12534 -0.487259,0.18244 -0.534992,0.15728 -1.080921,0.27729 -1.636297,0.34262 -0.162089,0.0223 -0.157117,0.0242 -0.315725,0.0377 0.03033,-0.13066 0.06066,-0.26132 0.09149,-0.3915 0.121815,-0.582642 0.139217,-1.117863 0.47483,-1.391283 0.06016,-0.04259 0.124798,-0.07743 0.188936,-0.113721 0.179988,-0.104045 0.363456,-0.201797 0.541952,-0.307777 0.02884,0.07065 0.06016,0.140338 0.09248,0.20954 0.242138,0.54732 0.604599,1.030761 1.049596,1.431931 m -0.616532,-1.386443 c -0.15463,-0.301485 -0.287881,-0.568612 -0.301803,-0.841545 0.05221,-0.02226 0.299317,-0.119046 0.474332,-0.137436 0.226725,-0.02565 0.677689,-0.02081 0.984961,0.06436 0.461404,0.108399 1.247981,0.353265 1.525917,0.470859 0.546925,0.238092 1.066503,0.530866 1.584589,0.823157 0.477315,0.282612 0.977004,0.530866 1.434929,0.843968 -0.05569,-0.0387 -0.01343,-0.0116 0.01343,0.0106 0.110378,0.0919 0.981977,0.7375 0.816906,1.0177 -0.0094,0.0189 -0.03033,0.06 -0.04574,0.0823 -0.0099,0.0102 -0.0184,0.0203 -0.02884,0.0295 -0.01144,0.0106 -0.07259,0.0847 -0.397266,0.11663 -0.533997,0.0523 -1.50056,-0.0189 -1.820263,-0.06 -0.682659,-0.10114 -1.371783,-0.21486 -2.01765,-0.45973 -0.855191,-0.37601 -1.762588,-1.008016 -2.223495,-1.960381 m 6.748048,0.938331 c -0.393289,-0.149533 -0.792544,-0.303421 -0.815414,-0.30826 -0.233686,-0.115175 -0.63642,-0.256481 -0.877068,-0.332941 0.06762,-0.396335 0.07359,-0.799444 0.109386,-1.199167 0.05917,-0.635878 0.116345,-1.093187 0.314729,-1.761005 0.183469,-0.662494 0.491734,-1.356443 0.878062,-1.624537 0.112865,-0.06969 0.286389,-0.03049 0.360472,0.100172 0.114854,0.224058 0.157117,0.793155 0.153636,1.291597 0.0169,0.674108 -0.08751,1.341926 -0.141703,2.012162 -0.03729,0.607327 0.01591,1.214653 0.0179,1.821979 m 2.82859,-8.675815 c -0.01939,0.327617 -0.02088,0.383269 -0.117339,0.719598 -0.07309,0.260836 -0.288875,0.595227 -0.520075,0.93204 -0.228715,0.300518 -0.785583,0.886068 -1.238535,1.216104 -0.03828,0.02758 -0.37688,0.264223 -0.555376,0.370203 -0.0358,0.02759 -0.08005,0.04888 -0.121318,0.07259 -0.07408,-0.09291 -0.175512,-0.170826 -0.322685,-0.227445 -0.537974,-0.169857 -0.933251,0.286969 -1.19677,0.791703 -0.01293,-0.0029 -0.02635,-0.0048 -0.04027,-0.0048 -0.121319,0.01064 -0.212804,0.109851 -0.32567,0.148565 -0.478309,0.192119 -1.419515,0.515381 -2.107645,0.612651 -0.621504,0.127272 -1.312618,0.155824 -2.066378,0.218734 -0.833314,0.01211 -1.503543,0.03049 -2.225981,-0.187279 -0.06861,-0.02517 -0.143195,-0.06146 -0.214792,-0.04113 -0.140211,-0.11711 -0.276943,-0.238091 -0.403729,-0.370203 -0.252082,-0.246802 -0.505159,-0.49312 -0.753264,-0.743794 -0.07359,-0.07162 -0.146178,-0.145661 -0.220757,-0.217766 0.355997,0.03871 0.712491,0.07017 1.068986,0.102108 0.463891,0.04307 0.926292,0.112271 1.393166,0.111787 1.4578,0.02613 2.911127,-0.151468 4.338598,-0.427789 0.511125,-0.107917 1.025731,-0.199862 1.534868,-0.315521 0.424611,-0.116625 1.173897,-0.260351 1.267372,-0.752987 0.05072,-0.314068 -0.184961,-0.579743 -0.362462,-0.81735 -0.446488,-0.578291 -1.07396,-1.007533 -1.739716,-1.31773 -0.03381,-0.01016 -0.07657,-0.02807 -0.124798,-0.04984 0.217776,-0.08227 0.434059,-0.166955 0.649845,-0.253578 0.985956,-0.391979 1.949536,-0.846385 2.843509,-1.409674 0.326662,0.09437 0.366936,0.0963 0.642386,0.255513 0.555376,0.360041 0.719951,0.43892 0.861654,1.026405 0.06513,0.272934 0.06265,0.265676 0.05718,0.558934 m 0.510628,1.010436 c -0.493225,0.888004 -1.053573,1.766812 -1.651213,2.421564 -0.316221,0.343102 -0.659291,0.662009 -1.000871,0.980917 -0.03679,0.0421 -0.08602,0.07501 -0.132256,0.109366 -0.01093,-0.202765 -0.02884,-0.391979 -0.05966,-0.576354 -0.02039,-0.112271 -0.03978,-0.22067 -0.06861,-0.321811 0.587197,-0.332456 1.141082,-0.721533 1.605968,-1.205459 0.464885,-0.45005 0.886016,-0.996402 1.101804,-1.603728 0.01491,-0.04839 0.02884,-0.09679 0.04176,-0.146146 0.07309,0.07888 0.145184,0.159212 0.217278,0.238575 -0.0353,0.04646 -0.02933,0.0721 -0.0542,0.103076 m 3.019021,4.284676 c 0.12977,0.557966 0.155625,1.010921 0.184463,1.66664 0.01244,1.203522 -0.114854,2.127334 -0.380361,3.268434 -0.109882,0.52361 -0.277937,1.07722 -0.45345,1.49533 -0.285893,-0.271 -0.59217,-0.52119 -0.911871,-0.75299 -0.31473,-0.23325 -0.714483,-0.52264 -1.144563,-0.79073 0.0015,-0.001 0.003,-0.003 0.004,-0.005 0.05071,-0.0556 0.25059,-0.30922 0.275948,-0.34213 0.587693,-0.68718 1.201244,-1.834081 1.687011,-2.772412 0.185954,-0.369235 0.326165,-0.756375 0.474333,-1.140613 0.0537,-0.132111 0.169546,-0.375526 0.264512,-0.626683 m -0.73785,0.799446 c -0.214295,0.577322 -0.562337,1.211264 -0.928777,1.855369 -0.305283,0.529415 -0.592667,1.071893 -0.972033,1.555823 -0.115351,0.1534 -0.220758,0.31358 -0.33959,0.46457 -0.01939,0.0247 0.01293,-0.0165 0.01939,-0.0247 -0.01492,0.0189 -0.02983,0.0382 -0.04525,0.0576 -0.165072,-0.0949 -0.332629,-0.18485 -0.499689,-0.2647 -0.735365,-0.31407 -1.496584,-0.56958 -2.251338,-0.83671 -0.05221,-0.0189 -0.11386,-0.0416 -0.181479,-0.06678 0.0015,-0.04549 -0.003,-0.09243 0.0015,-0.136951 0.0055,-0.268579 5.05e-4,-0.537641 -0.003,-0.80622 -0.007,-0.387624 -0.0065,-0.776217 0.02486,-1.162873 0.04723,-0.493604 0.120821,-0.985272 0.123306,-1.481779 5.06e-4,-0.118562 0,-0.230833 -0.0015,-0.338748 0.06116,0.01645 0.130268,0.0053 0.183469,-0.04888 0.636917,-0.52748 1.236047,-1.11061 1.733748,-1.765844 0.430578,-0.543933 0.788565,-1.134322 1.130641,-1.732937 0.01293,-0.02468 0.05072,-0.08566 0.07856,-0.13066 0.0184,0.01887 0.0363,0.0392 0.05519,0.05856 0.364948,0.361976 1.031697,1.01092 1.223619,1.263045 0.440025,0.530867 0.92082,1.387898 1.199752,2.128305 -0.106402,0.529897 -0.344065,0.867677 -0.551398,1.414514 M 27.399367,32.104275 c 0.183965,-1.024954 0.512617,-2.049424 0.896955,-2.872097 0.391299,-0.774281 0.826353,-1.534044 1.337975,-2.239607 0.575265,-0.741857 1.163457,-1.477908 1.904788,-2.277353 0.211311,-0.236639 0.433064,-0.464084 0.665258,-0.681851 0.14568,-0.136467 0.377377,-0.371655 0.395773,-0.379397 0.459417,0.663945 0.842761,1.159969 1.144066,1.53356 0.379864,0.537156 0.767682,1.068507 1.213177,1.557272 0.158608,0.194537 0.305781,0.402141 0.527534,0.533286 0.09745,0.08517 0.263517,0.03823 0.29683,-0.08662 0.006,-0.01742 0.0075,-0.03388 0.007,-0.05033 0.04027,-0.04985 0.0537,-0.120014 0.01442,-0.180504 -0.233186,-0.315037 -0.38881,-0.676529 -0.58073,-1.016245 -0.177999,-0.324231 -0.391299,-0.62862 -0.569796,-0.95285 -0.19739,-0.366331 -0.35202,-0.75202 -0.541952,-1.121739 -0.148166,-0.285516 -0.316719,-0.561353 -0.461405,-0.848321 0.0065,-0.0029 0.01293,-0.0058 0.0189,-0.0092 0.701057,-0.479087 1.314606,-0.638298 2.117092,-0.933493 1.627349,-0.608778 3.195529,-0.921877 4.842765,-0.98382 0.411684,-0.0073 0.823369,0 1.234059,0.02226 0.07508,0.0024 0.252082,0.01936 0.30031,0.02371 0.007,0.0019 0.01442,0.0034 0.02188,0.0044 0.275949,0.174213 0.571785,0.31068 0.847236,0.399722 0.610069,0.193571 1.256433,0.262772 1.896334,0.268095 0.02983,0 0.05917,-0.0029 0.089,-0.0039 0.215787,0.600068 0.312244,1.232558 0.480796,1.845692 0.173027,0.628135 0.316221,1.263529 0.473835,1.895535 0.18844,0.722017 0.535985,1.829239 0.709509,2.236219 0.123307,0.184377 0.342076,0.05565 0.335613,-0.09194 0.0015,-0.01645 10e-4,-0.03291 -0.0045,-0.04936 -0.18844,-1.00221 -0.148664,-2.242027 -0.04624,-3.377316 0.09198,-1.022534 0.168552,-2.397366 0.172033,-2.441404 0.234681,0.06097 0.668738,0.281161 0.979491,0.45489 1.192791,0.668785 2.087261,1.289662 3.032445,2.217347 0.711002,0.740889 1.27135,1.670994 1.773029,2.702239 0.635923,1.287242 0.983468,2.911779 0.918334,4.476309 -0.003,1.640507 -0.386824,3.557337 -0.946675,4.929265 -0.222748,0.545384 -0.518086,1.132869 -0.8358,1.678737 -0.06414,-0.268578 -0.180982,-0.532318 -0.378372,-0.833803 -0.644873,-0.971722 -1.779989,-1.650186 -2.973278,-1.712128 -0.64537,-0.03581 -1.305159,0.08372 -1.898821,0.331004 -0.518583,0.222122 -0.958608,0.596196 -1.290739,1.039956 -0.875577,1.154162 -0.954135,2.706595 -0.528031,4.044165 0.18844,0.588937 0.438037,1.207394 0.939715,1.609051 0.12629,0.09582 0.264015,0.184377 0.410691,0.250674 -0.15115,0.06388 -0.298322,0.124852 -0.439529,0.181473 -0.69161,0.276804 -1.389186,0.539576 -2.112619,0.728791 -0.762212,0.199861 -1.75463,0.34649 -2.316968,0.411336 -1.453794,0.192107 -3.151743,0.275825 -4.386797,0.07064 -1.174892,-0.150985 -2.342823,-0.40069 -3.434683,-0.858483 -0.806465,-0.326166 -1.680547,-0.856064 -2.48204,-1.487587 0.106898,-0.05952 0.210316,-0.124368 0.305779,-0.200344 0.292357,-0.221639 0.534992,-0.499412 0.740835,-0.797994 0.568801,-0.81977 0.797514,-1.847144 0.578248,-2.817414 -0.210815,-0.906876 -0.794532,-1.775522 -1.659667,-2.202828 -0.739341,-0.36488 -1.608454,-0.324714 -2.347297,0.01984 -0.459417,0.194053 -0.894471,0.522154 -1.117714,0.961075 -0.50616,-1.656476 -0.564333,-3.323599 -0.267999,-4.918617 m 4.736362,-9.824653 c 0.0348,-0.02468 0.06812,-0.04888 0.09994,-0.07356 0.101431,-0.112755 0.002,-0.302937 -0.150155,-0.298582 -0.04823,-9.83e-4 -0.08999,0.01936 -0.128279,0.04549 -0.09696,0.05952 -0.195897,0.116142 -0.29335,0.175665 -0.365942,0.219218 -0.757738,0.393431 -1.151025,0.559902 -0.163083,0.06872 -0.883532,0.353265 -1.252457,0.421015 -0.5867,0.102108 -1.100311,0.171793 -1.642761,-0.0063 -0.299316,-0.104528 -0.716967,-0.457309 -0.790554,-0.842998 -0.04326,-0.0721 0.03232,-0.532318 0.113861,-0.661526 0.441517,-0.800412 0.856681,-1.260625 1.724301,-1.625989 0.260038,-0.125337 1.273836,-0.356653 1.585583,-0.372623 0.881541,-0.10356 1.600498,0.04839 1.922686,0.760247 0.326166,0.699272 0.672219,1.761973 1.063021,2.604487 0.181977,0.413272 0.436048,0.79025 0.635427,1.195295 0.205842,0.415209 0.379864,0.846386 0.626973,1.241269 0.146178,0.215347 0.274457,0.436017 0.397763,0.657171 -0.232194,-0.294699 -0.442511,-0.583119 -0.70951,-0.958645 -0.417651,-0.529898 -0.705532,-0.868645 -1.102299,-1.447904 -0.318708,-0.456342 -0.683158,-0.88268 -0.949162,-1.372413 m 9.413049,-2.289451 c -0.175015,-0.369719 -0.15115,-0.822673 0.233687,-1.158518 0.581727,-0.518768 1.43642,-0.68911 2.387571,-0.565225 -0.09944,-0.01694 0.403232,0.06291 0.505656,0.08856 0.213301,0.04694 0.422125,0.11469 0.624985,0.194054 0.314232,0.137919 0.931263,0.561837 1.118709,0.903488 0.361466,0.545868 0.400745,0.993983 0.366936,1.695675 -0.09497,1.325472 -0.171038,2.651427 -0.245122,3.978351 -0.01889,0.32665 -0.01939,0.654751 -0.007,0.982369 -0.214295,-0.802349 -0.418149,-1.665188 -0.6225,-2.423983 -0.189931,-0.628619 -0.273461,-1.2945 -0.505159,-1.909086 0.113861,-0.01355 0.242139,-0.04936 0.250591,-0.178568 0.02735,-0.130176 -0.117339,-0.249705 -0.246613,-0.210991 -0.03381,0.0048 -0.0025,9.83e-4 0.01691,-0.0014 -0.08801,0.01355 -0.152145,0.01791 -0.343568,0.03 -0.328154,0.01597 -0.657302,-0.0034 -0.984463,-0.03581 -0.528527,-0.06194 -1.120696,-0.192118 -1.648727,-0.509089 -0.364948,-0.23422 -0.699566,-0.489249 -0.901928,-0.879777 m 12.507157,14.408865 c 0.587696,0.322778 0.978993,0.7496 1.325543,1.244172 0.04575,0.07501 0.09497,0.148565 0.135241,0.226478 0.0011,0.0029 0.0018,0.0058 0.0029,0.0087 0.0025,0.0073 0.0045,0.01307 0.0065,0.01791 0.0014,0.0048 0.0029,0.0097 0.0055,0.01403 0,4.91e-4 0,4.91e-4 0,9.83e-4 -0.513614,0.156792 -1.008826,0.375043 -1.473216,0.635879 -0.316718,0.199377 -0.604599,0.436017 -0.885519,0.680398 0.39826,-0.908811 0.693101,-1.858274 0.883033,-2.828544 m 7.052335,3.160495 c -0.990926,-1.437258 -2.72219,-2.099753 -4.463891,-1.881502 -0.240152,0.02662 -0.477815,0.06872 -0.712991,0.124369 -0.0022,-0.02855 -0.0089,-0.0571 -0.0179,-0.08372 -0.237663,-0.523124 -0.658795,-0.954785 -1.105782,-1.317246 -0.180486,-0.140821 -0.374394,-0.263255 -0.578745,-0.367783 -0.03232,-0.015 -0.06513,-0.03339 -0.09894,-0.04936 0.07309,-0.444243 0.125793,-0.892359 0.155624,-1.342409 0.100437,-1.320633 0.05619,-2.662557 -0.304288,-3.945444 -0.202859,-0.727339 -0.483281,-1.430967 -0.845245,-2.096848 -0.370915,-0.75202 -0.832817,-1.45952 -1.379244,-2.102656 -0.573772,-0.665881 -1.273338,-1.222879 -2.000249,-1.723259 -0.515602,-0.359556 -1.052581,-0.688625 -1.61094,-0.981884 -0.212804,-0.111787 -0.790554,-0.409401 -0.973525,-0.449083 0.03829,-0.510541 0.0537,-0.983336 -0.101927,-1.475972 -0.437042,-1.309986 -1.735738,-1.917797 -3.071227,-2.004419 -0.650341,-0.05178 -1.33002,0.01645 -1.912245,0.321326 -0.353014,0.180988 -0.691112,0.437953 -0.877067,0.788315 -0.322685,0.668784 -0.04922,1.28337 0.438036,1.756165 -0.06861,-0.0029 -0.137228,-0.0053 -0.205841,-0.0077 -1.429959,-0.04984 -2.867871,0.137434 -4.246617,0.502314 -0.607582,0.167922 -1.198261,0.384237 -1.789932,0.59668 -0.498199,0.183892 -0.99938,0.365364 -1.467746,0.61507 -0.137228,0.07549 -0.272468,0.154372 -0.399254,0.24535 -0.01244,0.0087 -0.02536,0.01742 -0.03779,0.02661 -0.299317,-0.635878 -0.674706,-1.84182 -1.087385,-2.695464 -0.434556,-0.798962 -1.488627,-0.931073 -2.32194,-0.791219 -0.546924,0.07743 -1.094345,0.195022 -1.604476,0.406014 -0.867621,0.342619 -1.467249,0.988175 -1.879927,1.792459 -0.140709,0.307777 -0.218273,0.668301 -0.130765,0.99979 0.15115,0.47957 0.560349,0.871066 1.040151,1.043343 0.68067,0.221154 1.430951,0.109852 2.113114,-0.05275 0.696086,-0.215347 1.556745,-0.55845 2.175764,-0.918007 0.176009,0.322778 0.393785,0.619425 0.613052,0.915103 -0.02685,0.02371 -0.133251,0.10114 -0.160597,0.12824 -0.91933,0.810575 -1.726291,1.736809 -2.48403,2.690141 -0.606587,0.700724 -1.091858,1.486619 -1.543816,2.288484 -0.48419,0.846879 -0.80439,1.770207 -1.063432,2.703216 -0.141206,0.558934 -0.245121,1.12803 -0.306775,1.701482 -0.126787,-0.39682 -0.275451,-0.79509 -0.425606,-1.128999 -0.238196,-0.555126 -0.46343,-1.121319 -0.79606,-1.631375 -0.565817,-0.850258 -1.281293,-1.593568 -2.004228,-2.318488 -0.301305,-0.26761 -0.40174,-0.351329 -0.754755,-0.556997 -0.219266,-0.123401 -0.459415,-0.22309 -0.715973,-0.221638 -0.816905,-0.06194 -1.09683,1.543721 -1.234556,2.133626 -0.158608,0.984789 -0.325171,1.979255 -0.300311,2.979046 0.09646,1.866984 0.539963,3.773649 1.607459,5.350762 0.881543,1.28579 2.206093,2.187343 3.392421,3.186165 0.34307,0.304873 0.659788,0.610714 0.903916,0.919459 -0.326166,-0.331006 -0.669236,-0.647009 -1.031698,-0.939783 -0.699068,-0.53861 -1.523432,-0.892358 -2.347298,-1.210298 -1.701929,-0.604423 -3.469984,-1.091735 -5.283783,-1.219976 -1.093351,-0.05904 -2.222003,-0.02662 -3.260662,0.34262 -1.052579,0.344554 -2.296583,1.092703 -2.264265,2.308808 0.0045,0.463599 0.246613,0.888971 0.535489,1.243688 0.542946,0.673139 1.37079,1.034632 2.091238,1.495813 0.754258,0.466988 1.532879,0.92962 2.415912,1.121255 1.726291,0.364397 3.521197,0.257448 5.238538,-0.132595 -0.113363,0.04162 -0.226228,0.08275 -0.33959,0.123885 -1.644253,0.625715 -3.298449,1.307082 -4.71548,2.349457 -1.511001,1.067056 -2.628715,2.544964 -3.708641,4.005451 -0.715476,0.994467 -1.801866,2.546412 -0.27197,3.371512 1.493102,0.66104 3.529648,0.37165 5.098823,0.0861 1.141081,-0.20809 2.293102,-0.4428 3.351151,-0.92188 0.604103,-0.2802 1.149535,-0.65911 1.663147,-1.073834 0.460411,-0.353265 0.843257,-0.78541 1.200746,-1.234493 0.922314,-1.061732 1.646242,-2.264771 2.324925,-3.483295 0.320696,-0.546836 0.584712,-1.269336 0.776134,-1.689384 0.124799,-0.273418 0.243133,-0.549255 0.361468,-0.825576 -0.001,0.03048 -0.002,0.06097 -0.0035,0.09098 -0.04326,0.722984 -0.111373,1.146903 -0.226724,1.808429 -0.132753,0.683786 -0.351522,1.347732 -0.511125,2.025228 -0.269981,1.081573 -0.483283,2.180083 -0.489248,3.296984 -0.002,0.629101 -0.03033,1.262071 0.07806,1.885371 0.08353,0.49312 0.256558,0.96737 0.443506,1.43145 0.160099,0.38569 0.372405,0.75057 0.622498,1.08787 0.166563,0.22018 0.347546,0.45682 0.624986,0.54586 0.4977,0.17906 0.98297,-0.15582 1.348416,-0.45634 0.654817,-0.56861 1.032194,-1.35402 1.362337,-2.12975 0.107396,-0.24148 0.198385,-0.48925 0.286389,-0.73799 0.101431,0.0919 0.243133,0.15002 0.436048,0.12534 0.204351,-0.006 0.408702,-0.0387 0.59565,-0.11808 -0.386824,0.43118 -0.779117,0.85703 -1.144065,1.30515 -0.510131,0.69685 -1.010816,1.40774 -1.41355,2.16943 -0.246613,0.49361 -0.419143,1.01867 -0.599628,1.53743 -0.510629,1.56695 -0.595153,3.25876 -0.290367,4.87313 0.131759,0.68911 0.394283,1.3487 0.68266,1.98894 0.360474,0.76896 0.721443,1.54614 1.218647,2.24251 0.0348,0.0469 0.07011,0.0934 0.104413,0.13985 0.0094,0.0198 0.03779,0.0542 0.05519,0.0736 0.03381,0.0479 0.06464,0.10211 0.123307,0.12195 0.09994,0.0445 0.219267,-0.0232 0.243133,-0.12534 0.103914,-0.42585 0.08104,-0.80428 0.15264,-1.12706 0.200871,-1.12852 0.683656,-1.95022 1.342451,-2.9171 0.600621,-0.91027 1.251959,-1.7973 1.869485,-2.52464 0.402238,-0.48344 0.84276,-0.93979 1.226602,-1.43678 0.394281,0.29084 0.835302,0.51732 1.276321,0.73412 0.176009,0.0866 1.018273,0.43359 1.035675,0.43214 0.292356,0.10017 0.590678,0.18389 0.892978,0.25261 0.06066,0.25213 0.08353,0.51054 0.131262,0.76509 0.089,0.4786 0.153636,0.75686 0.189434,1.16916 0.05121,0.60152 0.0532,0.98769 -0.128775,1.51517 -0.121815,0.37504 -0.461903,0.94511 -0.715477,1.22143 -0.295339,0.3281 -0.652331,0.59668 -0.959603,0.91365 -0.400746,0.37843 -0.785084,0.84881 -0.770168,1.4208 -0.07359,0.68234 0.61703,1.17594 1.261406,0.88704 0.559354,-0.21051 0.970044,-0.65185 1.339466,-1.09512 0.662275,-0.78541 1.214668,-1.68987 1.49012,-2.67514 0.118333,-0.50377 0.07756,-1.02979 -0.07955,-1.52146 -0.140212,-0.47909 -0.306775,-0.95188 -0.477813,-1.42129 -0.113363,-0.34698 -0.294842,-0.75154 -0.386824,-0.96059 -0.0089,-0.0223 -0.0174,-0.0445 -0.02585,-0.0668 0.240149,0.0305 0.481791,0.0523 0.723928,0.0629 3.02101,0.15582 6.113119,-0.78929 8.695595,-2.32333 0.190428,0.1747 0.455935,0.40553 0.495214,0.47667 0.31125,0.43892 0.450467,0.71427 0.537975,1.19287 0.04524,0.24245 0.089,0.62185 0.08701,1.11642 0.01044,1.15609 -0.417651,2.27929 -0.468366,3.54233 -0.02188,0.44183 0.111374,0.88559 0.403233,1.22821 0.634432,0.77186 1.539342,0.1234 1.89534,-0.5633 0.607582,-1.12077 0.640398,-2.45301 0.505656,-3.68847 -0.01293,-0.13212 -0.111871,-0.76703 -0.276943,-1.18853 -0.174518,-0.4394 -0.406216,-0.86332 -0.716967,-1.22578 -0.256558,-0.30874 -0.589187,-0.54296 -0.867123,-0.83138 -0.192916,-0.19744 -0.400249,-0.38327 -0.574768,-0.59668 -0.02039,-0.0266 -0.03928,-0.0552 -0.05718,-0.0837 0.508143,-0.36004 0.998385,-0.74815 1.422501,-1.20062 0.06662,-0.0755 0.1064,-0.11469 0.134742,-0.14469 0.13325,0.15534 0.267495,0.31068 0.408701,0.45973 0.196892,0.19647 0.395774,0.41762 0.665258,0.51683 0.636919,0.17469 0.801492,-0.60927 0.835303,-1.06512 0.008,-0.21196 0.0029,-0.42924 -0.06514,-0.63298 -0.06265,-0.17131 -0.175014,-0.3189 -0.279924,-0.46795 -0.07309,-0.10114 -0.144189,-0.20373 -0.217278,-0.30536 0.03381,-0.015 0.06414,-0.0378 0.08751,-0.0687 0.02287,-0.0218 0.04624,-0.0436 0.06961,-0.0648 0.153138,-0.12098 0.294346,-0.25552 0.419639,-0.40457 0.650344,-0.79024 1.455814,-1.74116 2.042014,-2.76514 0.326666,-0.570067 0.553389,-1.186587 0.79155,-1.794882 0.340585,-0.858 0.568802,-1.751326 0.720943,-2.657718 0.04326,0.0053 0.0895,-0.0024 0.134743,-0.02903 0.0055,-0.0034 0.01,-0.0063 0.0149,-0.0092 0.191425,-0.07646 0.369425,-0.182439 0.557863,-0.26519 0.156618,-0.0571 0.697079,-0.356654 0.977007,-0.581679 0.840272,-0.551675 1.53238,-1.298856 2.040026,-2.151049 0.401241,-0.74234 0.692606,-1.546142 0.752268,-2.387204 0.139217,-1.771651 -0.286887,-4.173372 -1.363332,-5.632892"
       id="path363"
       style="stroke-width:0.125573" /><path
       fill-rule="nonzero"
       fill="#000000"
       fill-opacity="1"
       d="m 32.460899,32.224772 c 0.06911,0.05081 0.148664,0.08614 0.2312,0.110819 0.190429,0.04162 0.380859,0.02807 0.569299,-0.0068 -0.351523,0.451018 -0.529024,1.038019 -0.512617,1.598405 5.05e-4,0.358589 0.06663,0.723953 0.276445,1.025922 0.506153,0.781056 1.669113,1.031245 2.415415,0.424887 0.448975,-0.33536 0.692107,-0.890907 0.72542,-1.432419 0.01641,-0.640211 -0.151149,-1.099456 -0.456931,-1.55725 -0.288875,-0.417627 -0.801989,-0.635393 -1.305158,-0.681367 -0.54245,-0.04888 -1.102301,0.25019 -1.477192,0.247287 -0.272468,0.0063 -0.185955,-0.03291 -0.370417,-0.07888 -0.126289,-0.02613 -0.24164,0.107914 -0.203854,0.225508 0.05817,0.122918 0.06116,0.08275 0.10839,0.123885"
       id="path365"
       style="stroke-width:0.125573" /><path
       fill-rule="nonzero"
       fill="#000000"
       fill-opacity="1"
       d="m 45.793912,34.74312 c 0.522561,-0.561353 0.757241,-1.856338 0.105904,-2.758858 -0.08353,-0.115175 -0.184959,-0.223574 -0.298819,-0.317455 0.01641,-4.96e-4 0.03282,-0.0015 0.04972,-0.0024 0.152642,-0.02226 0.446986,-0.02323 0.68266,-0.17131 0.114357,-0.07162 0.243133,-0.164534 0.280921,-0.296646 0.02884,-0.147113 -0.195401,-0.222605 -0.26849,-0.09049 -0.296333,0.412788 -1.405595,0.09291 -2.156373,0.398755 -1.363331,0.515381 -1.999752,2.180567 -0.984462,3.322631 0.52803,0.62378 1.810815,0.751537 2.588939,-0.0842"
       id="path367"
       style="stroke-width:0.125573" /><path
       fill-rule="nonzero"
       fill="#000000"
       fill-opacity="1"
       d="m 38.64313,38.321264 c 0.201368,0.179537 0.386824,0.403111 0.636421,0.516832 0.212802,0.03726 0.38583,-0.132111 0.555872,-0.230832 0.34854,-0.227928 0.828839,-0.659106 1.015788,-0.79509 0.0363,-0.02903 0.171038,-0.135014 0.193909,-0.154371 0.0363,-0.0271 0.06414,-0.06388 0.07607,-0.106948 0.03828,-0.124852 -0.06712,-0.256964 -0.199877,-0.255513 -0.07707,-0.0024 -0.137227,0.04743 -0.1954,0.09098 0.05171,-0.0392 -0.187944,0.135016 -0.230703,0.170826 -0.523555,0.409401 -0.665259,0.587486 -1.143071,0.868162 -0.01093,-0.0087 -0.02237,-0.01694 -0.03331,-0.02565 -0.285892,-0.244382 -0.552393,-0.510541 -0.827845,-0.766538 -0.09248,-0.09291 -0.18844,-0.182439 -0.279925,-0.276805 -0.03828,-0.03678 -0.06812,-0.08759 -0.122311,-0.10356 -0.187447,-0.08662 -0.361468,0.165986 -0.21181,0.305356 0.242139,0.266644 0.505159,0.513929 0.766192,0.763151"
       id="path369"
       style="stroke-width:0.125573" /><path
       fill-rule="nonzero"
       fill="#000000"
       fill-opacity="1"
       d="m 27.335725,40.575873 c 0.0025,-0.05759 -0.03132,-0.104045 -0.06513,-0.148081 -0.05569,-0.07791 -0.109385,-0.156792 -0.162585,-0.236155 -0.379864,-0.566677 -0.734867,-1.147872 -1.046116,-1.753263 -0.344066,-0.611682 -0.537975,-1.028341 -0.77365,-1.642442 -0.2844,-0.690078 -0.513612,-1.64196 -0.596146,-2.225573 -0.03033,-0.120982 5.05e-4,-0.27729 -0.08154,-0.376495 -0.09546,-0.0992 -0.283406,-0.02516 -0.278434,0.112271 0.143692,1.464842 0.593164,2.898713 1.316595,4.191762 0.411188,0.766538 0.837292,1.538884 1.379244,2.224605 0.115848,0.09872 0.312243,0.0024 0.307769,-0.146629"
       id="path371"
       style="stroke-width:0.125573" /><path
       fill-rule="nonzero"
       fill="#000000"
       fill-opacity="1"
       d="m 25.989297,42.563838 c -0.846737,-0.43408 -1.772033,-0.702659 -2.720201,-0.818318 -0.725916,-0.07985 -1.4578,-0.116142 -2.187198,-0.156791 -0.472841,-0.01839 -0.94419,0.04065 -1.417031,0.02904 -0.229211,0.0034 -0.233188,0.339232 0,0.344071 0.426104,0.02226 0.852704,-0.01742 1.278808,4.92e-4 0.550901,0.02081 1.097328,0.09872 1.647236,0.134532 0.600125,0.0421 1.053574,0.110818 1.717838,0.267611 0.402237,0.09195 1.233066,0.420046 1.282785,0.442307 0.0711,0.02903 0.141207,0.05952 0.212306,0.08759 0.01193,0.0063 0.02387,0.01064 0.0363,0.01452 5.06e-4,4.91e-4 10e-4,4.91e-4 0.002,4.91e-4 -0.001,0 -0.0015,0 -0.002,-4.91e-4 0.0353,0.01064 0.07309,0.01211 0.10839,0.0024 0.163083,-0.03823 0.192419,-0.274386 0.04077,-0.347459"
       id="path373"
       style="stroke-width:0.125573" /><path
       fill-rule="nonzero"
       fill="#000000"
       fill-opacity="1"
       d="m 27.072704,44.24064 c -0.646364,0.321811 -1.327534,0.573936 -1.963457,0.916071 -1.001865,0.522639 -1.949038,1.156098 -2.777877,1.914409 -0.461405,0.400205 -0.86414,0.85558 -1.26936,1.308535 -0.367931,0.404561 -0.747298,0.798476 -1.11125,1.206909 -0.09298,0.115174 -0.210815,0.216798 -0.288379,0.341168 -0.05519,0.10598 0.04127,0.243414 0.162089,0.239059 0.06911,0 0.123804,-0.0421 0.166066,-0.09243 0.06513,-0.06678 0.130764,-0.134048 0.196396,-0.201313 0.228216,-0.237124 0.453946,-0.476183 0.681666,-0.713306 0.459913,-0.470859 0.882536,-0.975109 1.35289,-1.435323 0.687136,-0.64604 1.230082,-1.077702 1.982351,-1.564531 0.838286,-0.55361 1.738224,-1.006081 2.654073,-1.424193 0.132256,-0.06339 0.263021,-0.131143 0.393289,-0.198409 0.03978,-0.02226 0.06911,-0.05952 0.08104,-0.102591 0.04475,-0.141791 -0.128775,-0.273903 -0.25954,-0.194055"
       id="path375"
       style="stroke-width:0.125573" /><path
       fill-rule="nonzero"
       fill="#000000"
       fill-opacity="1"
       d="m 29.607945,44.545513 c -0.06812,-0.104044 -0.105904,-0.271967 -0.233188,-0.316003 -0.134742,-0.03968 -0.258546,0.115658 -0.183469,0.232285 0.337105,0.570063 0.49074,1.196263 0.636421,1.919247 0.223245,1.135773 0.329149,2.2067 0.221256,3.437323 -0.03729,0.358104 -0.04475,0.462149 -0.112368,0.798961 -0.01541,0.116625 -0.06861,0.232284 -0.06265,0.349394 0.006,0.09436 0.09944,0.165986 0.194407,0.16647 0.201865,-0.0014 0.205345,-0.22309 0.235675,-0.368268 0.06165,-0.307293 0.09596,-0.61894 0.125295,-0.930589 0.103915,-1.189488 -0.0179,-2.387203 -0.259541,-3.554915 -0.1243,-0.595229 -0.265009,-1.194328 -0.56184,-1.733905"
       id="path377"
       style="stroke-width:0.125573" /><path
       fill-rule="nonzero"
       fill="#000000"
       fill-opacity="1"
       d="m 38.782843,51.339826 c 0.07607,-0.03387 0.173524,-0.04162 0.218274,-0.118078 0.07657,-0.118562 -0.04922,-0.282612 -0.188938,-0.239543 -0.342574,0.116142 -0.667248,0.274386 -0.991922,0.429242 -0.334121,0.159212 -0.672715,0.312616 -0.98496,0.510542 -0.99739,0.643136 -1.907272,1.442093 -2.512369,2.457853 -0.356495,0.55797 -0.589187,1.1803 -0.838782,1.78859 -0.418149,1.0777 -0.7115,2.19751 -1.119206,3.27956 -0.264016,0.71476 -0.569796,1.415 -0.807459,2.13895 -0.05171,0.15486 -0.09894,0.31068 -0.138223,0.46893 -0.0089,0.0484 -0.03331,0.0968 -0.02188,0.14614 0.004,0.0682 0.06215,0.12728 0.12828,0.14518 0.06265,0.015 0.128278,-10e-4 0.174518,-0.045 0.04375,-0.0402 0.05121,-0.0992 0.06961,-0.15244 0.04475,-0.14034 0.09049,-0.28019 0.137725,-0.41956 0.23816,-0.69105 0.527036,-1.36322 0.790057,-2.04507 0.638906,-1.66519 1.083407,-3.4862 1.879926,-4.92298 0.483779,-0.80573 0.931263,-1.36563 1.696956,-1.971991 0.317216,-0.252609 0.526041,-0.417629 0.929273,-0.663462 0.342076,-0.204217 0.705035,-0.372622 1.061033,-0.552159 0.185955,-0.09001 0.443009,-0.208088 0.518086,-0.234704"
       id="path379"
       style="stroke-width:0.125573" /><path
       fill-rule="nonzero"
       fill="#ffffff"
       fill-opacity="1"
       d="m 34.559099,32.992762 c 0,0.2318 -0.192915,0.419563 -0.431075,0.419563 -0.23816,0 -0.431574,-0.187763 -0.431574,-0.419563 0,-0.2318 0.193414,-0.420047 0.431574,-0.420047 0.23816,0 0.431075,0.188247 0.431075,0.420047"
       id="path381"
       style="stroke-width:0.125573" /><path
       fill-rule="nonzero"
       fill="#ffffff"
       fill-opacity="1"
       d="m 44.370418,32.852907 c 0,0.231801 -0.192916,0.419563 -0.431076,0.419563 -0.23816,0 -0.431572,-0.187762 -0.431572,-0.419563 0,-0.2318 0.193412,-0.420047 0.431572,-0.420047 0.23816,0 0.431076,0.188247 0.431076,0.420047"
       id="path383"
       style="stroke-width:0.125573" /><path
       fill-rule="nonzero"
       fill="#000000"
       fill-opacity="1"
       d="m 17.773505,32.929852 c -0.139217,0.449566 -0.309758,0.892357 -0.419143,1.349668 -0.0184,-0.01016 -0.0358,-0.02129 -0.0527,-0.03291 -0.795029,-0.45005 -1.540834,-0.981884 -2.120574,-1.445968 -0.934743,-0.73218 -1.770542,-1.52872 -1.667123,-2.490764 0.0343,-0.180988 0.02685,-0.179052 0.09298,-0.274869 0.003,-0.0029 0.006,-0.0058 0.0094,-0.0097 0.02337,-0.02129 0.03232,-0.02904 0.03133,-0.02855 0.03978,-0.02468 0.09447,-0.0513 0.119328,-0.06388 0.0045,-0.0015 0.0085,-0.0029 0.01293,-0.0044 0.418148,-0.102109 0.99391,0.09194 1.40112,0.518283 0.371908,0.37601 0.547421,0.607326 0.815414,1.077702 0.06315,0.09098 0.100932,0.179052 0.2133,0.260836 0.003,9.9e-4 0.299317,0.222122 0.310752,-0.210508 0.07756,-2.860483 1.140088,-3.151806 1.470729,-2.394946 0.330142,0.75444 0.218272,1.549045 0.124797,2.243478 -0.08254,0.508605 -0.194406,1.012372 -0.342573,1.50646 m 0.132753,-4.47147 c -1.405594,-0.652333 -1.954507,2.205247 -1.838659,2.451565 -0.155127,-0.23664 -0.32716,-0.461665 -0.525544,-0.666849 -0.206339,-0.24293 -0.451461,-0.459245 -0.746302,-0.594744 -0.688627,-0.369235 -1.691984,-0.305841 -1.758609,0.624263 -0.127782,1.204007 0.891485,2.160728 1.775514,2.856128 0.560348,0.447147 1.141082,0.871549 1.750653,1.252883 0.189932,0.115658 0.380858,0.229381 0.571287,0.343588 0.08403,0.04259 0.160597,0.113721 0.257055,0.122916 0.283406,0.0077 0.362461,-0.386172 0.38583,-0.463117 0.05718,-0.240994 0.130267,-0.478117 0.2133,-0.711854 0.384836,-1.048667 0.641393,-2.149596 0.677191,-3.265045 0.0015,-0.667817 -0.123306,-1.573241 -0.761716,-1.949734"
       id="path385"
       style="stroke-width:0.125573" /><path
       fill-rule="nonzero"
       fill="#000000"
       fill-opacity="1"
       d="m 13.619369,30.017589 c -5.05e-4,4.95e-4 -0.001,0.0015 -0.0015,0.0019 5.05e-4,-4.95e-4 10e-4,-0.0015 0.0015,-0.0019"
       id="path387"
       style="stroke-width:0.125573" /><path
       fill-rule="nonzero"
       fill="#000000"
       fill-opacity="1"
       d="m 60.666268,31.557439 c -0.442514,0.187279 -0.899939,0.346491 -1.329027,0.561353 -0.004,-0.02032 -0.0065,-0.04065 -0.0079,-0.06049 -0.161092,-0.881713 -0.226228,-1.77891 -0.237164,-2.509637 -0.03034,-1.167227 0.0532,-2.303001 0.874581,-2.847901 0.164574,-0.09195 0.157611,-0.09582 0.275948,-0.108884 0.004,4.96e-4 0.0079,4.96e-4 0.01342,9.91e-4 0.03182,0.0034 0.04375,0.0053 0.04275,0.0048 0.04525,0.01355 0.100936,0.03678 0.126791,0.04742 0.004,0.0019 0.0084,0.0039 0.01194,0.0063 0.350529,0.244866 0.570292,0.79751 0.49969,1.375801 -0.05469,0.519252 -0.122313,0.798961 -0.317715,1.302243 -0.03081,0.105495 -0.07508,0.190666 -0.06712,0.327133 0.0014,0.0024 0.01988,0.365364 0.366437,0.09485 2.292608,-1.791492 3.207463,-1.19094 2.828094,-0.456342 -0.378369,0.732664 -1.073461,1.163841 -1.678063,1.543238 -0.451955,0.267127 -0.919328,0.510057 -1.402609,0.719113 m 3.591302,-2.791765 c -0.397268,-1.465327 -2.992174,-0.02613 -3.110507,0.219218 0.08502,-0.268094 0.150654,-0.541029 0.182972,-0.821705 0.05718,-0.309712 0.06812,-0.632007 -0.01591,-0.938331 -0.155623,-0.749601 -0.854196,-1.454196 -1.626352,-0.902522 -1.026228,0.683787 -1.117714,2.058619 -1.091364,3.164873 0.01144,0.705079 0.0542,1.410641 0.149164,2.109914 0.03233,0.21583 0.06663,0.431177 0.09994,0.646525 0.0214,0.08952 0.0149,0.192601 0.07011,0.270029 0.177004,0.215347 0.536979,0.01936 0.612554,-0.01307 0.22573,-0.113238 0.458919,-0.211958 0.695586,-0.301485 1.070978,-0.391979 2.10019,-0.913166 2.997643,-1.6076 0.52455,-0.430209 1.153509,-1.108672 1.036172,-1.82585"
       id="path389"
       style="stroke-width:0.125573" /></g><plotdata
     application="axidraw"
     model="4"
     plob_version="n/a"
     layer="-2"
     pause_dist="-25400"
     pause_ref="-25400"
     last_x="1.5076906736966044e-13"
     last_y="3.337694703953176e-14"
     rand_seed="1"
     row="0" /></svg>
