<?xml version="1.0" encoding="UTF-8" standalone="no"?>
<!-- Created with Inkscape (http://www.inkscape.org/) -->

<svg
   xml:space="preserve"
   sodipodi:docname="postcard_hall_part2.svg"
   width="95mm"
   height="95mm"
   viewBox="0 0 95 95"
   id="svg15158"
   version="1.1"
   inkscape:version="1.2.2 (732a01da63, 2022-12-09)"
   xmlns:inkscape="http://www.inkscape.org/namespaces/inkscape"
   xmlns:sodipodi="http://sodipodi.sourceforge.net/DTD/sodipodi-0.dtd"
   xmlns="http://www.w3.org/2000/svg"
   xmlns:svg="http://www.w3.org/2000/svg"
   xmlns:rdf="http://www.w3.org/1999/02/22-rdf-syntax-ns#"
   xmlns:cc="http://creativecommons.org/ns#"
   xmlns:dc="http://purl.org/dc/elements/1.1/"><sodipodi:namedview
     inkscape:window-maximized="1"
     inkscape:window-y="147"
     inkscape:window-x="2391"
     inkscape:window-height="1001"
     inkscape:window-width="1920"
     showgrid="false"
     id="namedview15162"
     inkscape:current-layer="layer1"
     inkscape:cy="154.90529"
     inkscape:cx="146.64636"
     inkscape:zoom="2.4821618"
     inkscape:pageshadow="2"
     inkscape:pageopacity="0.0"
     borderopacity="1.0"
     bordercolor="#666666"
     pagecolor="#ffffff"
     inkscape:document-units="mm"
     inkscape:showpageshadow="2"
     inkscape:pagecheckerboard="0"
     inkscape:deskcolor="#d1d1d1" /><defs
     id="defs15160"><rect
       x="232.05578"
       y="293.29273"
       width="122.47389"
       height="37.064465"
       id="rect367" /><rect
       x="257.03401"
       y="305.37896"
       width="88.632417"
       height="22.560979"
       id="rect361" /></defs><metadata
     id="metadata15164"><rdf:RDF><cc:Work
         rdf:about=""><dc:format>image/svg+xml</dc:format><dc:type
           rdf:resource="http://purl.org/dc/dcmitype/StillImage" /></cc:Work></rdf:RDF></metadata><g
     id="layer1"
     inkscape:groupmode="layer"
     inkscape:label="1-outline"
     style="display:inline"><path
       id="path4161"
       style="fill:none;stroke:#000000;stroke-width:0.381;stroke-miterlimit:4;stroke-dasharray:none"
       d=""
       inkscape:connector-curvature="0" /><path
       id="path4169"
       style="fill:none;stroke:#000000;stroke-width:0.381;stroke-miterlimit:4;stroke-dasharray:none"
       d=""
       inkscape:connector-curvature="0" /><path
       id="path4177"
       style="fill:none;stroke:#000000;stroke-width:0.381;stroke-miterlimit:4;stroke-dasharray:none"
       d=""
       inkscape:connector-curvature="0" /><path
       id="path4187"
       style="fill:none;stroke:#000000;stroke-width:0.381;stroke-miterlimit:4;stroke-dasharray:none"
       d=""
       inkscape:connector-curvature="0" /><path
       id="path4199"
       style="fill:none;stroke:#000000;stroke-width:0.381;stroke-miterlimit:4;stroke-dasharray:none"
       d=""
       inkscape:connector-curvature="0" /><path
       id="path4215"
       style="fill:none;stroke:#000000;stroke-width:0.381;stroke-miterlimit:4;stroke-dasharray:none"
       d=""
       inkscape:connector-curvature="0" /><path
       id="path4221"
       style="fill:none;stroke:#000000;stroke-width:0.381;stroke-miterlimit:4;stroke-dasharray:none"
       d=""
       inkscape:connector-curvature="0" /><path
       style="fill:#000000;stroke-width:0.055819"
       id="path222"
       d="" /><path
       style="fill:#000000;stroke-width:0.0691992"
       id="path5986"
       d="" /><g
       transform="matrix(0.02190477,0,0,-0.01873768,3.5582789,39.343342)"
       fill="#000000"
       stroke="none"
       id="g22"><path
         d="m 777,1880 c -71,-22 -137,-108 -137,-176 1,-43 32,-106 69,-137 79,-66 218,0 209,100 -3,39 -30,65 -48,47 -15,-15 -1,-44 22,-44 15,0 18,-5 13,-22 -10,-35 -61,-78 -94,-78 -61,0 -141,83 -141,148 0,79 89,151 170,137 79,-13 161,-100 175,-186 15,-91 -49,-186 -162,-240 -82,-39 -244,-71 -345,-67 l -77,3 34,79 c 19,43 32,82 30,86 -10,16 -48,-4 -66,-34 -10,-17 -26,-55 -34,-84 l -16,-53 -57,6 c -94,11 -142,24 -188,51 -43,25 -74,27 -74,4 0,-25 187,-80 272,-80 h 33 v -177 c 0,-185 9,-241 44,-284 13,-16 23,-20 37,-14 17,7 17,9 2,12 -30,7 -40,67 -39,226 1,84 5,170 9,192 7,38 9,40 39,37 43,-5 211,16 281,34 132,34 243,107 284,187 26,51 34,134 18,181 -34,103 -167,177 -263,146 z"
         id="path4" /><path
         d="m 1445,1880 c -3,-5 -3,-25 0,-44 15,-80 -23,-220 -93,-336 l -27,-45 -5,40 c -4,35 -9,40 -33,43 -80,9 -137,-150 -137,-382 0,-110 0,-112 -31,-149 -37,-45 -75,-50 -89,-11 -11,28 -12,156 -1,194 10,35 55,36 59,1 2,-13 -1,-28 -7,-34 -19,-19 -13,-39 12,-35 28,4 36,58 12,94 -12,19 -24,24 -58,24 -65,0 -107,-54 -107,-138 0,-85 37,-147 95,-158 36,-6 92,17 102,42 9,25 20,15 26,-24 9,-50 31,-81 48,-65 10,10 10,21 1,51 -17,57 -15,71 7,36 68,-112 165,-107 464,20 l 38,17 19,-43 c 24,-53 26,-140 4,-205 -23,-69 -32,-77 -61,-58 -17,12 -28,13 -43,5 -28,-15 -25,-18 11,-16 18,0 34,-5 36,-11 3,-8 -4,-13 -15,-13 -22,0 -49,-27 -38,-38 4,-4 12,1 17,11 6,9 17,17 24,17 17,0 20,-16 5,-25 -13,-8 -13,-45 1,-45 6,0 8,9 4,20 -3,11 -3,20 2,21 51,5 66,3 72,-11 5,-8 6,-21 4,-27 -3,-7 0,-13 6,-13 15,0 14,33 -1,48 -10,10 -20,48 -20,82 0,8 7,33 16,55 22,57 20,150 -5,204 -11,25 -16,48 -12,52 14,12 187,78 253,96 40,10 103,17 165,18 84,0 106,-3 141,-22 54,-29 66,-45 71,-96 7,-73 -36,-122 -122,-138 -89,-17 -191,33 -165,81 6,12 4,24 -6,38 -19,27 -36,28 -57,4 -71,-78 96,-177 241,-143 97,24 155,102 132,180 -21,73 -69,112 -160,132 -100,21 -287,-21 -459,-105 -30,-14 -57,-24 -59,-21 -7,7 -16,130 -15,202 1,37 9,80 21,105 18,42 18,44 1,83 -35,78 -52,182 -46,282 l 5,93 h -48 c -54,0 -118,20 -160,50 -17,12 -31,16 -35,10 z m 165,-78 c 28,-2 50,-7 50,-9 0,-8 -68,-99 -84,-112 -11,-10 -21,-9 -43,2 -50,26 -65,51 -67,114 l -3,58 49,-24 c 27,-13 71,-26 98,-29 z m 56,-140 c 0,-76 6,-112 25,-170 21,-60 23,-71 10,-68 -9,3 -29,8 -45,12 -39,9 -76,88 -76,162 0,47 5,59 41,107 23,30 42,55 43,55 0,0 1,-44 2,-98 z m -130,-2 c 21,0 17,-14 -11,-40 l -25,-23 -25,23 c -24,23 -31,52 -19,83 4,11 12,8 36,-14 16,-16 36,-29 44,-29 z m -72,-54 c 25,-23 25,-24 7,-40 -18,-16 -20,-16 -34,4 -8,12 -13,30 -10,41 7,24 7,24 37,-5 z m 125,-121 c 11,-20 21,-37 21,-38 0,-2 -18,-1 -39,1 -40,4 -40,5 -51,58 -11,50 -10,57 12,92 l 23,37 6,-57 c 3,-31 16,-73 28,-93 z m -170,35 c -51,-44 -59,-42 -32,6 23,41 27,44 41,30 14,-14 13,-17 -9,-36 z m 81,8 c 0,-18 3,-43 6,-56 6,-19 3,-22 -17,-19 -19,3 -25,11 -27,35 -3,33 12,72 28,72 6,0 10,-15 10,-32 z m -63,-75 c -3,-2 -22,-3 -42,-1 l -38,3 39,28 39,27 3,-26 c 2,-14 1,-28 -1,-31 z m -142,10 c -3,-21 -22,-85 -42,-143 -55,-163 -70,-183 -47,-62 31,163 58,242 82,242 11,0 13,-8 7,-37 z m 138,-44 c -4,-14 -11,-18 -22,-13 -9,3 -24,9 -33,11 -32,9 -19,23 21,23 35,0 38,-2 34,-21 z m 76,14 c 0,-5 -6,-23 -13,-41 -12,-33 -12,-33 -33,-15 -29,24 -15,63 22,63 14,0 25,-3 24,-7 z m 97,-32 c -8,-15 -17,-43 -21,-64 -4,-20 -10,-37 -14,-37 -3,0 -18,12 -33,25 -30,26 -34,50 -18,87 10,20 17,23 55,20 l 44,-4 z m -206,-12 c 168,-92 292,-208 295,-277 1,-21 5,-44 9,-53 6,-13 -11,-23 -86,-51 -184,-71 -252,-82 -308,-53 -25,13 -69,73 -58,78 75,37 108,82 90,123 -21,44 -83,25 -123,-40 l -20,-31 4,35 c 3,19 24,74 46,123 23,48 47,110 54,137 6,28 14,50 17,50 3,0 39,-19 80,-41 z m 313,12 c 4,-4 0,-25 -9,-47 -9,-21 -17,-67 -18,-101 l -1,-62 -43,42 c -42,40 -43,44 -39,87 3,25 11,58 18,73 11,24 16,27 48,21 20,-4 39,-10 44,-13 z m -407,-288 c -6,-18 -73,-69 -81,-61 -9,8 36,69 58,77 27,10 31,8 23,-16 z"
         id="path6" /><path
         d="m 768,1306 c -14,-32 -4,-56 22,-56 23,0 46,40 37,64 -10,25 -46,19 -59,-8 z"
         id="path8" /><path
         d="m 461,1254 c -25,-32 -27,-71 -5,-103 14,-20 23,-23 60,-18 40,4 44,2 44,-17 0,-11 -9,-50 -20,-84 -33,-104 -24,-162 23,-162 25,0 123,94 155,150 25,41 27,43 30,20 14,-112 66,-136 126,-58 40,54 72,158 47,158 -5,0 -12,-15 -15,-32 -9,-47 -58,-133 -76,-133 -13,0 -14,17 -11,106 2,59 -1,109 -6,112 -22,14 -58,-19 -68,-63 -14,-61 -39,-104 -92,-162 -45,-47 -83,-63 -83,-33 0,9 12,48 26,88 43,121 45,130 31,144 -11,11 -22,11 -60,-1 -46,-14 -57,-10 -36,11 15,15 14,69 -1,88 -19,23 -46,18 -69,-11 z m 53,-20 c 8,-20 -21,-87 -34,-79 -13,8 -13,38 2,70 13,29 23,32 32,9 z"
         id="path10" /><path
         d="M 200,848 C 200,798 184,750 145,686 112,630 111,627 117,551 124,460 109,359 75,277 59,237 55,218 63,215 c 64,-17 114,-44 156,-81 27,-24 51,-44 54,-44 2,0 10,27 16,60 7,33 29,92 49,132 l 37,71 7,-44 c 10,-56 34,-89 83,-113 145,-72 403,30 616,243 l 85,86 -4,-107 c -7,-171 15,-250 65,-234 22,7 69,88 103,179 12,33 27,57 36,57 19,0 18,-26 -5,-91 -31,-92 -35,-132 -13,-159 18,-23 19,-23 56,-5 21,10 61,46 89,79 50,61 105,162 93,173 -3,4 -7,4 -8,2 -2,-2 -16,-30 -32,-63 -35,-70 -118,-159 -144,-154 -23,5 -19,29 25,141 30,79 33,92 20,105 -13,13 -21,13 -61,-1 -25,-9 -46,-14 -46,-11 0,3 7,18 15,34 26,51 -6,111 -50,94 -19,-8 -45,-55 -45,-84 0,-32 18,-60 39,-60 30,0 30,-9 0,-83 -37,-90 -53,-111 -75,-103 -15,6 -16,23 -11,164 2,86 10,180 16,208 l 12,51 52,7 c 83,10 130,7 161,-9 39,-20 56,-19 56,5 0,27 -31,33 -154,28 l -104,-3 31,62 c 17,34 28,65 24,69 -3,3 -17,4 -31,0 -17,-4 -32,-22 -50,-60 -14,-30 -26,-62 -26,-72 0,-14 -8,-16 -52,-12 -29,3 -61,9 -70,13 -14,5 -18,2 -18,-13 0,-19 7,-21 65,-24 l 65,-3 -36,-54 C 1074,473 915,340 763,263 682,223 660,216 593,212 473,205 417,237 404,321 c -7,42 25,94 76,123 48,29 158,30 189,2 14,-12 19,-26 15,-41 -7,-27 16,-48 48,-43 20,3 23,9 23,43 0,33 -5,43 -33,61 -38,26 -122,39 -167,26 -26,-7 -35,-4 -67,26 -21,19 -46,41 -57,48 -39,28 -145,171 -179,242 -19,39 -38,72 -43,72 -5,0 -9,-15 -9,-32 z m 69,-112 c 18,-22 -33,-146 -60,-146 -8,0 -67,27 -77,35 -1,1 13,26 32,54 20,29 38,69 42,89 10,56 15,58 35,17 10,-20 23,-43 28,-49 z m 72,-138 c -16,-41 -35,-51 -76,-38 -19,6 -35,14 -35,16 0,3 11,20 24,37 14,18 28,45 31,60 l 7,28 29,-40 c 24,-31 27,-44 20,-63 z M 212,547 C 226,520 225,407 210,373 196,341 82,246 95,276 c 30,75 38,118 39,220 l 1,110 33,-19 c 18,-11 37,-29 44,-40 z m 182,5 c -6,-9 -24,-18 -39,-20 -29,-4 -29,-3 -3,50 13,27 13,27 33,8 15,-16 17,-24 9,-38 z m -94,-62 c 0,-50 -16,-93 -41,-108 -12,-8 -22,-12 -24,-10 -2,2 0,22 5,46 4,23 4,61 -1,85 -4,23 -8,45 -9,49 0,4 16,0 35,-9 31,-15 35,-21 35,-53 z m 155,34 30,-26 -35,7 c -45,9 -50,13 -43,30 7,20 13,19 48,-11 z m 880,-4 c 8,-13 -14,-80 -26,-80 -17,0 -22,30 -9,60 13,31 24,37 35,20 z M 369,504 c 7,-7 -20,-67 -36,-80 -27,-20 -34,-17 -23,12 6,14 10,39 10,55 0,27 3,30 23,23 12,-3 24,-8 26,-10 z m 75,-13 c 28,-6 27,-7 -24,-28 -42,-18 -51,-19 -46,-7 3,9 6,22 6,30 0,15 15,16 64,5 z m -21,-69 c -24,-24 -41,-34 -45,-28 -14,21 -8,31 30,48 54,24 56,22 15,-20 z m -60,-34 c 3,-12 1,-30 -4,-41 -10,-18 -12,-17 -31,13 -16,26 -17,35 -6,41 22,14 35,10 41,-13 z m -42,-51 c 8,-13 7,-27 -1,-48 -14,-34 -26,-37 -35,-9 -3,11 -18,29 -32,40 -14,11 -24,22 -22,23 50,40 67,39 90,-6 z m -70,-44 c 35,-39 40,-60 27,-110 -7,-26 -13,-50 -15,-52 -1,-2 -16,9 -34,23 -37,32 -102,66 -124,66 -28,0 -16,18 43,63 59,47 71,48 103,10 z"
         id="path12" /><path
         d="m 822,778 c 6,-54 -9,-77 -18,-29 -9,43 -36,66 -63,51 -16,-8 -21,-20 -21,-53 0,-23 -2,-68 -6,-100 -6,-62 4,-87 37,-87 26,0 47,36 55,98 9,68 24,67 24,-2 0,-53 15,-81 30,-57 5,9 13,9 34,0 18,-9 30,-9 37,-2 7,7 2,13 -18,18 -50,12 -60,29 -62,106 -1,42 3,76 10,85 29,36 40,-31 14,-93 -20,-46 -19,-50 5,-28 26,23 40,77 31,112 -7,25 -12,28 -50,29 l -43,1 z m -33,-81 c 1,-91 -25,-158 -43,-111 -16,42 -2,124 22,124 13,0 13,2 -1,18 -18,20 -22,44 -10,56 16,15 31,-28 32,-87 z"
         id="path14" /><path
         d="m 2299,771 c -15,-16 -34,-50 -41,-76 l -13,-47 -67,4 c -72,6 -84,2 -67,-19 7,-8 33,-13 69,-13 h 57 l -13,-52 c -8,-29 -14,-84 -14,-122 0,-59 -5,-80 -36,-143 -26,-54 -40,-73 -52,-71 -11,2 -18,15 -20,35 -3,27 17,168 34,238 5,25 -5,40 -34,49 -17,6 -24,3 -30,-14 -8,-22 -8,-22 -25,4 -14,21 -25,26 -57,26 -31,0 -46,-7 -73,-34 -35,-35 -67,-109 -67,-156 0,-33 -55,-108 -85,-116 -47,-12 -95,44 -95,111 0,22 3,24 19,15 23,-12 68,2 87,28 20,26 17,79 -6,102 -33,33 -85,27 -126,-14 -35,-35 -38,-49 -36,-134 2,-58 24,-96 68,-117 55,-26 111,-15 149,28 l 30,35 18,-24 c 25,-33 75,-32 111,1 15,14 38,49 52,78 l 24,52 -5,-75 c -3,-47 0,-88 8,-110 11,-31 16,-35 47,-35 31,0 38,5 66,51 l 30,52 11,-65 c 12,-66 33,-110 59,-120 24,-9 27,4 6,25 -37,37 -41,215 -10,405 13,82 21,87 141,87 60,0 89,-4 106,-16 16,-11 26,-13 33,-6 36,36 -51,59 -179,47 l -74,-7 30,61 c 36,71 35,67 15,75 -10,4 -27,-5 -45,-23 z M 2034,524 c 13,-33 5,-87 -20,-136 -29,-57 -69,-102 -84,-93 -25,16 -1,147 40,213 21,34 54,43 64,16 z m -280,-68 c -13,-43 -84,-67 -84,-28 0,18 26,62 44,74 17,12 47,-23 40,-46 z"
         id="path16" /><path
         d="m 1645,760 c 3,-5 12,-7 20,-4 7,3 18,-4 25,-16 6,-12 14,-19 17,-17 12,13 -19,47 -43,47 -14,0 -23,-4 -19,-10 z"
         id="path18" /><path
         d="m 1770,735 c -26,-28 -17,-34 12,-8 11,9 18,11 18,5 0,-7 4,-12 9,-12 5,0 7,9 4,20 -7,26 -15,25 -43,-5 z"
         id="path20" /></g></g><g
     inkscape:groupmode="layer"
     id="layer8"
     inkscape:label="2-fill" /><plotdata
     application="axidraw"
     model="4"
     plob_version="n/a"
     layer="-1"
     pause_dist="292612"
     pause_ref="292612"
     last_x="54.868749999999984"
     last_y="27.78125000000001"
     rand_seed="1"
     row="0" /></svg>
