<?xml version="1.0" encoding="UTF-8" standalone="no"?>
<!-- Created with Inkscape (http://www.inkscape.org/) -->

<svg
   inkscape:version="1.2.2 (732a01da63, 2022-12-09)"
   version="1.1"
   id="svg15158"
   viewBox="0 0 95 95"
   height="95mm"
   width="95mm"
   sodipodi:docname="postcard1_NYC_part1.svg"
   xml:space="preserve"
   xmlns:inkscape="http://www.inkscape.org/namespaces/inkscape"
   xmlns:sodipodi="http://sodipodi.sourceforge.net/DTD/sodipodi-0.dtd"
   xmlns="http://www.w3.org/2000/svg"
   xmlns:svg="http://www.w3.org/2000/svg"
   xmlns:rdf="http://www.w3.org/1999/02/22-rdf-syntax-ns#"
   xmlns:cc="http://creativecommons.org/ns#"
   xmlns:dc="http://purl.org/dc/elements/1.1/"><sodipodi:namedview
     inkscape:window-maximized="1"
     inkscape:window-y="147"
     inkscape:window-x="2391"
     inkscape:window-height="1001"
     inkscape:window-width="1920"
     showgrid="true"
     id="namedview15162"
     inkscape:current-layer="layer1"
     inkscape:cy="125.49545"
     inkscape:cx="108.77615"
     inkscape:zoom="2.4821618"
     inkscape:pageshadow="2"
     inkscape:pageopacity="0.0"
     borderopacity="1.0"
     bordercolor="#666666"
     pagecolor="#ffffff"
     inkscape:document-units="mm"
     inkscape:showpageshadow="2"
     inkscape:pagecheckerboard="0"
     inkscape:deskcolor="#d1d1d1"><inkscape:grid
       type="xygrid"
       id="grid1636"
       originx="47.5"
       originy="47.5"
       color="#f4fbff"
       opacity="0.14901961"
       units="cm"
       spacingx="5"
       spacingy="5" /></sodipodi:namedview><defs
     id="defs15160"><rect
       x="232.05578"
       y="293.29273"
       width="122.47389"
       height="37.064465"
       id="rect367" /><rect
       x="257.03401"
       y="305.37896"
       width="88.632417"
       height="22.560979"
       id="rect361" /></defs><metadata
     id="metadata15164"><rdf:RDF><cc:Work
         rdf:about=""><dc:format>image/svg+xml</dc:format><dc:type
           rdf:resource="http://purl.org/dc/dcmitype/StillImage" /></cc:Work></rdf:RDF></metadata><g
     id="layer1"
     inkscape:groupmode="layer"
     inkscape:label="1-outline"
     style="display:inline"><path
       id="path4161"
       style="fill:none;stroke:#000000;stroke-width:0.381;stroke-miterlimit:4;stroke-dasharray:none"
       d=""
       inkscape:connector-curvature="0" /><path
       id="path4169"
       style="fill:none;stroke:#000000;stroke-width:0.381;stroke-miterlimit:4;stroke-dasharray:none"
       d=""
       inkscape:connector-curvature="0" /><path
       id="path4177"
       style="fill:none;stroke:#000000;stroke-width:0.381;stroke-miterlimit:4;stroke-dasharray:none"
       d=""
       inkscape:connector-curvature="0" /><path
       id="path4187"
       style="fill:none;stroke:#000000;stroke-width:0.381;stroke-miterlimit:4;stroke-dasharray:none"
       d=""
       inkscape:connector-curvature="0" /><path
       id="path4199"
       style="fill:none;stroke:#000000;stroke-width:0.381;stroke-miterlimit:4;stroke-dasharray:none"
       d=""
       inkscape:connector-curvature="0" /><path
       id="path4215"
       style="fill:none;stroke:#000000;stroke-width:0.381;stroke-miterlimit:4;stroke-dasharray:none"
       d=""
       inkscape:connector-curvature="0" /><path
       id="path4221"
       style="fill:none;stroke:#000000;stroke-width:0.381;stroke-miterlimit:4;stroke-dasharray:none"
       d=""
       inkscape:connector-curvature="0" /><path
       style="fill:#000000;stroke-width:0.055819"
       id="path222"
       d="" /><path
       style="mix-blend-mode:color-dodge;fill:#141414;fill-opacity:1;stroke:none;stroke-width:0.0614191"
       d="m 42.299096,10.877862 h -0.05734 c -0.24831,1.000127 1.508502,0.622349 1.949785,0.460463 l 0.114686,3.552148 -0.114686,1.644513 -0.286736,-2.236537 h -0.05734 l 0.286734,2.368098 c 0.367536,-0.23247 0.229385,-0.960002 0.229385,-1.381393 0,-0.942832 0.004,-1.885728 -5.6e-5,-2.82856 -0.0015,-0.33673 -0.137804,-0.78667 -0.02272,-1.106823 0.120832,-0.336007 0.539231,-0.56045 0.758524,-0.811992 0.3735,-0.428366 0.539575,-0.9633587 0.852686,-1.4222442 0.186262,-0.2729026 0.405269,-0.4042453 0.53338,-0.7373339 0.27796,0.094292 0.623875,0.016498 0.841963,0.2814504 0.274803,0.3337831 0.02788,0.8347141 -0.123461,1.1657214 -0.333357,0.7287813 -0.831929,1.6314873 -0.710009,2.4984753 0.140384,0.997825 1.238974,0.05532 1.425178,-0.393497 -0.16728,0.154714 -0.294763,0.353042 -0.459633,0.511244 -0.414037,0.39738 -0.976721,0.134995 -0.899417,-0.511244 0.119459,-0.998614 1.163562,-2.1685216 0.939394,-3.1562497 C 47.401807,8.3440419 46.795197,8.3260255 46.48541,8.1808624 l -0.516119,0.7235834 c 0.03159,-0.1524054 0.06235,-0.3021357 0.05029,-0.4605182 -0.106902,-1.4026085 -1.675151,0.3432185 -0.623472,0.5138676 0.150134,0.024366 0.307205,0.012318 0.458486,0.012318 -0.236612,0.9403976 -0.910836,1.5812978 -1.548359,2.1707548 -0.171809,-0.827647 -0.05522,-1.7919893 -0.0052,-2.6312188 0.03889,-0.6515502 0.003,-1.2731026 0.178805,-1.9076334 0.129317,-0.4667781 0.419434,-1.2248857 0.915824,-1.2772405 0.900342,-0.094956 0.06739,1.5579459 -0.229327,1.8034841 0.604489,0.1407412 1.200148,-2.1616 0.114687,-1.8816445 -0.451489,0.1164329 -0.70496,0.6986395 -0.839783,1.1580574 -0.325213,1.1081983 -0.249801,2.3339322 -0.249801,3.4863678 0,0.3387729 0.09915,0.9365169 -0.05895,1.2348339 -0.264424,0.499009 -1.906085,0.498287 -1.833483,-0.248125 M 9.2100281,14.561476 h 0.057337 c 0,1.010781 -0.05878,2.013344 -0.057337,3.025902 5.73e-4,0.417379 0.1415294,0.914219 0.00912,1.315612 -0.1544344,0.467763 -0.4970245,0.885996 -0.7198721,1.315609 -0.5130798,0.989208 -1.005865,2.038274 -1.2601972,3.157465 -0.120668,0.530979 -0.3135487,1.328698 -0.044205,1.841591 0.087308,0.166292 0.2193217,0.298841 0.3522686,0.41573 1.0801352,0.950004 1.3745514,-0.828768 1.5219338,-1.731078 0.1598235,-0.978352 0.2910335,-2.031169 0.3122505,-3.025903 0.012621,-0.590772 -0.1207682,-1.337515 -0.00671,-1.907635 0.1454311,-0.72681 0.6445203,-1.448224 0.8632373,-2.170757 0.521683,-1.723057 0.920986,-3.82849 0.922019,-5.657123 0.341556,-0.0091 1.070375,-0.613931 1.326885,-0.241941 0.169229,0.24536 0.03889,0.636031 -0.0247,0.899745 -0.195901,0.811997 -0.815818,4.032411 0.704957,2.600631 0.177143,-0.166752 0.327276,-0.347452 0.458772,-0.561433 -0.273544,0.166489 -0.488251,0.458423 -0.745506,0.663463 -0.519505,0.41389 -0.63064,-0.06137 -0.630812,-0.597685 -2.87e-4,-0.835479 0.21436,-1.560773 0.363061,-2.368099 0.04226,-0.229309 0.09042,-0.627217 -0.105804,-0.787522 -0.369254,-0.301671 -0.969731,0.282725 -1.346842,0.327062 v -0.592028 h -0.114688 l 0.03768,0.987695 -0.244757,1.906648 -0.600303,3.091684 -0.8556655,2.302318 H 9.3248151 L 9.330024,14.693036 9.6115984,12.4565 H 9.439539 C 9.4394238,13.612722 9.2549965,14.875775 8.4021394,15.619687 6.7916181,17.024429 5.3961811,14.546212 5.4326701,12.851183 5.4758235,10.846259 5.9451198,8.2887771 7.1055455,6.7335935 7.7253916,5.9029043 9.3292587,4.498078 9.9640302,6.2073499 10.126435,6.644745 10.12655,7.2502087 10.127697,7.7203024 10.639574,6.3210058 9.343598,4.743813 8.120567,5.5069585 6.6181784,6.444424 6.0553551,8.5230568 5.6761248,10.285742 c -0.3717156,1.727725 -0.5182696,3.523335 0.4005886,5.064835 0.8378556,1.405601 2.7290308,0.66662 3.1334379,-0.789101 M 22.514556,7.1282768 c -0.423562,0.9255272 -0.865303,1.8841255 -1.358654,2.762782 -0.168485,0.3000252 -0.370003,0.8090332 -0.705822,0.8551482 0.0056,0.38179 -0.215911,0.628597 -0.408882,0.920924 -0.449999,0.681751 -0.940025,1.335019 -1.485791,1.918555 -0.254047,0.271543 -0.593996,0.660635 -0.971565,0.437703 -0.299465,-0.176753 -0.421038,-0.629517 -0.278418,-0.974866 0.305025,-0.738254 0.959178,-1.362972 1.36548,-2.039196 0.166763,-0.277593 0.534584,-0.828504 0.160395,-1.0973494 -0.411116,-0.2954196 -0.821258,0.2816064 -1.007177,0.6368864 -0.39913,0.762791 -0.370631,1.679311 -0.700028,2.433814 -0.190104,0.435401 -0.599732,0.853371 -0.91766,1.164315 -0.23971,0.234442 -0.631444,0.605312 -0.974033,0.514862 -0.450227,-0.118806 -0.69653,-1.291403 -0.539745,-1.733711 0.09089,-0.256343 0.341154,-0.437832 0.475518,-0.668985 0.298603,-0.513746 0.40739,-1.037558 0.407446,-1.644516 -0.620832,0.0538 -0.825045,0.986511 -0.928555,1.578732 -0.0402,0.229837 -0.04456,0.716613 -0.333067,0.592027 h -0.05734 l 0.05734,0.263121 0.286827,-0.131573 c 0,0.261609 -0.01645,0.531703 0.02953,0.789368 0.03515,0.197143 0.08574,0.403627 0.147897,0.59176 0.47093,1.424739 1.99761,-0.652542 2.403165,-1.118006 0.0021,0.855542 0.546685,1.328962 1.204278,0.754372 0.580407,-0.507168 1.077658,-1.215821 1.524044,-1.87264 0.202663,-0.29825 0.392594,-0.727665 0.665106,-0.946977 0.228524,-0.183923 0.588145,-0.04224 0.85022,-0.03974 -0.189072,0.683984 -0.45258,1.918553 -0.07438,2.565174 0.871722,1.490522 2.408669,-0.1259 2.654972,-1.315344 h -0.05734 c -0.397984,0.963158 -1.907804,2.894933 -2.607377,1.052422 -0.261213,-0.687934 0.05919,-1.601493 0.141475,-2.302252 0.878435,0.187078 1.658749,-0.133526 2.121824,-1.052486 l -0.860201,0.820087 -1.204278,0.166622 c 0.110395,-0.860804 0.409855,-1.766205 0.704444,-2.5654397 0.138265,-0.3750614 0.409167,-0.907844 0.270448,-1.3156102 m -0.05735,0.3946845 -0.76506,2.4996604 -0.299462,0.918162 -0.770567,0.0028 0.899825,-1.5787322 0.935264,-1.8418551 m 1.777746,0.065771 0.229386,0.6578051 -0.229386,-0.6578051 m 0.917545,0.065783 -0.458773,0.7235846 c 0.250096,-0.1290144 0.542451,-0.3738789 0.458781,-0.7235872 m 20.75946,1.2498282 c -0.133274,-9.84e-5 -0.268783,0.00615 -0.401483,-0.011433 -1.040325,-0.1377587 0.269184,-1.4648819 0.424249,-0.5135025 0.02682,0.164672 -0.01663,0.3580287 -0.02276,0.5249725 m -22.078432,-0.6578064 0.17204,0.5920244 h 0.05734 L 23.833626,8.2465841 M 25.668717,8.5754879 25.209944,8.97017 25.668717,8.5754879 m 27.296967,2.0391961 h -0.05734 C 52.888163,9.492337 52.434777,9.0009372 51.589376,9.8253173 V 9.1675356 c -0.701006,0.043458 -1.4995,1.1533944 -1.777747,1.8418524 0.62376,-0.514599 0.943926,-1.4916376 1.720398,-1.7760716 L 51.1306,11.798799 h 0.114689 c 0.02425,-0.638859 0.150764,-1.576823 0.575989,-2.0268286 0.185346,-0.1961547 0.534298,-0.4599367 0.777734,-0.2355595 0.373211,0.3440323 0.194633,1.4436861 0.194633,1.9334871 h 0.114702 c 5.15e-4,-0.846924 0.359562,-1.6573378 0.918404,-2.2167373 0.161946,-0.1621493 0.60684,-0.5821427 0.800386,-0.2610417 0.121398,0.2014447 0.06125,0.6006656 0.05872,0.8332672 -0.0023,0.2073408 -0.02273,0.3954058 -0.08229,0.5920248 -0.226807,0.748186 -0.598125,3.181736 0.713333,2.045772 0.194577,-0.168526 0.367247,-0.36416 0.549152,-0.549597 0.269931,-0.275093 0.544104,-0.531834 0.712472,-0.904152 -0.297055,0.240032 -0.530741,0.561173 -0.802851,0.836334 -0.152083,0.153795 -0.303592,0.310154 -0.458773,0.45974 -0.572319,0.551636 -0.925631,0.318839 -0.917316,-0.506709 0.0086,-0.851394 0.76724,-2.0432738 0.318963,-2.8734295 -0.152599,-0.2826662 -0.535388,-0.098841 -0.720617,0.032689 -0.48848,0.3468058 -0.930335,1.0011268 -1.03224,1.6566935 m -25.232491,2.039199 h -0.05734 l 0.172038,-2.8285624 c -0.198418,0.045511 -0.289542,0.5036144 -0.401424,0.7235864 -0.395866,0.778445 -0.974492,1.841525 -1.663053,2.368096 -0.21998,0.168201 -0.490141,0.38271 -0.802851,0.263123 -0.581781,-0.222471 -0.286732,-1.536962 -0.286732,-2.104977 0,-0.285158 -0.04285,-0.719442 0.172039,-0.657805 l -0.172121,-0.131594 c -0.190274,0.916586 -0.424936,3.873948 1.089587,2.791594 0.875623,-0.625837 1.182427,-1.870927 1.892437,-2.660032 l -0.05734,2.631219 h 0.05734 c 0.352795,-0.952831 0.404694,-1.861522 0.938133,-2.762781 0.159938,-0.270227 0.490024,-0.8173872 0.834275,-0.6398463 0.836917,0.4316523 0.256342,1.8882283 0.43165,2.6130003 0.152598,0.63123 0.783812,0.493812 1.122041,0.175963 0.21832,-0.205236 0.399419,-0.449216 0.630813,-0.636165 0.003,0.381263 0.201229,1.008152 0.609077,0.571106 0.333356,-0.357187 0.473799,-0.953881 0.767241,-1.360473 -0.05672,0.824363 0.166993,2.154708 -0.172785,2.894277 -0.187982,0.409091 -0.634082,0.726808 -0.916743,1.052554 -0.766952,0.883632 -1.350512,1.975587 -1.695911,3.157464 -0.148642,0.508682 -0.173529,1.325544 0.136027,1.763642 0.654325,0.925926 1.389796,-0.490987 1.5928,-1.105837 0.347522,-1.052617 0.55718,-2.193778 0.776702,-3.289024 0.08619,-0.430008 0.06733,-0.999338 0.27171,-1.380403 0.368105,-0.68629 1.230312,-1.191877 1.727738,-1.777064 0.278704,-0.327783 0.532864,-1.042817 0.873099,-1.254497 0.190105,-0.118265 0.462903,0.05399 0.618771,0.178922 0.357556,0.286607 1.416289,1.532623 0.9976,2.107147 -0.389671,0.534665 -1.245393,-0.05204 -1.054947,-0.702668 -0.627257,0.466912 0.53252,1.178591 1.023751,0.877975 0.315751,-0.193199 0.167796,-0.788972 0.04422,-1.075316 -0.327914,-0.759566 -0.853151,-1.384219 -1.58409,-1.578731 0.05094,-0.173069 0.120089,-0.346403 0.150246,-0.526246 0.213157,-1.270419 -1.721542,-0.189052 -0.665506,0.439546 0.108902,0.06486 0.223996,0.07427 0.343219,0.0867 -0.435318,1.317451 -1.608801,2.180362 -2.523249,3.025902 l 0.114688,-3.157464 c -0.452063,0.33864 -0.506025,1.397705 -0.9937,1.632934 -0.30325,0.146285 -0.429413,-0.411524 -0.323608,-0.640374 0.38365,-0.82995 1.142574,-0.933489 1.145269,-2.045048 -1.591253,0.00541 -0.885259,2.720812 -2.408557,2.927036 -0.275607,0.0373 -0.522313,-0.262795 -0.558095,-0.558939 -0.09142,-0.756014 0.273714,-1.626356 -0.211381,-2.2984363 -0.353483,-0.4897352 -0.794595,-0.1423996 -1.056669,0.2595053 -0.501551,0.76917 -0.890075,1.657799 -0.92649,2.630956 m -2.35121,-3.0916835 v 0.065771 h 0.573468 l -0.573468,-0.065771 m 7.455055,0.1973411 c -0.01447,0.7775254 -0.540089,1.4658534 -1.146931,1.7760754 0.01446,-0.797722 0.352623,-1.7540379 1.146931,-1.7760754 m 2.924676,0.1315676 c -0.0025,0.1336568 -0.0047,0.2636488 -0.02969,0.3950118 -0.248884,1.30765 -1.328663,-0.403696 -0.371779,-0.4520444 0.135455,-0.00688 0.269243,0.028878 0.401484,0.05703 m 14.221951,-0.065771 h -0.05734 l -0.05734,0.4604614 c -0.924199,-1.3500715 -1.821043,0.739966 -1.587469,1.775089 0.174162,0.771801 0.914333,0.245426 1.100422,-0.196355 0.116817,-0.277331 0.209889,-0.571567 0.315004,-0.855148 0.144743,-0.390473 0.257201,-0.75825 0.286735,-1.1840474 M 17.238733,12.851251 c 0.174793,-0.832516 0.302732,-1.716147 0.748027,-2.433614 0.159425,-0.256874 0.47896,-0.6605026 0.787026,-0.4486231 0.292296,0.2009601 0.05655,0.6146521 -0.07381,0.8430431 -0.389613,0.682603 -0.881415,1.560772 -1.461248,2.039194 m 32.114082,-1.578731 0.172037,-0.06577 c -0.107816,0.432636 -0.514626,1.57735 -1.064696,1.061826 -0.340695,-0.319231 -0.08946,-1.358103 0.08435,-1.719633 0.195208,-0.406062 1.110745,-1.0927459 1.191261,-0.196356 0.0316,0.351598 -0.199051,0.671621 -0.382961,0.919944 m 2.007137,-0.723587 -0.05734,0.460462 h -0.05733 l 0.114691,-0.460462 m -40.257295,0.06578 v 0.460461 h -0.05734 l 0.05734,-0.460461 m 4.415686,0.06576 c -0.0056,0.782853 -0.292983,1.579586 -0.860198,2.039193 0.04558,-0.657409 0.222103,-1.82929 0.860198,-2.039193 m 5.046499,0.131568 -0.05735,0.06577 0.05735,-0.06577 m 30.680416,0.26312 -0.05735,0.06578 0.05735,-0.06578 m -41.690958,1.44717 -0.057337,1.052491 h -0.057337 l 0.1146939,-1.052497 m 23.2827099,1.644514 c -0.05689,1.519661 -0.513024,3.331454 -1.009529,4.736197 -0.172958,0.48934 -0.535905,1.303046 -1.112066,1.143725 -0.644118,-0.178067 -0.568878,-1.320149 -0.434458,-1.867311 0.373614,-1.520582 1.38624,-3.17325 2.556053,-4.012611 M 9.2675338,19.100418 c 0,1.759037 -0.031363,3.46637 -0.3442509,5.196659 C 8.8403519,24.755435 8.6951573,25.793519 8.1777201,25.84101 7.3368415,25.9181 7.060511,24.75971 7.1723019,24.033955 7.3704636,22.747551 7.9125486,21.529426 8.487793,20.416028 8.7176936,19.971021 8.9328602,19.45221 9.2675338,19.100418 m 55.9702552,4.407295 h -0.05734 l -0.05734,0.197341 c -0.544244,-0.407766 -1.091903,-0.458811 -1.720422,-0.537155 -0.425511,-0.05302 -0.829231,-0.216682 -1.261624,-0.1805 -1.158973,0.09702 -2.629913,0.922702 -3.612835,1.599124 -0.659484,0.453884 -1.445647,0.88343 -2.001966,1.498081 -2.564886,2.833695 -3.223166,7.106863 -2.992289,10.973902 0.073,1.222794 0.153231,2.429603 0.458888,3.617927 0.433369,1.684641 1.245681,3.799288 2.473128,4.896902 0.835942,0.747462 1.855046,1.003545 2.865093,1.233842 1.575311,0.359164 3.210259,0.631492 4.817111,0.320943 0.458772,-0.08863 0.91181,-0.289107 1.376318,-0.328177 0.576906,-0.0485 1.144066,0.0865 1.720398,0.0573 0.326301,-0.01657 0.7478,-0.100045 0.841847,-0.523943 0.126163,-0.569594 -0.09519,-1.151359 -0.143941,-1.710029 -0.05388,-0.617021 0.03384,-1.229177 -0.07913,-1.841855 -0.06422,-0.348771 -0.106087,-0.760424 -0.392251,-0.962565 -0.444435,-0.313316 -0.916397,-0.07584 -1.37345,0.03373 -0.571745,0.13709 -1.310944,0.194908 -1.892437,0.128204 -2.000249,-0.229378 -3.363375,-2.229499 -4.096266,-4.198705 -0.189244,-0.508549 -0.458199,-1.025845 -0.531603,-1.578732 -0.251178,-1.893227 -0.346202,-4.196664 1.244421,-5.386963 0.648591,-0.485263 1.488718,-0.76687 2.236518,-0.960922 0.532749,-0.138325 1.071233,-0.160701 1.605702,-2.63e-4 0.198993,0.0598 0.51096,0.339757 0.703069,0.124128 0.313114,-0.351728 -0.0258,-1.31449 -0.0625,-1.735421 -0.134192,-1.540777 -0.239135,-3.208577 -0.06709,-4.736198 m -0.114688,0.263123 c -0.232826,1.439934 0.03096,3.088658 0.119849,4.538856 0.03612,0.592551 0.233975,1.111097 0.109524,1.710294 -0.521852,-0.09011 -1.007578,-0.353177 -1.548357,-0.38758 -1.00758,-0.06415 -2.585183,0.626824 -3.3261,1.385733 -1.972092,2.019526 -1.110805,5.854464 0.117559,8.079555 0.333758,0.604591 0.686439,1.300351 1.201411,1.724175 0.734608,0.604652 1.607997,1.190099 2.523247,1.290088 0.454187,0.04953 0.973174,-0.09919 1.433667,-0.122493 0.523,-0.02651 1.525419,-0.575184 1.875232,0.140319 0.45648,0.934675 0.209314,2.322644 0.389382,3.348623 0.05906,0.338243 0.09519,0.846725 -0.151392,1.097349 -0.533325,0.543151 -1.800112,0.08313 -2.457302,0.163926 -0.561424,0.06895 -1.09876,0.310221 -1.663052,0.372055 -1.415885,0.155174 -2.803099,-0.04598 -4.1863,-0.343309 -0.705362,-0.151627 -1.413076,-0.248518 -2.064474,-0.619652 -0.846208,-0.482237 -1.685474,-1.245291 -2.186225,-2.185885 -0.388294,-0.729312 -0.566528,-1.590707 -0.871038,-2.365535 -0.585966,-1.491048 -0.750665,-2.983475 -0.84741,-4.604635 -0.225429,-3.775803 0.442658,-8.111002 2.989362,-10.84234 0.450688,-0.483355 1.023695,-0.815941 1.546121,-1.183062 2.152791,-1.512755 4.588874,-2.485517 6.996282,-1.196482 m -45.361138,0.263122 1.376318,0.454543 3.383447,0.0058 c -0.217688,-0.285752 -0.944669,-0.131567 -1.261625,-0.131567 -0.681563,0 -1.453564,0.138196 -2.121822,0.04651 -0.446443,-0.06125 -0.821549,-0.36554 -1.261626,-0.44119 v -0.06577 h 0.286733 c -0.178748,-0.08309 -0.296539,-0.0542 -0.401425,0.131568 m -0.114701,0.197342 0.113832,3.881049 -0.226289,2.697 -0.351477,10.393323 -0.453612,7.95944 1.548358,0.05362 1.032238,-0.245757 2.35121,0.192145 -0.229387,-0.328902 0.114688,0.263122 -2.351209,-0.196354 -2.408555,0.196354 0.453609,-7.36742 0.351479,-10.524877 0.117622,-5.262442 -0.06252,-1.710295 m 4.931805,0.263121 c -0.06714,0.400015 0.186492,0.736152 0.377686,1.052487 0.421438,0.697276 0.793445,1.438361 1.250727,2.104979 1.091476,1.591296 1.872194,3.35586 2.587421,5.196659 0.221071,0.569069 0.714767,1.307717 0.773318,1.907637 h 0.05734 v -0.592043 l -0.114688,0.06576 -0.281571,-4.012611 0.04703,-2.302318 0.0052,-1.644511 0.09198,-0.752266 1.055005,-0.297658 2.867328,-0.06835 c 0.394315,5.730405 0.68816,11.418578 0.68816,17.168717 0,1.407176 0.01478,2.805076 2.28e-4,4.209949 -0.0044,0.424484 0.112463,1.394811 -0.116526,1.744633 -0.136599,0.20872 -0.748488,-0.0988 -0.973288,-0.100045 -0.840699,-0.0048 -1.682603,-0.01143 -2.523249,1.98e-4 -0.317701,0.0042 -0.678467,0.179185 -0.91525,-0.141557 -1.088096,-1.47401 -1.453163,-3.466435 -2.116206,-5.186924 -1.07479,-2.788896 -2.581399,-5.582727 -3.219322,-8.551466 h -0.114687 c -0.446215,1.256339 -0.259092,2.809684 -0.287595,4.144171 -0.04351,2.038539 -0.285871,4.080628 -0.285871,6.117588 0,0.942635 -0.0096,1.885994 2.29e-4,2.828564 0.0049,0.474276 0.09778,0.909348 -2.29e-4,1.381389 0.214303,-0.214773 0.12496,-0.815878 0.09038,-1.118268 -0.10075,-0.880276 -0.03303,-1.809555 -0.03303,-2.697002 0,-2.35106 0.198878,-4.758233 0.338917,-7.104294 0.06652,-1.11347 -0.08928,-2.266995 0.177201,-3.354805 h 0.05734 c 0.112916,1.474075 1.038377,3.031756 1.59091,4.341511 0.850908,2.017293 1.47461,4.158183 2.296099,6.183368 0.346431,0.854095 0.653235,1.703845 1.097039,2.499659 0.137921,0.24727 0.245158,0.582618 0.46921,0.74707 0.270505,0.198593 0.776876,-0.0039 1.084253,7.91e-4 0.831123,0.01271 1.69442,-0.02446 2.523249,0.04512 0.375333,0.03151 0.595887,0.312656 0.97489,0.12794 -0.253585,-0.523152 -0.04003,-1.455064 -0.0052,-2.039193 0.08684,-1.455002 0.0052,-2.948678 0.0052,-4.407298 0,-3.836781 -0.168311,-7.626788 -0.396321,-11.445806 -0.05981,-1.002496 -0.136599,-2.023214 -0.174905,-3.025905 -0.02724,-0.714375 0.02964,-1.467827 -0.134422,-2.167139 -0.08945,-0.381329 -0.550584,-0.393634 -0.842707,-0.393104 -0.313573,5.26e-4 -0.606383,0.160044 -0.917545,0.186223 -0.552306,0.04644 -1.113958,-0.05363 -1.663052,0.04475 -0.243092,0.04356 -0.656274,0.0619 -0.768272,0.364621 -0.216255,0.58505 -0.03459,1.658851 -0.03459,2.293569 0,2.125698 0.286734,4.202717 0.286734,6.314929 h -0.05734 c -0.89212,-3.553245 -3.155819,-6.597635 -4.817206,-9.669649 m 13.533791,0.328905 c 0.176742,1.177469 0.781806,2.197396 1.267357,3.223241 0.429986,0.908564 0.65834,1.940726 0.995138,2.894343 0.176225,0.499078 0.475,0.932967 0.61286,1.447174 0.191252,0.712993 0.483548,1.265878 0.792816,1.907634 0.178753,0.370803 0.254505,0.706283 0.632821,0.855147 -1.474897,-2.595633 -2.315195,-5.588844 -3.567875,-8.354127 -0.280767,-0.619784 -0.366158,-1.41665 -0.733117,-1.973412 m 0.172038,0.06577 V 25.0864 l 4.186301,0.06578 c 0.0027,1.162345 0.647672,2.151747 0.969157,3.223248 0.139755,0.465922 0.164469,1.112347 0.407161,1.51295 0.05948,-0.36186 -0.133789,-0.832783 -0.227953,-1.184049 C 43.302706,27.522648 42.53759,26.339451 42.528527,25.0864 41.205312,24.804596 39.632698,24.89011 38.28488,24.889059 m 6.709549,0.263121 c -0.0984,0.449807 -0.32246,0.86337 -0.434227,1.315609 -0.13918,0.563411 -0.16143,1.157605 -0.33628,1.710293 -0.100366,0.317195 -0.424136,0.905929 -0.147036,1.184053 l 0.261613,-1.249832 0.313515,-1.644514 0.399763,-1.249827 c 1.523927,0 3.084672,-0.279108 4.587726,0.131554 l -0.446158,1.18405 -0.189759,1.11827 -0.843396,1.776071 -1.063205,3.486368 -1.185009,3.091685 c 0.389211,0.588539 0.36392,1.785349 0.406529,2.49966 0.124495,2.085307 0.112509,4.224096 0.109592,6.314929 -9.06e-4,0.635439 -0.05729,1.268839 -0.05734,1.907635 0,0.223059 0.05,0.573606 -0.09989,0.7497 -0.176226,0.206946 -0.640333,0.156887 -0.874995,0.189974 -0.832327,0.11722 -1.796324,0.104779 -2.637942,0.112807 -0.01743,-0.96796 -0.253989,-1.930595 -0.334332,-2.894344 -0.127135,-1.524658 -0.0098,-3.071225 -0.0098,-4.604634 0,-1.440726 -0.115039,-2.987949 0.114689,-4.407296 h -0.05734 c -0.296022,1.0738 -0.114688,2.434275 -0.114688,3.552147 0,1.675757 -0.151796,3.397369 -0.05226,5.065101 0.06697,1.121228 0.353941,2.238773 0.396321,3.354805 0.907223,-1.3e-4 1.909927,0.0107 2.809983,-0.112732 0.220668,-0.03033 0.696531,0.03177 0.849992,-0.190043 0.356349,-0.515124 0.07742,-1.773505 0.1413,-2.394211 0.09572,-0.930926 -0.05311,-1.834684 -0.07289,-2.762782 -0.02741,-1.283508 0.09542,-2.603067 -0.01074,-3.88105 -0.06583,-0.793313 -0.402401,-1.79002 -0.334446,-2.565439 0.07925,-0.904546 0.726697,-1.992096 1.039637,-2.828563 0.455676,-1.217927 0.684317,-2.544652 1.157541,-3.749489 0.231277,-0.588931 0.638036,-1.117416 0.834048,-1.710292 0.126392,-0.382317 0.05471,-0.797128 0.19968,-1.184052 0.175941,-0.469476 0.484121,-0.866853 0.554083,-1.381388 -0.754911,0.331795 -1.792998,-0.08197 -2.580594,-0.122088 -0.274404,-0.01396 -0.532351,0.143156 -0.802854,0.176424 -0.487962,0.06019 -1.000354,0.01143 -1.491012,0.01143 z"
       id="path3333" /></g><g
     inkscape:groupmode="layer"
     id="layer8"
     inkscape:label="2-fill" /><plotdata
     application="axidraw"
     model="4"
     plob_version="n/a"
     layer="-2"
     pause_dist="-25400"
     pause_ref="-25400"
     last_x="-7.184305234053667e-14"
     last_y="7.666783874427097e-14"
     rand_seed="1"
     row="0" /></svg>
