<?xml version="1.0" encoding="UTF-8" standalone="no"?>
<!-- Created with Inkscape (http://www.inkscape.org/) -->

<svg
   xml:space="preserve"
   sodipodi:docname="postcard1_NYC_part3.svg"
   width="95mm"
   height="95mm"
   viewBox="0 0 95 95"
   id="svg15158"
   version="1.1"
   inkscape:version="1.2.2 (732a01da63, 2022-12-09)"
   xmlns:inkscape="http://www.inkscape.org/namespaces/inkscape"
   xmlns:sodipodi="http://sodipodi.sourceforge.net/DTD/sodipodi-0.dtd"
   xmlns="http://www.w3.org/2000/svg"
   xmlns:svg="http://www.w3.org/2000/svg"
   xmlns:rdf="http://www.w3.org/1999/02/22-rdf-syntax-ns#"
   xmlns:cc="http://creativecommons.org/ns#"
   xmlns:dc="http://purl.org/dc/elements/1.1/"><sodipodi:namedview
     inkscape:window-maximized="1"
     inkscape:window-y="147"
     inkscape:window-x="2391"
     inkscape:window-height="1001"
     inkscape:window-width="1920"
     showgrid="false"
     id="namedview15162"
     inkscape:current-layer="layer1"
     inkscape:cy="216.22042"
     inkscape:cx="101.98539"
     inkscape:zoom="1.7551534"
     inkscape:pageshadow="2"
     inkscape:pageopacity="0.0"
     borderopacity="1.0"
     bordercolor="#666666"
     pagecolor="#ffffff"
     inkscape:document-units="mm"
     inkscape:showpageshadow="2"
     inkscape:pagecheckerboard="0"
     inkscape:deskcolor="#d1d1d1" /><defs
     id="defs15160"><rect
       x="232.05578"
       y="293.29273"
       width="122.47389"
       height="37.064465"
       id="rect367" /><rect
       x="257.03401"
       y="305.37896"
       width="88.632417"
       height="22.560979"
       id="rect361" /></defs><metadata
     id="metadata15164"><rdf:RDF><cc:Work
         rdf:about=""><dc:format>image/svg+xml</dc:format><dc:type
           rdf:resource="http://purl.org/dc/dcmitype/StillImage" /></cc:Work></rdf:RDF></metadata><g
     id="layer1"
     inkscape:groupmode="layer"
     inkscape:label="1-outline"
     style="display:inline"><path
       id="path4161"
       style="fill:none;stroke:#000000;stroke-width:0.381;stroke-miterlimit:4;stroke-dasharray:none"
       d=""
       inkscape:connector-curvature="0" /><path
       id="path4169"
       style="fill:none;stroke:#000000;stroke-width:0.381;stroke-miterlimit:4;stroke-dasharray:none"
       d=""
       inkscape:connector-curvature="0" /><path
       id="path4177"
       style="fill:none;stroke:#000000;stroke-width:0.381;stroke-miterlimit:4;stroke-dasharray:none"
       d=""
       inkscape:connector-curvature="0" /><path
       id="path4187"
       style="fill:none;stroke:#000000;stroke-width:0.381;stroke-miterlimit:4;stroke-dasharray:none"
       d=""
       inkscape:connector-curvature="0" /><path
       id="path4199"
       style="fill:none;stroke:#000000;stroke-width:0.381;stroke-miterlimit:4;stroke-dasharray:none"
       d=""
       inkscape:connector-curvature="0" /><path
       id="path4215"
       style="fill:none;stroke:#000000;stroke-width:0.381;stroke-miterlimit:4;stroke-dasharray:none"
       d=""
       inkscape:connector-curvature="0" /><path
       id="path4221"
       style="fill:none;stroke:#000000;stroke-width:0.381;stroke-miterlimit:4;stroke-dasharray:none"
       d=""
       inkscape:connector-curvature="0" /><path
       style="fill:#000000;stroke-width:0.055819"
       id="path222"
       d="" /><path
       style="fill:#000000;stroke-width:0.0310173"
       d="m 11.197782,77.638158 c -0.127294,-0.389818 -0.180516,-0.683069 -0.207262,-1.141986 -0.110783,-1.900945 0.115638,-3.813434 0.64154,-5.418809 0.740341,-2.25998 1.981624,-3.990203 3.775112,-5.262124 0.365432,-0.259157 1.197437,-0.729091 1.589543,-0.897805 3.320914,-1.428904 7.349836,-1.061983 11.353372,1.033971 1.201976,0.629265 1.65565,0.974474 1.98863,1.513184 l 0.151531,0.245211 -0.153007,-0.195895 c -0.391684,-0.501456 -0.853767,-0.860245 -1.68689,-1.309783 -1.745684,-0.941941 -3.435277,-1.555505 -5.080014,-1.844775 -0.698319,-0.122818 -1.031591,-0.160059 -1.720789,-0.192288 -3.857318,-0.180378 -7.066077,1.421692 -9.007187,4.497109 -0.543083,0.860441 -1.031639,2.012561 -1.327498,3.13053 -0.307645,1.162514 -0.484618,2.660646 -0.467597,3.958372 0.01534,1.169499 0.122857,1.753394 0.444336,2.413044 l 0.09181,0.188397 -0.153679,-0.23812 c -0.11164,-0.173118 -0.175053,-0.303707 -0.232018,-0.478198 z m 0.751456,1.250966 c 0.408447,0.521446 0.862423,0.87612 1.702473,1.330076 2.93095,1.583857 5.847626,2.266023 8.52608,1.994121 1.971407,-0.200126 3.736459,-0.905123 5.167549,-2.064019 2.640695,-2.138434 4.017817,-5.617677 3.893045,-9.835615 -0.02782,-0.940563 -0.141581,-1.486113 -0.428572,-2.055285 l -0.110802,-0.219746 0.157575,0.241795 c 0.250577,0.384625 0.412915,0.945097 0.44731,1.544518 0.24363,4.24601 -1.000253,7.802142 -3.524951,10.077463 -0.529434,0.477139 -0.850596,0.702297 -1.647967,1.155339 -0.828051,0.470471 -1.045173,0.566889 -1.850456,0.821666 -1.675846,0.530214 -3.597106,0.620873 -5.586007,0.263588 -1.751393,-0.314618 -3.582154,-1.001337 -5.379595,-2.017886 -0.671451,-0.379741 -1.087339,-0.738677 -1.35196,-1.166819 l -0.151531,-0.24521 z m 0.0099,-1.250994 c -0.110898,-0.289988 -0.167074,-0.608642 -0.189455,-1.074712 -0.04969,-1.034668 0.02488,-2.584729 0.12366,-2.570525 0.0581,0.0084 4.176499,6.501741 4.156879,6.554043 -0.03056,0.08147 -1.458292,-0.561022 -2.363908,-1.063774 -0.768346,-0.426548 -1.054568,-0.681318 -1.424757,-1.2682 -0.142812,-0.226407 -0.237372,-0.406776 -0.302414,-0.576834 z m 0.830856,1.134404 c 0.256371,0.241875 0.393478,0.335296 0.942511,0.642196 0.533146,0.29802 1.272726,0.656659 1.798826,0.872289 l 0.395789,0.162222 -1.999871,-3.153159 -1.999872,-3.153159 -0.01985,0.151207 c -0.02747,0.209273 -0.07087,1.091289 -0.07183,1.460167 -0.0037,1.397035 0.09988,1.871835 0.553519,2.538321 0.138012,0.202811 0.252848,0.340257 0.400843,0.479879 z m -0.750795,-5.936255 c 0.03276,-0.247162 0.220589,-0.936988 0.261408,-0.960057 0.03741,-0.02114 0.233494,0.282183 3.000294,4.641345 2.814174,4.433803 2.958178,4.665151 2.918542,4.687551 -0.03973,0.02245 -0.70448,-0.132798 -1.009725,-0.235815 l -0.143799,-0.04853 -2.522392,-3.974093 -2.522393,-3.974093 z m 5.554783,8.153619 c 0.25555,0.06782 0.477857,0.121935 0.494014,0.12025 0.01897,-0.002 -0.993727,-1.614989 -2.856563,-4.549934 -1.587267,-2.50078 -2.892344,-4.543254 -2.900035,-4.538907 -0.01555,0.0088 -0.155589,0.555006 -0.199704,0.778959 l -0.02793,0.141817 2.512815,3.962238 2.512815,3.962239 z M 12.612196,70.874479 c 0.08997,-0.245208 0.353209,-0.817102 0.517403,-1.12407 0.594082,-1.110657 1.337917,-2.014425 2.33463,-2.836599 0.316847,-0.261359 0.457851,-0.352143 1.199338,-0.772132 0.67845,-0.384289 0.910786,-0.501557 1.206409,-0.608891 1.031474,-0.374515 2.018682,-0.571804 3.098442,-0.619207 0.462896,-0.02032 1.386711,0.0133 1.828193,0.06654 l 0.313621,0.03782 3.309211,5.213748 3.309211,5.213746 -0.0927,0.234196 c -0.144069,0.363976 -0.49203,1.062182 -0.703805,1.41223 -0.679673,1.123449 -1.516659,2.020295 -2.590923,2.776226 -0.43408,0.305448 -1.42612,0.832954 -1.900697,1.010655 -0.962497,0.360413 -1.967112,0.566687 -3.03197,0.622538 -0.469893,0.02465 -1.529922,-0.0125 -1.949988,-0.06832 l -0.289937,-0.03852 -3.300321,-5.19974 -3.300321,-5.199739 z m 6.855335,10.471207 c 0.355002,0.04637 1.173275,0.08601 1.601897,0.07758 2.63207,-0.05172 4.995029,-1.072404 6.654762,-2.874538 0.72647,-0.788797 1.402895,-1.857303 1.796118,-2.837212 l 0.127419,-0.317529 -3.262798,-5.140622 -3.262799,-5.140621 -0.357871,-0.04417 c -0.196831,-0.02429 -0.580891,-0.05332 -0.85347,-0.0645 -2.750555,-0.112861 -5.191276,0.771254 -7.011925,2.539965 -0.911846,0.885833 -1.663596,2.01941 -2.14163,3.229401 l -0.101851,0.257801 3.261334,5.138313 3.261333,5.138313 z m -2.999739,-5.769421 c -0.04256,-0.251496 -0.01245,-0.279817 0.76378,-0.718512 L 17.924691,74.466032 17.62962,74.00114 c -0.223401,-0.351973 -0.299744,-0.490489 -0.314329,-0.570269 -0.04694,-0.256859 0.09359,-0.443142 0.328441,-0.435368 0.23481,0.0078 0.308145,0.07546 0.664936,0.613729 l 0.308513,0.465433 0.302229,-0.170806 0.302231,-0.170807 -0.289232,-0.476331 c -0.335217,-0.552062 -0.363245,-0.643595 -0.258595,-0.844681 0.105898,-0.203492 0.330259,-0.22827 0.554996,-0.06129 0.08758,0.06506 0.15786,0.16006 0.395901,0.535023 l 0.289421,0.455912 0.318171,-0.179817 0.318172,-0.179816 -0.313953,-0.510581 -0.313953,-0.51058 0.01135,-0.129901 c 0.02085,-0.238512 0.194698,-0.370504 0.412665,-0.313306 0.191509,0.05026 0.255528,0.119614 0.57501,0.622967 l 0.295072,0.464892 0.319731,-0.180698 0.31973,-0.180698 -0.295072,-0.464892 c -0.2234,-0.351974 -0.299743,-0.49049 -0.314328,-0.570269 -0.04694,-0.256859 0.09359,-0.443142 0.328441,-0.435368 0.23481,0.0078 0.308144,0.07546 0.664935,0.61373 l 0.308514,0.465433 0.302229,-0.170807 0.302229,-0.170807 -0.289232,-0.476331 c -0.335211,-0.552062 -0.363238,-0.643596 -0.25859,-0.844682 0.105899,-0.203492 0.330261,-0.22827 0.554998,-0.06129 0.08757,0.06506 0.157858,0.160059 0.395901,0.535023 l 0.289421,0.455911 0.701796,-0.396625 c 0.662288,-0.374297 0.708342,-0.395619 0.817293,-0.380014 0.223129,0.03209 0.424854,0.254857 0.463814,0.512198 0.03796,0.250749 0.01357,0.273528 -0.762403,0.712075 l -0.68917,0.389491 0.28525,0.449419 c 0.316539,0.498716 0.364915,0.618935 0.316063,0.785463 -0.04748,0.16184 -0.154857,0.241126 -0.319204,0.235691 -0.236098,-0.0078 -0.308884,-0.07489 -0.666081,-0.613769 l -0.308514,-0.465433 -0.302229,0.170807 -0.30223,0.170808 0.289232,0.47633 c 0.334492,0.550873 0.363126,0.643824 0.259559,0.842832 -0.107394,0.206361 -0.36409,0.229216 -0.575505,0.05125 -0.06663,-0.05609 -0.181041,-0.215328 -0.380526,-0.529622 l -0.285251,-0.449419 -0.31973,0.180698 -0.319731,0.180698 0.298778,0.470936 c 0.327347,0.515948 0.362817,0.61147 0.29778,0.802077 -0.03942,0.115547 -0.225369,0.220638 -0.35193,0.198895 -0.208769,-0.03587 -0.281278,-0.110452 -0.608818,-0.626292 l -0.298955,-0.470835 -0.319731,0.180699 -0.31973,0.180697 0.285251,0.44942 c 0.31654,0.498716 0.364908,0.618939 0.316064,0.785462 -0.04748,0.161842 -0.154859,0.241126 -0.319205,0.235693 -0.236099,-0.0078 -0.308885,-0.07489 -0.666082,-0.61377 l -0.308514,-0.465433 -0.30223,0.170807 -0.302228,0.170807 0.289232,0.476331 c 0.334492,0.550873 0.363125,0.643824 0.259558,0.842832 -0.107392,0.206362 -0.364088,0.229216 -0.575504,0.05125 -0.06664,-0.05608 -0.181042,-0.215329 -0.380527,-0.529623 l -0.285253,-0.449424 -0.68917,0.38949 c -0.781532,0.441688 -0.821615,0.453153 -1.033509,0.295773 -0.148581,-0.110356 -0.237951,-0.249066 -0.26559,-0.412128 z m 0.310213,0.347332 c 0.181683,0.121193 0.18771,0.119278 0.964519,-0.306433 l 0.719437,-0.39428 0.31719,0.478671 c 0.345676,0.521658 0.39524,0.573042 0.576828,0.597997 0.138651,0.01905 0.236033,-0.03258 0.283284,-0.150194 0.06328,-0.157478 0.01895,-0.270299 -0.309419,-0.787663 l -0.296005,-0.466362 0.378939,-0.214161 0.37894,-0.214161 0.296005,0.466363 c 0.328375,0.517364 0.41286,0.607486 0.589858,0.629171 0.132185,0.0162 0.226379,-0.04045 0.274028,-0.164776 0.06242,-0.162917 0.03785,-0.22822 -0.287426,-0.763723 l -0.298482,-0.491414 0.364309,-0.205892 0.364317,-0.205896 0.28525,0.449418 c 0.303705,0.478495 0.393422,0.579726 0.562964,0.635142 0.06419,0.02098 0.12457,0.01083 0.204519,-0.03435 0.07995,-0.04519 0.117927,-0.09063 0.128618,-0.153928 0.02824,-0.167196 -0.02398,-0.289614 -0.327691,-0.768109 l -0.285247,-0.449414 0.364317,-0.205897 0.364318,-0.205896 0.318239,0.480248 c 0.346785,0.523344 0.396197,0.574611 0.577872,0.599575 0.138652,0.01906 0.236034,-0.03257 0.283284,-0.150193 0.06328,-0.157479 0.01895,-0.2703 -0.309419,-0.787663 l -0.296005,-0.466363 0.37894,-0.214161 0.378939,-0.21416 0.296005,0.466363 c 0.328375,0.517363 0.41286,0.607485 0.589857,0.629172 0.132186,0.0162 0.226381,-0.04045 0.274029,-0.164778 0.06242,-0.162916 0.03785,-0.228219 -0.287426,-0.763723 l -0.298482,-0.491413 0.671726,-0.37963 c 0.547545,-0.309449 0.683069,-0.397582 0.733226,-0.476506 0.147798,-0.23282 -0.08538,-0.627363 -0.374979,-0.634467 -0.09621,-0.0024 -0.212989,0.05396 -0.801786,0.386728 l -0.689169,0.38949 -0.252441,-0.39557 c -0.304715,-0.477468 -0.424495,-0.620951 -0.56299,-0.674556 -0.141004,-0.05458 -0.30496,0.0044 -0.354405,0.127431 -0.07014,0.174563 -0.04089,0.251889 0.296017,0.782703 l 0.305431,0.481219 -0.378939,0.21416 -0.37894,0.214161 -0.296005,-0.466363 c -0.330987,-0.521479 -0.412411,-0.607425 -0.596814,-0.630025 -0.142507,-0.01746 -0.274717,0.08911 -0.290496,0.234171 -0.01528,0.140513 0.06225,0.307869 0.364502,0.786734 l 0.250424,0.396707 -0.367097,0.207467 -0.367098,0.207469 -0.285253,-0.449424 c -0.313389,-0.493751 -0.40158,-0.590346 -0.582215,-0.637753 -0.140414,-0.03685 -0.275393,0.03944 -0.307241,0.17364 -0.04097,0.172648 0.0076,0.291603 0.321046,0.785354 l 0.28525,0.44942 -0.367098,0.207469 -0.367098,0.207468 -0.252439,-0.39557 c -0.304716,-0.477468 -0.424496,-0.620951 -0.562992,-0.674556 -0.141004,-0.05458 -0.304959,0.0044 -0.354404,0.127431 -0.07014,0.174563 -0.04089,0.25189 0.296016,0.782704 l 0.305432,0.481217 -0.37894,0.214162 -0.378939,0.214159 -0.296005,-0.466363 c -0.330987,-0.521478 -0.41241,-0.607424 -0.596814,-0.630024 -0.142507,-0.01746 -0.274718,0.08911 -0.290497,0.234171 -0.01527,0.140411 0.06225,0.307862 0.363476,0.785116 l 0.2494,0.395092 -0.710664,0.413987 c -0.630455,0.367266 -0.713508,0.423584 -0.735889,0.498978 -0.05145,0.17338 0.04366,0.39945 0.216593,0.514805 z m 7.299592,-10.703205 c 0.03613,-0.02042 0.814655,0.159912 1.044293,0.241888 l 0.11442,0.04084 2.522899,3.974892 2.5229,3.974894 -0.01986,0.117309 c -0.0525,0.310101 -0.224308,0.952867 -0.260509,0.974616 -0.03865,0.02323 -0.194128,-0.217124 -3.001034,-4.639477 -2.676359,-4.216673 -2.956737,-4.665962 -2.923109,-4.684967 z m 5.899056,9.149138 c 0.01026,-0.02366 0.06477,-0.233608 0.121132,-0.466537 l 0.102474,-0.42351 -2.510493,-3.95704 -2.510493,-3.957039 -0.08954,-0.02699 c -0.130747,-0.03942 -0.809997,-0.209702 -0.861038,-0.215857 -0.03477,-0.0042 0.538932,0.91248 2.842862,4.542379 2.495871,3.932308 2.888974,4.541794 2.905076,4.504603 z m -3.725102,-8.493965 c 0.03079,-0.08205 1.477316,0.570297 2.395583,1.080359 0.695874,0.386531 1.041755,0.695218 1.38509,1.236151 0.343334,0.540932 0.468486,0.974366 0.501173,1.735703 0.04277,0.996217 -0.03082,2.515819 -0.121202,2.502821 -0.06208,-0.0089 -4.181599,-6.49918 -4.160644,-6.555034 z m 4.164625,5.958578 c 0.07094,-0.847657 0.05716,-2.129697 -0.02755,-2.56391 -0.154833,-0.793641 -0.625353,-1.507737 -1.28531,-1.950679 -0.442139,-0.29675 -1.601492,-0.885205 -2.332543,-1.183931 l -0.396296,-0.161937 2.002113,3.154081 2.002112,3.15408 0.03747,-0.447702 z"
       id="path5898" /></g><g
     inkscape:groupmode="layer"
     id="layer8"
     inkscape:label="2-fill" /><plotdata
     application="axidraw"
     model="4"
     plob_version="n/a"
     layer="-2"
     pause_dist="-25400"
     pause_ref="-25400"
     last_x="3.059002703920122e-14"
     last_y="6.043100048147565e-14"
     rand_seed="1"
     row="0" /></svg>
