<?xml version="1.0" encoding="UTF-8" standalone="no"?>
<!-- Created with Inkscape (http://www.inkscape.org/) -->

<svg
   xml:space="preserve"
   sodipodi:docname="postcard1_NYC_part2.svg"
   width="95mm"
   height="95mm"
   viewBox="0 0 95 95"
   id="svg15158"
   version="1.1"
   inkscape:version="1.2.2 (732a01da63, 2022-12-09)"
   xmlns:inkscape="http://www.inkscape.org/namespaces/inkscape"
   xmlns:sodipodi="http://sodipodi.sourceforge.net/DTD/sodipodi-0.dtd"
   xmlns="http://www.w3.org/2000/svg"
   xmlns:svg="http://www.w3.org/2000/svg"
   xmlns:rdf="http://www.w3.org/1999/02/22-rdf-syntax-ns#"
   xmlns:cc="http://creativecommons.org/ns#"
   xmlns:dc="http://purl.org/dc/elements/1.1/"><sodipodi:namedview
     inkscape:window-maximized="1"
     inkscape:window-y="147"
     inkscape:window-x="2391"
     inkscape:window-height="1001"
     inkscape:window-width="1920"
     showgrid="false"
     id="namedview15162"
     inkscape:current-layer="layer1"
     inkscape:cy="129.04855"
     inkscape:cx="64.381837"
     inkscape:zoom="1.7551534"
     inkscape:pageshadow="2"
     inkscape:pageopacity="0.0"
     borderopacity="1.0"
     bordercolor="#666666"
     pagecolor="#ffffff"
     inkscape:document-units="mm"
     inkscape:showpageshadow="2"
     inkscape:pagecheckerboard="0"
     inkscape:deskcolor="#d1d1d1" /><defs
     id="defs15160"><rect
       x="232.05578"
       y="293.29273"
       width="122.47389"
       height="37.064465"
       id="rect367" /><rect
       x="257.03401"
       y="305.37896"
       width="88.632417"
       height="22.560979"
       id="rect361" /></defs><metadata
     id="metadata15164"><rdf:RDF><cc:Work
         rdf:about=""><dc:format>image/svg+xml</dc:format><dc:type
           rdf:resource="http://purl.org/dc/dcmitype/StillImage" /></cc:Work></rdf:RDF></metadata><g
     id="layer1"
     inkscape:groupmode="layer"
     inkscape:label="1-outline"
     style="display:inline"><path
       id="path4161"
       style="fill:none;stroke:#000000;stroke-width:0.381;stroke-miterlimit:4;stroke-dasharray:none"
       d=""
       inkscape:connector-curvature="0" /><path
       id="path4169"
       style="fill:none;stroke:#000000;stroke-width:0.381;stroke-miterlimit:4;stroke-dasharray:none"
       d=""
       inkscape:connector-curvature="0" /><path
       id="path4177"
       style="fill:none;stroke:#000000;stroke-width:0.381;stroke-miterlimit:4;stroke-dasharray:none"
       d=""
       inkscape:connector-curvature="0" /><path
       id="path4187"
       style="fill:none;stroke:#000000;stroke-width:0.381;stroke-miterlimit:4;stroke-dasharray:none"
       d=""
       inkscape:connector-curvature="0" /><path
       id="path4199"
       style="fill:none;stroke:#000000;stroke-width:0.381;stroke-miterlimit:4;stroke-dasharray:none"
       d=""
       inkscape:connector-curvature="0" /><path
       id="path4215"
       style="fill:none;stroke:#000000;stroke-width:0.381;stroke-miterlimit:4;stroke-dasharray:none"
       d=""
       inkscape:connector-curvature="0" /><path
       id="path4221"
       style="fill:none;stroke:#000000;stroke-width:0.381;stroke-miterlimit:4;stroke-dasharray:none"
       d=""
       inkscape:connector-curvature="0" /><path
       style="fill:#000000;stroke-width:0.055819"
       id="path222"
       d="" /><path
       style="fill:#000000;stroke-width:0.0365404"
       d="m 52.078397,84.667593 c -0.135181,-0.105385 -0.25894,-0.362927 -0.243152,-0.505991 0.0069,-0.06288 0.131107,-0.462543 0.275928,-0.888132 0.293122,-0.861324 0.362497,-1.176602 0.161403,-0.733194 -0.179617,0.396062 -0.279572,0.48047 -0.603454,0.509603 -0.30473,0.02741 -0.673926,-0.173439 -0.781948,-0.425392 -0.03751,-0.08748 -0.02096,-0.193732 0.09978,-0.640571 0.07961,-0.29463 0.141114,-0.542081 0.136665,-0.549892 -0.0044,-0.0078 -0.242814,-0.02507 -0.529708,-0.03836 -0.286894,-0.01329 -0.552788,-0.03416 -0.590875,-0.04637 -0.122248,-0.03922 -0.20674,-0.168366 -0.173443,-0.265099 0.02932,-0.08516 0.943177,-1.283594 1.656192,-2.171916 0.178635,-0.222556 0.6095,-0.76337 0.957478,-1.201812 0.347978,-0.43844 0.867767,-1.092852 1.155088,-1.454248 0.287319,-0.361396 0.656724,-0.827178 0.820898,-1.035071 1.211729,-1.53441 4.20788,-5.254897 4.326591,-5.372568 0.140566,-0.139335 0.261445,-0.09936 0.825223,0.272876 4.067877,2.685853 6.671421,6.659491 7.17703,10.95388 0.02739,0.232631 0.03736,0.459116 0.02215,0.5033 -0.06109,0.177483 -0.04145,0.176473 -2.494595,0.128272 -0.5424,-0.01066 -1.297148,-0.02731 -1.67722,-0.03701 -0.380071,-0.0097 -0.955375,-0.02295 -1.278455,-0.02945 -0.690269,-0.01389 -6.542703,-0.14431 -6.802716,-0.151599 l -0.177843,-0.005 -0.390668,1.125947 c -0.543083,1.565172 -0.739297,2.036022 -0.893332,2.143775 -0.241001,0.168587 -0.70257,0.127967 -0.977003,-0.08598 z m 0.665598,0.0935 c 0.264655,-0.06279 0.308854,-0.11505 0.511107,-0.604277 0.104044,-0.251668 0.367204,-0.970984 0.5848,-1.598481 0.302443,-0.872075 0.409486,-1.144997 0.454428,-1.158285 0.03234,-0.0096 1.284263,0.01258 2.782056,0.04921 4.237775,0.103633 8.051971,0.179495 9.309114,0.185151 0.112473,5.06e-4 0.226093,-0.01639 0.252488,-0.03756 0.09969,-0.07993 -0.09913,-1.404933 -0.355521,-2.36934 -0.362374,-1.363025 -0.863936,-2.500572 -1.690061,-3.83307 -1.266073,-2.042111 -2.748016,-3.581516 -4.863319,-5.051894 -0.62095,-0.431632 -0.747564,-0.499196 -0.844042,-0.450401 -0.08172,0.04133 -1.232655,1.467424 -5.583311,6.918126 -2.532948,3.173396 -3.307493,4.163825 -3.347794,4.280908 -0.0475,0.138008 0.05514,0.170634 0.619008,0.196739 0.284095,0.01316 0.55251,0.03546 0.596477,0.04957 0.09582,0.03074 0.08601,0.105429 -0.09434,0.718565 -0.133033,0.452263 -0.127663,0.530647 0.04841,0.707075 0.134452,0.134723 0.390853,0.21483 0.58562,0.18297 0.231448,-0.03787 0.327231,-0.139241 0.474616,-0.502333 0.110188,-0.27145 0.138577,-0.315246 0.193022,-0.297776 0.176886,0.05675 0.173363,0.08391 -0.138824,1.07004 -0.314598,0.993758 -0.326508,1.073382 -0.190547,1.273858 0.135296,0.199492 0.46229,0.326794 0.696614,0.271196 z m -0.38111,-0.476536 c -0.01151,-0.0463 0.107292,-0.438756 0.319091,-1.054065 l 0.337433,-0.9803 -0.0792,-0.08846 c -0.196663,-0.219669 -0.196304,-0.215824 -0.0577,-0.618494 0.139662,-0.405741 0.135268,-0.454926 -0.04583,-0.513032 -0.144891,-0.04649 -0.512589,-0.03255 -0.571482,0.02167 -0.02577,0.02373 -0.168853,0.375109 -0.317959,0.780851 -0.161749,0.440159 -0.292387,0.748577 -0.323886,0.764644 -0.02903,0.01481 -0.09248,0.0142 -0.141001,-0.0014 -0.04852,-0.01556 -0.09595,-0.05052 -0.105396,-0.07769 -0.0095,-0.02715 0.07566,-0.346735 0.189148,-0.710168 0.265909,-0.851594 0.285224,-0.806684 -0.359012,-0.834636 -0.550355,-0.02388 -0.60843,-0.037 -0.576359,-0.130167 0.02703,-0.07852 0.534557,-0.73691 0.864137,-1.120993 l 0.224319,-0.261415 0.342252,0.122236 c 0.342064,0.12217 0.34235,0.122205 0.523231,0.06315 0.31419,-0.102581 0.44985,-0.305735 0.393006,-0.588538 -0.03692,-0.183667 -0.148785,-0.326311 -0.348148,-0.443922 -0.08007,-0.04724 -0.139806,-0.102685 -0.132739,-0.123215 0.02794,-0.08117 2.992578,-3.805911 4.927217,-6.190501 0.485196,-0.598042 0.841829,-1.008145 0.876643,-1.008079 0.154614,2.94e-4 1.324056,0.953414 2.053365,1.673535 0.563126,0.556032 1.170967,1.234261 1.632033,1.821021 0.509007,0.647772 1.077096,1.48277 1.054151,1.54943 -0.01691,0.04914 -0.0637,0.04481 -0.344139,-0.03179 -0.264933,-0.07237 -0.37588,-0.0847 -0.603858,-0.0671 -0.341968,0.0264 -0.732644,0.185581 -0.961204,0.391641 -0.143038,0.128958 -0.178984,0.189085 -0.268492,0.449122 -0.09376,0.272391 -0.09886,0.323716 -0.05495,0.553526 0.08595,0.449835 0.413287,0.849755 0.892373,1.090265 0.407944,0.204795 0.932962,0.224164 1.379876,0.05091 0.292534,-0.113409 0.507488,-0.293362 0.682419,-0.571303 0.08659,-0.137579 0.148733,-0.201342 0.190123,-0.195082 0.121983,0.01845 0.605697,1.303203 0.774502,2.0571 0.106449,0.475405 0.178207,1.042417 0.144367,1.140728 -0.01644,0.04777 -0.06597,0.06976 -0.162067,0.07192 -0.272323,0.0061 -3.009659,-0.06924 -3.055746,-0.08415 -0.02587,-0.0084 -0.07179,-0.121805 -0.102047,-0.252075 -0.283894,-1.222334 -1.765422,-1.925474 -3.014036,-1.430479 -0.597575,0.2369 -0.972418,0.702197 -1.032452,1.281598 -0.0214,0.206546 -0.04183,0.277198 -0.08515,0.294582 -0.07818,0.03137 -2.89179,-0.03431 -2.960369,-0.06911 -0.04639,-0.02353 -0.02499,-0.124869 0.136201,-0.644864 0.186982,-0.60323 0.189681,-0.618952 0.121233,-0.707368 -0.06161,-0.07958 -0.08143,-0.08822 -0.165309,-0.07208 -0.08588,0.01653 -0.111562,0.05785 -0.259643,0.417708 -0.09039,0.21965 -0.46825,1.275984 -0.839699,2.347409 -0.409066,1.17996 -0.700991,1.975316 -0.740371,2.017206 -0.05264,0.056 -0.09027,0.06105 -0.197777,0.02656 -0.09232,-0.02962 -0.138357,-0.06507 -0.151113,-0.116364 z m 1.001502,-2.032236 c 0.882026,-2.515869 0.966909,-2.731259 1.087608,-2.759744 0.143779,-0.03393 0.319211,0.04062 0.391962,0.166575 0.06234,0.107917 0.05879,0.127958 -0.123065,0.697478 -0.102987,0.322501 -0.184561,0.587113 -0.181283,0.588024 0.0033,9.47e-4 0.637615,0.01692 1.409635,0.03556 1.215921,0.02936 1.404637,0.02541 1.410883,-0.0296 0.004,-0.03492 0.05591,-0.233048 0.115446,-0.440279 0.09201,-0.320314 0.131151,-0.40528 0.261134,-0.566902 0.592539,-0.736762 1.901181,-0.917817 2.846508,-0.393821 0.480245,0.2662 0.914266,0.781997 1.055597,1.254486 0.04032,0.13482 0.07403,0.259174 0.0749,0.276341 0.0012,0.02401 2.26435,0.09473 2.930044,0.09155 0.14814,-7.11e-4 0.151194,-0.02567 0.06807,-0.556667 -0.101515,-0.648467 -0.452468,-1.807009 -0.706925,-2.33365 l -0.05877,-0.121641 -0.145406,0.205933 c -0.434559,0.61545 -1.384037,0.813808 -2.144192,0.44795 -0.331544,-0.159571 -0.581529,-0.379584 -0.762054,-0.670688 -0.549914,-0.886756 -0.0052,-1.879284 1.092693,-1.990995 0.262023,-0.02666 0.59021,0.002 0.802249,0.07001 0.112771,0.03618 0.110576,0.02962 -0.08946,-0.267781 -0.63764,-0.947965 -1.269743,-1.727712 -2.073577,-2.557914 -0.713717,-0.737128 -1.16731,-1.145657 -1.867563,-1.682019 -0.295701,-0.226494 -0.42857,-0.311113 -0.455222,-0.289914 -0.0807,0.06418 -3.683444,4.535501 -5.003541,6.20982 -0.334001,0.423624 -0.623344,0.790132 -0.642984,0.814462 -0.02603,0.03225 0.0027,0.06816 0.10598,0.132522 0.272669,0.169898 0.411231,0.515919 0.317002,0.791625 -0.0582,0.170308 -0.320688,0.359225 -0.542998,0.39082 -0.182973,0.02601 -0.221429,0.01931 -0.476645,-0.08297 l -0.277615,-0.111252 -0.09371,0.09276 c -0.09744,0.09645 -0.90858,1.114064 -0.924209,1.159468 -0.0049,0.01422 0.193552,0.03445 0.440995,0.04494 0.507478,0.02153 0.634775,0.06594 0.655479,0.228685 0.007,0.05478 -0.07451,0.386184 -0.18106,0.736462 -0.325478,1.069992 -0.108028,0.800303 0.297709,-0.369228 0.17893,-0.515691 0.218394,-0.557188 0.534542,-0.561624 0.296961,-0.0041 0.501363,0.05785 0.573372,0.173963 0.04826,0.07783 0.03983,0.129758 -0.07546,0.464707 l -0.129798,0.377086 0.09947,0.109933 c 0.182263,0.201438 0.18859,0.157871 -0.177244,1.220679 -0.249816,0.725758 -0.329824,0.996984 -0.305613,1.036025 0.09413,0.151781 0.137113,0.05108 0.867126,-2.031182 z m 1.772566,-1.744738 c -0.08574,-0.138258 -0.08259,-0.185251 0.01971,-0.294083 0.0827,-0.08798 0.333181,-0.09945 0.477646,-0.02187 0.135249,0.07263 0.179888,0.24952 0.097,0.38438 -0.121715,0.198041 -0.452745,0.159928 -0.594359,-0.06843 z m 0.489441,0.02006 c 0.08955,-0.125103 -0.01161,-0.281602 -0.194403,-0.300769 -0.133695,-0.01402 -0.247105,0.09 -0.219437,0.201259 0.04281,0.172134 0.31501,0.237586 0.41384,0.09951 z m -0.552576,-1.56598 c -0.406231,-0.279393 -0.625031,-0.775036 -0.533865,-1.209353 0.118581,-0.564917 0.785028,-0.961629 1.459781,-0.868957 0.45381,0.06233 0.9321,0.359569 1.142544,0.71006 0.145051,0.241578 0.188677,0.468906 0.14555,0.758423 -0.02921,0.196066 -0.05596,0.260929 -0.169182,0.410184 -0.177446,0.233916 -0.415617,0.390092 -0.697563,0.457414 -0.319925,0.07639 -0.485172,0.06479 -0.879595,-0.06177 -0.188332,-0.06043 -0.398783,-0.148631 -0.46767,-0.196005 z m 1.103554,0.195573 c 0.273171,-0.03652 0.561826,-0.163387 0.736769,-0.32383 0.204364,-0.187426 0.320072,-0.558747 0.261709,-0.839864 -0.05627,-0.271039 -0.267588,-0.579936 -0.505343,-0.73869 -0.265213,-0.177087 -0.697692,-0.307695 -0.940296,-0.28397 -0.288222,0.02819 -0.592552,0.15045 -0.776257,0.311856 -0.217202,0.190837 -0.355418,0.557437 -0.310014,0.82227 0.03915,0.22836 0.191587,0.497131 0.388416,0.684847 0.147727,0.140886 0.190918,0.162855 0.541013,0.275183 0.350096,0.11233 0.398315,0.119693 0.604,0.0922 z M 55.42726,78.658379 c -0.645201,-0.420888 -0.438884,-1.273253 0.323165,-1.335106 0.509384,-0.04135 0.957539,0.273717 1.034849,0.727529 0.106581,0.625626 -0.745766,1.006968 -1.358014,0.607577 z m 0.606482,0.05147 c 0.276287,-0.01608 0.49945,-0.148397 0.597884,-0.354491 0.05849,-0.122449 0.06189,-0.183727 0.0194,-0.349067 -0.07056,-0.274557 -0.221132,-0.431228 -0.503045,-0.523422 -0.436369,-0.142692 -0.819776,-0.0068 -0.943454,0.334395 -0.05125,0.141381 -0.05394,0.217812 -0.01262,0.358051 0.106145,0.360273 0.419323,0.559128 0.841841,0.534534 z m 7.49193,1.889503 c -0.192914,-0.19329 -0.136094,-0.488496 0.116997,-0.607857 0.255919,-0.120694 0.538413,-0.03651 0.688248,0.205103 0.07079,0.114151 0.07358,0.154075 0.02134,0.305836 -0.05382,0.156367 -0.07741,0.181416 -0.226427,0.240492 -0.13829,0.05482 -0.194253,0.05697 -0.33181,0.01272 -0.0982,-0.03158 -0.207285,-0.09512 -0.268344,-0.156301 z m 0.502195,0.06399 c 0.248976,-0.07116 0.316595,-0.262624 0.164779,-0.466512 -0.2573,-0.345516 -0.821913,-0.07424 -0.597765,0.287201 0.09247,0.149119 0.274669,0.224571 0.433005,0.17932 z m -5.137717,-3.2198 c -0.09119,-0.0833 -0.11645,-0.289977 -0.04588,-0.375343 0.09051,-0.109479 0.169097,-0.157154 0.267326,-0.16216 0.305178,-0.01555 0.53203,0.21484 0.449009,0.456029 -0.08708,0.252976 -0.436263,0.295409 -0.670455,0.08147 z m 0.416739,0.02136 c 0.230627,-0.07173 0.199,-0.366045 -0.04785,-0.445246 -0.07501,-0.02407 -0.146489,-0.01681 -0.218898,0.02224 -0.137844,0.07432 -0.166783,0.162209 -0.09456,0.287281 0.06868,0.118975 0.225647,0.177942 0.361328,0.135741 z m -1.878487,-1.031037 c -0.165377,-0.148102 -0.362289,-0.512618 -0.397304,-0.735476 -0.0784,-0.498965 0.08133,-1.069833 0.408043,-1.458359 0.497942,-0.592151 1.221548,-0.707978 1.718183,-0.275027 0.162498,0.141661 0.367033,0.503485 0.389029,0.688198 l 0.01764,0.14813 0.656561,0.210658 c 0.606614,0.194634 0.662466,0.218104 0.734263,0.308324 l 0.0777,0.09766 -0.204212,0.593269 c -0.26452,0.768473 -0.177498,0.731868 -1.083516,0.45577 l -0.677894,-0.206583 -0.130847,0.114401 c -0.176967,0.154725 -0.498683,0.292001 -0.721609,0.307912 -0.240749,0.01718 -0.624684,-0.104382 -0.786035,-0.248895 z m 0.791275,0.148639 c 0.199122,-0.01788 0.459169,-0.133597 0.650091,-0.289275 l 0.14333,-0.116872 0.655629,0.197256 c 0.544809,0.163914 0.676128,0.193399 0.776896,0.174437 l 0.121265,-0.02282 0.184429,-0.535797 0.184429,-0.535796 -0.08354,-0.08903 c -0.06992,-0.07451 -0.188899,-0.124714 -0.729871,-0.307959 l -0.64633,-0.218929 -0.04931,-0.207217 c -0.08692,-0.365225 -0.376973,-0.696048 -0.701601,-0.800205 -0.170823,-0.05481 -0.461056,-0.01615 -0.700235,0.09329 -0.430788,0.197094 -0.790099,0.694695 -0.866366,1.199806 -0.05399,0.35755 -0.02746,0.611969 0.09014,0.864697 0.200798,0.431516 0.531418,0.633901 0.971052,0.594418 z m -0.429139,-0.445832 c -0.115746,-0.09732 -0.230076,-0.330198 -0.271277,-0.552564 -0.01887,-0.10182 0.0104,-0.231599 0.132838,-0.589061 0.177884,-0.519412 0.260722,-0.626634 0.604828,-0.783086 0.406998,-0.18505 0.700476,0.02637 0.794122,0.572077 0.02333,0.135959 0.06019,0.265904 0.08191,0.288766 0.02172,0.02286 0.319542,0.139316 0.661825,0.258793 l 0.622338,0.217222 -0.103343,0.300231 -0.103344,0.300229 -0.658703,-0.193802 c -0.362286,-0.106591 -0.6695,-0.189363 -0.682694,-0.183949 -0.01319,0.0054 -0.09806,0.08003 -0.188586,0.165797 -0.356861,0.338111 -0.64745,0.403204 -0.889911,0.199344 z m 0.380215,-0.0021 c 0.108439,-0.02136 0.22795,-0.09462 0.403975,-0.247639 l 0.249976,-0.217306 0.210776,0.04477 c 0.115926,0.02463 0.412433,0.107919 0.658904,0.185091 l 0.448135,0.140292 0.07452,-0.216501 0.07452,-0.216503 -0.604055,-0.21334 c -0.401566,-0.141822 -0.618783,-0.232846 -0.647993,-0.271537 -0.02417,-0.03201 -0.06953,-0.18342 -0.100801,-0.336469 -0.05859,-0.286703 -0.181362,-0.488539 -0.32526,-0.534709 -0.117065,-0.03756 -0.328141,0.03981 -0.519037,0.190272 -0.154556,0.121814 -0.181228,0.164999 -0.317136,0.513472 -0.122818,0.314918 -0.146048,0.413222 -0.134841,0.570529 0.01431,0.200753 0.210977,0.587477 0.315884,0.621136 0.03214,0.01031 0.127738,0.0051 0.212436,-0.01158 z m -0.08821,4.913994 c -0.01639,-0.03305 -0.003,-0.16894 0.0297,-0.301973 0.226517,-0.920886 1.440117,-1.211814 2.355184,-0.564592 0.233362,0.165055 0.464214,0.510344 0.515908,0.771651 0.03038,0.153553 0.02564,0.184962 -0.03107,0.20617 -0.07341,0.02745 -2.733181,-0.01692 -2.827452,-0.04717 -0.0068,-0.0022 -0.02586,-0.03104 -0.04226,-0.06409 z m 1.229613,0.01025 c 0.60575,0.01311 1.210232,0.0244 1.343291,0.02508 l 0.241927,0.0012 -0.03177,-0.140852 c -0.04867,-0.215801 -0.236123,-0.498807 -0.442536,-0.668109 -0.251241,-0.206072 -0.726374,-0.365503 -1.03904,-0.348651 -0.536581,0.02892 -0.927851,0.270516 -1.101196,0.679955 -0.09294,0.219524 -0.133079,0.407914 -0.08986,0.42178 0.0098,0.0031 0.51343,0.01645 1.11918,0.02956 z m 6.005076,0.159432 c -0.0048,-0.01603 -0.03255,-0.218373 -0.06155,-0.449645 -0.303162,-2.417643 -2.146458,-5.603971 -4.66963,-8.071939 -0.453061,-0.443149 -0.964554,-0.886031 -1.55452,-1.345996 -0.396644,-0.309242 -0.464383,-0.375552 -0.453263,-0.443699 0.0176,-0.107871 0.347336,-0.546056 0.429273,-0.57046 0.12758,-0.038 1.548172,0.998864 2.307235,1.684006 1.205422,1.088034 2.086499,2.141707 2.935002,3.50995 0.914858,1.475242 1.438369,2.736872 1.762961,4.248632 0.153909,0.71681 0.259074,1.446042 0.215223,1.492373 -0.01907,0.02015 -0.187456,0.03656 -0.374188,0.03648 -0.332223,-1.58e-4 -0.518877,-0.03136 -0.536538,-0.0897 z m 0.47279,-0.01671 c 0.156953,0.0012 0.300684,-0.004 0.319402,-0.01157 0.06513,-0.0262 -0.146309,-1.228064 -0.344841,-1.960109 -0.169573,-0.625269 -0.241217,-0.842661 -0.463214,-1.405546 -0.964772,-2.446227 -2.759557,-4.781609 -5.006878,-6.514968 -0.411387,-0.317302 -1.219744,-0.886551 -1.244822,-0.876608 -0.02811,0.01114 -0.334922,0.426698 -0.351166,0.475631 -0.01034,0.03114 0.10002,0.13434 0.311618,0.291417 0.966475,0.717454 2.136859,1.838578 3.023124,2.895885 0.964223,1.150309 1.907528,2.633312 2.557392,4.020564 0.362576,0.773982 0.719448,1.993769 0.785013,2.68317 0.02788,0.293145 0.04722,0.373782 0.09316,0.388524 0.01971,0.0063 0.164257,0.01245 0.32121,0.01361 z m -4.131301,-2.89291 c -0.199927,-0.129573 -0.394623,-0.40727 -0.446748,-0.637199 -0.09651,-0.425715 0.160267,-0.86975 0.587253,-1.01552 0.297649,-0.101615 0.499689,-0.09814 0.851235,0.01466 0.365058,0.117129 0.528155,0.235201 0.69375,0.502229 0.155434,0.250644 0.187275,0.478134 0.102793,0.734419 -0.119073,0.361316 -0.442459,0.593252 -0.876999,0.629076 -0.226057,0.01864 -0.306209,0.0085 -0.534582,-0.06786 -0.147752,-0.0494 -0.317275,-0.121294 -0.376702,-0.159808 z m 0.845412,0.134928 c 0.22266,-0.01366 0.512522,-0.134699 0.654135,-0.27315 0.122775,-0.120037 0.22506,-0.397909 0.214375,-0.582392 -0.0091,-0.157333 -0.165659,-0.458417 -0.31929,-0.614085 -0.128607,-0.130312 -0.48195,-0.280385 -0.707549,-0.300512 -0.244915,-0.02185 -0.604524,0.08689 -0.774963,0.234341 -0.193874,0.167722 -0.309902,0.496942 -0.25506,0.723725 0.04606,0.190481 0.265484,0.5085 0.41338,0.599123 0.204998,0.12561 0.568861,0.225598 0.774977,0.212954 z"
       id="path5812" /></g><g
     inkscape:groupmode="layer"
     id="layer8"
     inkscape:label="2-fill" /><plotdata
     application="axidraw"
     model="4"
     plob_version="n/a"
     layer="-2"
     pause_dist="-25400"
     pause_ref="-25400"
     last_x="3.3266792098807226e-15"
     last_y="-1.4020520855417826e-13"
     rand_seed="1"
     row="0" /></svg>
