<?xml version="1.0" encoding="UTF-8" standalone="no"?>
<!-- Created with Inkscape (http://www.inkscape.org/) -->

<svg
   xml:space="preserve"
   sodipodi:docname="postcard_hall_part1.svg"
   width="95mm"
   height="95mm"
   viewBox="0 0 95 95"
   id="svg15158"
   version="1.1"
   inkscape:version="1.2.2 (732a01da63, 2022-12-09)"
   xmlns:inkscape="http://www.inkscape.org/namespaces/inkscape"
   xmlns:sodipodi="http://sodipodi.sourceforge.net/DTD/sodipodi-0.dtd"
   xmlns="http://www.w3.org/2000/svg"
   xmlns:svg="http://www.w3.org/2000/svg"
   xmlns:rdf="http://www.w3.org/1999/02/22-rdf-syntax-ns#"
   xmlns:cc="http://creativecommons.org/ns#"
   xmlns:dc="http://purl.org/dc/elements/1.1/"><sodipodi:namedview
     inkscape:window-maximized="1"
     inkscape:window-y="147"
     inkscape:window-x="2391"
     inkscape:window-height="1001"
     inkscape:window-width="1920"
     showgrid="false"
     id="namedview15162"
     inkscape:current-layer="layer1"
     inkscape:cy="100.13369"
     inkscape:cx="152.6932"
     inkscape:zoom="3.5103069"
     inkscape:pageshadow="2"
     inkscape:pageopacity="0.0"
     borderopacity="1.0"
     bordercolor="#666666"
     pagecolor="#ffffff"
     inkscape:document-units="mm"
     inkscape:showpageshadow="2"
     inkscape:pagecheckerboard="0"
     inkscape:deskcolor="#d1d1d1" /><defs
     id="defs15160"><rect
       x="232.05578"
       y="293.29273"
       width="122.47389"
       height="37.064465"
       id="rect367" /><rect
       x="257.03401"
       y="305.37896"
       width="88.632417"
       height="22.560979"
       id="rect361" /></defs><metadata
     id="metadata15164"><rdf:RDF><cc:Work
         rdf:about=""><dc:format>image/svg+xml</dc:format><dc:type
           rdf:resource="http://purl.org/dc/dcmitype/StillImage" /></cc:Work></rdf:RDF></metadata><g
     id="layer1"
     inkscape:groupmode="layer"
     inkscape:label="1-outline"
     style="display:inline"><path
       id="path4161"
       style="fill:none;stroke:#000000;stroke-width:0.381;stroke-miterlimit:4;stroke-dasharray:none"
       d=""
       inkscape:connector-curvature="0" /><path
       id="path4169"
       style="fill:none;stroke:#000000;stroke-width:0.381;stroke-miterlimit:4;stroke-dasharray:none"
       d=""
       inkscape:connector-curvature="0" /><path
       id="path4177"
       style="fill:none;stroke:#000000;stroke-width:0.381;stroke-miterlimit:4;stroke-dasharray:none"
       d=""
       inkscape:connector-curvature="0" /><path
       id="path4187"
       style="fill:none;stroke:#000000;stroke-width:0.381;stroke-miterlimit:4;stroke-dasharray:none"
       d=""
       inkscape:connector-curvature="0" /><path
       id="path4199"
       style="fill:none;stroke:#000000;stroke-width:0.381;stroke-miterlimit:4;stroke-dasharray:none"
       d=""
       inkscape:connector-curvature="0" /><path
       id="path4215"
       style="fill:none;stroke:#000000;stroke-width:0.381;stroke-miterlimit:4;stroke-dasharray:none"
       d=""
       inkscape:connector-curvature="0" /><path
       id="path4221"
       style="fill:none;stroke:#000000;stroke-width:0.381;stroke-miterlimit:4;stroke-dasharray:none"
       d=""
       inkscape:connector-curvature="0" /><path
       style="fill:#000000;stroke-width:0.055819"
       id="path222"
       d="" /><path
       style="fill:#000000;stroke-width:0.0691992"
       id="path5986"
       d="" /><path
       style="fill:#000000;stroke-width:0.036772"
       d="m 65.076319,33.97625 c -0.100512,-0.09894 -0.122544,-0.145944 -0.114075,-0.24335 0.009,-0.103975 0.02976,-0.126856 0.149408,-0.164936 0.0764,-0.02432 0.273681,-0.06392 0.438396,-0.08801 0.511988,-0.07488 0.844031,-0.239942 0.951537,-0.473026 0.02851,-0.06182 0.06848,-0.248794 0.08881,-0.415494 0.02033,-0.166699 0.06122,-0.401836 0.09084,-0.522527 0.03343,-0.13618 0.04841,-0.315456 0.0395,-0.472508 -0.01281,-0.225446 -0.0329,-0.28404 -0.184157,-0.536791 -0.09338,-0.156047 -0.337367,-0.653028 -0.542189,-1.104405 -0.317552,-0.699803 -0.409131,-0.946858 -0.621741,-1.677281 -0.137136,-0.471126 -0.2962,-1.014286 -0.353478,-1.20702 -0.202598,-0.681722 -0.245537,-0.913183 -0.229335,-1.236222 0.01287,-0.256561 0.0069,-0.301761 -0.0399,-0.301788 -0.12831,-7.8e-5 -0.837695,-0.08109 -1.054567,-0.120436 l -0.235512,-0.04273 -0.237927,0.161177 c -0.41492,0.281074 -0.639914,0.255672 -0.873347,-0.09861 -0.07629,-0.115782 -0.181244,-0.24003 -0.233233,-0.276108 -0.05199,-0.03607 -0.141409,-0.112123 -0.198711,-0.168988 -0.0573,-0.05687 -0.192692,-0.14014 -0.300868,-0.185053 -0.367441,-0.15256 -0.739983,-0.479489 -0.868679,-0.762321 -0.09497,-0.208704 -0.362667,-0.522462 -0.524978,-0.615299 -0.223251,-0.127694 -0.423785,-0.133249 -0.719461,-0.01993 -0.588442,0.225521 -1.517711,0.414525 -2.03992,0.414898 l -0.321236,2.29e-4 0.0026,-0.14601 c 0.0016,-0.0906 0.0642,-0.286402 0.16496,-0.515904 l 0.162392,-0.369893 0.295191,-0.0278 c 0.588644,-0.05544 0.946096,-0.116358 1.242805,-0.211799 0.397668,-0.127917 1.07448,-0.167366 1.370509,-0.07988 0.311039,0.09192 0.493733,0.233757 0.689224,0.535098 0.301256,0.464375 0.607741,0.699386 0.912086,0.699386 0.133887,0 0.367563,-0.09797 1.265302,-0.530493 0.605598,-0.291772 1.218296,-0.596781 1.36155,-0.677796 0.359344,-0.203221 0.703216,-0.483407 0.983178,-0.801089 0.272738,-0.309484 0.426623,-0.575397 0.573923,-0.991734 0.180201,-0.509329 0.528991,-1.21526 0.901728,-1.82505 l 0.224927,-0.367975 -0.02,-0.396013 c -0.01921,-0.380338 0.01741,-1.058654 0.06459,-1.196515 0.01884,-0.05505 2.43e-4,-0.06624 -0.111325,-0.06695 -0.213244,-0.0014 -0.42274,-0.128211 -0.484226,-0.2932 -0.07991,-0.214403 -0.03498,-0.461752 0.110892,-0.610575 0.127964,-0.130553 0.256752,-0.395817 0.256752,-0.528833 0,-0.113895 -0.08217,-0.110185 -0.364311,0.01645 -0.309479,0.138905 -0.345518,0.117181 -0.314827,-0.189779 0.04187,-0.418813 0.208649,-0.747402 0.489173,-0.963794 l 0.155236,-0.119746 v -0.263941 -0.263953 l -0.224624,-0.0464 c -0.358305,-0.07403 -0.838736,-0.263088 -1.256208,-0.494364 -0.338072,-0.187289 -0.420071,-0.253287 -0.650129,-0.523262 -0.258524,-0.303381 -0.329004,-0.443985 -0.28581,-0.570185 0.02754,-0.08045 0.193813,-0.05541 0.387634,0.05836 0.581139,0.341123 0.609073,0.347476 1.576413,0.358473 l 0.743748,0.0084 0.04378,-0.112854 c 0.02408,-0.06207 0.139636,-0.366913 0.25679,-0.677429 0.448381,-1.188435 0.871417,-1.9847698 1.352133,-2.5452934 0.517067,-0.6029094 0.99746,-0.9233566 1.372799,-0.9157269 0.200821,0.00407 0.203337,0.00542 0.06945,0.0355 -0.753525,0.1695735 -1.544424,0.9550737 -2.120691,2.1062173 -0.220917,0.4413 -0.601338,1.352455 -0.782428,1.874007 l -0.118244,0.340549 -0.683371,1.56e-4 c -1.023743,1.95e-4 -1.191829,-0.03681 -1.764975,-0.388721 -0.06685,-0.04105 -0.157261,-0.07547 -0.200909,-0.07651 -0.06972,-0.0017 -0.07466,0.0079 -0.04074,0.07904 0.02124,0.0445 0.145522,0.207084 0.276181,0.361299 0.180108,0.212581 0.311747,0.324058 0.544302,0.460936 0.350522,0.206313 0.873876,0.418583 1.279131,0.51881 0.152804,0.03779 0.289307,0.08811 0.303341,0.111838 0.01403,0.02371 0.02575,0.175689 0.02604,0.33771 l 5.32e-4,0.294586 -0.135663,0.08548 c -0.27394,0.172618 -0.47348,0.525453 -0.51398,0.908841 -0.01977,0.187166 -0.01663,0.199031 0.04505,0.170251 0.195787,-0.09135 0.448157,-0.162348 0.521337,-0.146663 0.07291,0.01562 0.08325,0.03924 0.08325,0.190068 0,0.206784 -0.09662,0.433789 -0.243683,0.572529 -0.115112,0.108597 -0.164012,0.294224 -0.124271,0.471751 0.03455,0.154352 0.210681,0.253675 0.450141,0.253845 l 0.203736,1.56e-4 -0.02037,0.107074 c -0.07878,0.414256 -0.09891,0.705772 -0.08215,1.190153 l 0.0186,0.537974 -0.191629,0.299153 c -0.31537,0.492327 -0.88483,1.644674 -0.965584,1.95394 -0.03212,0.12303 -0.197746,0.466687 -0.30214,0.626925 -0.25109,0.385412 -0.817064,0.890082 -1.297478,1.156943 -0.557895,0.309899 -2.429092,1.187089 -2.570343,1.204939 -0.335141,0.04235 -0.714262,-0.21686 -1.040454,-0.71138 -0.22564,-0.342079 -0.392597,-0.46443 -0.750207,-0.549772 -0.333619,-0.07961 -0.703564,-0.04925 -1.220479,0.100179 -0.231493,0.06692 -0.582691,0.132624 -0.844386,0.15797 -0.710325,0.0688 -0.649937,0.03332 -0.847908,0.498118 -0.141967,0.333312 -0.161635,0.404753 -0.116744,0.424066 0.200116,0.0861 1.610889,-0.179234 2.208741,-0.415407 0.549365,-0.217018 1.047658,0.0073 1.35199,0.608654 0.180644,0.356942 0.555387,0.676404 0.969947,0.826864 0.06848,0.02485 0.169073,0.09734 0.223549,0.161096 0.05448,0.06375 0.118474,0.115908 0.142218,0.115908 0.02375,0 0.102863,0.08104 0.175827,0.180088 0.281979,0.382807 0.306681,0.403953 0.471881,0.403953 0.121646,0 0.199799,-0.03383 0.376002,-0.162789 0.246929,-0.180716 0.316899,-0.192249 0.708631,-0.116809 0.133705,0.02575 0.426724,0.06123 0.651153,0.07884 0.22443,0.01761 0.419186,0.0445 0.43279,0.05976 0.01361,0.01526 0.0061,0.06122 -0.01671,0.102129 -0.126091,0.226368 -0.09005,0.52776 0.1723,1.440567 0.505077,1.757394 0.603158,2.060106 0.845101,2.608288 0.2873,0.650952 0.58035,1.247185 0.70264,1.429582 0.173731,0.25912 0.227179,0.677217 0.128309,1.003714 -0.02953,0.09751 -0.06773,0.315385 -0.0849,0.48417 -0.05205,0.511668 -0.158481,0.714595 -0.448039,0.854251 -0.183342,0.0884 -0.803256,0.239114 -0.983643,0.239114 -0.147916,0 -0.247366,0.07606 -0.21668,0.165718 0.04718,0.137846 0.241965,0.22505 0.5774,0.2585 l 0.323982,0.03231 -0.372121,0.0053 c -0.370715,0.0053 -0.372593,0.0049 -0.496692,-0.117273 z m 1.484555,0.08156 c 0.335154,-0.03339 0.352591,-0.04219 1.125135,-0.567862 0.231661,-0.157631 0.43154,-0.286601 0.444177,-0.286601 0.01263,0 0.08244,0.07008 0.155121,0.155744 0.14433,0.170107 0.233716,0.192424 0.349544,0.08727 0.109557,-0.09946 0.161265,-0.572565 0.110639,-1.01227 -0.05728,-0.49747 -0.153375,-0.693161 -0.556538,-1.133317 -0.336487,-0.367363 -0.348774,-0.387161 -0.589022,-0.949236 -0.134952,-0.315727 -0.275649,-0.683966 -0.31266,-0.818312 -0.08657,-0.314258 -0.130078,-0.749592 -0.07848,-0.785345 0.02089,-0.01447 0.245199,0.08646 0.498468,0.224279 0.603238,0.32828 1.103811,0.542382 1.668132,0.713484 0.585239,0.177444 0.869174,0.341594 1.127917,0.652078 0.324346,0.389207 0.564252,0.978836 0.564252,1.386794 0,0.332427 -0.124264,0.573406 -0.514546,0.997834 -0.187445,0.203845 -0.317349,0.374502 -0.303792,0.399096 0.0296,0.05369 0.196992,0.05492 0.440057,0.0032 0.634231,-0.134853 1.375221,-1.26778 1.495618,-2.286704 0.03169,-0.26818 0.04833,-0.321223 0.100728,-0.321223 0.03453,0 0.07243,0.01752 0.08424,0.03893 0.01181,0.02141 0.08104,0.03893 0.15386,0.03893 0.104509,0 0.164338,-0.03178 0.284025,-0.150861 l 0.151628,-0.150849 -0.195117,-0.215291 c -0.107315,-0.118411 -0.265924,-0.326483 -0.352467,-0.462384 -0.273759,-0.429898 -0.454926,-0.539115 -0.894274,-0.539115 -0.183641,0 -0.465249,-0.03376 -0.667926,-0.08006 -0.332814,-0.07604 -0.407244,-0.11395 -1.481408,-0.75452 -0.997805,-0.595034 -1.130989,-0.68533 -1.130989,-0.766797 0,-0.0801 0.01842,-0.09367 0.138913,-0.10238 0.360314,-0.02603 0.760554,-0.103474 1.265627,-0.244872 0.623784,-0.174633 0.729179,-0.165902 0.730719,0.06054 8.41e-4,0.123432 0.161424,0.436976 0.418612,0.817349 0.229385,0.339251 0.658497,0.849128 0.658497,0.782435 0,-0.01803 -0.07032,-0.162656 -0.156277,-0.321386 -0.156539,-0.289081 -0.174114,-0.373816 -0.133987,-0.645996 0.02846,-0.193069 0.09706,-0.18605 0.190253,0.01947 0.128813,0.284053 0.56442,0.731184 0.898762,0.922537 0.162356,0.09292 0.495772,0.307901 0.740927,0.477734 0.245155,0.169833 0.510826,0.340667 0.590381,0.379633 0.125692,0.06156 0.339732,0.222569 0.735026,0.552912 l 0.104185,0.08707 -0.06881,-0.09539 c -0.03785,-0.05247 -0.401526,-0.463342 -0.808175,-0.913054 -0.679897,-0.751897 -0.825466,-0.953935 -0.687313,-0.953935 0.17764,0 1.083126,0.787137 1.632839,1.419425 0.330434,0.380069 0.684182,0.575929 1.304642,0.722343 0.571663,0.1349 1.114225,0.412806 1.780347,0.911912 l 0.09744,0.073 -0.07641,-0.145194 c -0.219312,-0.416743 -0.73578,-0.871041 -1.305296,-1.14817 -1.040146,-0.506142 -1.540079,-0.823904 -1.848835,-1.17514 -0.337485,-0.383917 -0.494821,-0.713901 -0.541926,-1.136588 -0.02986,-0.267961 -0.0268,-0.268932 0.382591,-0.121181 0.544088,0.196366 1.298289,0.367857 2.221456,0.505116 0.51508,0.07658 0.94875,0.147724 0.963711,0.158091 0.01496,0.01032 0.0272,0.05285 0.0272,0.09442 0,0.06214 -0.02455,0.07558 -0.138021,0.07558 -0.117662,0 -0.145824,0.01692 -0.190914,0.114673 -0.04994,0.108288 -0.0486,0.118045 0.0242,0.175213 0.0424,0.0333 0.0933,0.06054 0.113103,0.06054 0.0198,0 0.0553,0.03462 0.07888,0.07695 0.0533,0.09568 0.156871,0.07866 0.541687,-0.08904 0.220893,-0.09627 0.283521,-0.109945 0.329918,-0.07205 0.137249,0.112098 0.294787,0.162018 0.511306,0.162018 0.201309,0 0.246576,0.01417 0.357081,0.111785 0.294735,0.260356 0.80911,0.46975 1.158439,0.471581 0.11698,6.15e-4 0.162132,0.03787 0.486196,0.401158 0.196482,0.220265 0.547237,0.561615 0.779456,0.758556 0.639521,0.542366 1.45522,1.128459 1.611827,1.158124 0.166295,0.03149 0.218679,0.0017 0.171298,-0.0976 -0.07568,-0.158548 -0.04756,-0.182771 0.237672,-0.20469 0.255322,-0.01962 0.512986,-0.114831 0.478445,-0.176792 -0.0085,-0.01514 -0.157097,-0.132672 -0.330338,-0.261161 -0.286766,-0.212688 -0.315047,-0.244746 -0.315699,-0.357861 -3.92e-4,-0.06833 0.01131,-0.132579 0.02601,-0.142765 0.0147,-0.01022 0.157121,0.02382 0.316489,0.07558 0.286588,0.09307 0.663903,0.126706 0.663903,0.05919 0,-0.0192 -0.0547,-0.08875 -0.12155,-0.154555 -0.144607,-0.142351 -0.149238,-0.173259 -0.03473,-0.231755 0.09776,-0.04994 0.114569,-0.142559 0.03229,-0.177958 -0.03271,-0.01407 -0.05008,-0.05859 -0.04341,-0.111241 0.01,-0.07891 0.02739,-0.08648 0.172292,-0.0749 0.0888,0.0071 0.171386,-0.0056 0.183913,-0.02837 0.0125,-0.02268 -0.01314,-0.09567 -0.05698,-0.162191 -0.0649,-0.09845 -0.07998,-0.171809 -0.08111,-0.394466 -0.0015,-0.30532 -0.0356,-0.360476 -0.250523,-0.405681 -0.141684,-0.02981 -0.184977,-0.12199 -0.09234,-0.196629 0.150567,-0.121314 0.185586,-0.169427 0.165671,-0.227613 -0.04145,-0.121107 -0.207517,-0.174699 -0.557679,-0.179973 -0.242019,-0.0037 -0.305215,-0.01341 -0.218777,-0.03381 l 0.12155,-0.02869 -0.12155,-0.0095 c -0.112712,-0.0088 -0.108926,-0.01198 0.0521,-0.04396 0.09551,-0.01896 0.382858,-0.09 0.638568,-0.157863 0.64635,-0.171536 0.772268,-0.308249 0.468004,-0.508133 -0.09017,-0.05924 -0.15418,-0.06278 -0.569351,-0.03155 l -0.467764,0.03519 -0.07885,-0.11187 c -0.188885,-0.267942 -0.841835,-0.22502 -2.161685,0.14215 l -0.504104,0.140237 -0.133803,-0.101806 C 80.473169,27.49384 80.051039,27.435969 79.54381,27.534996 l -0.327372,0.06392 -0.124096,-0.132313 c -0.154885,-0.165148 -0.250345,-0.192744 -0.475245,-0.137391 l -0.177507,0.04369 -0.147497,-0.179404 c -0.255266,-0.310485 -0.70492,-0.493269 -0.886075,-0.36019 -0.06873,0.05048 -0.08737,0.09673 -0.08737,0.216729 0,0.0839 0.01563,0.163378 0.03473,0.176613 0.05665,0.03924 0.0396,0.197143 -0.02878,0.266518 -0.03493,0.03545 -0.109162,0.06437 -0.16496,0.06428 -0.170862,-2.72e-4 -1.291906,-0.192436 -1.715649,-0.294094 -0.446988,-0.107236 -1.383159,-0.392804 -1.458215,-0.444812 -0.04108,-0.02847 -0.03687,-0.09126 0.02711,-0.403534 0.04168,-0.203401 0.09277,-0.63839 0.113532,-0.966642 0.0325,-0.513754 0.05145,-0.632046 0.136073,-0.849906 0.05407,-0.139196 0.117764,-0.353832 0.141537,-0.476968 0.02379,-0.123238 0.06221,-0.223882 0.08545,-0.223882 0.02323,0 0.120785,0.127029 0.216799,0.282287 0.342522,0.553873 0.566253,0.817667 0.807951,0.952629 0.123354,0.06888 0.302419,0.134952 0.397921,0.146827 l 0.173642,0.02159 -0.178816,-0.100784 c -0.236905,-0.133531 -0.445031,-0.337514 -0.547726,-0.536824 -0.102982,-0.199874 -0.320003,-1.184858 -0.272732,-1.237859 0.02084,-0.02337 0.108291,0.06435 0.237451,0.238186 0.314807,0.423715 0.697802,0.733823 1.111882,0.90028 0.166639,0.06698 0.327329,0.08821 0.848068,0.111992 0.693025,0.03165 1.142946,0.121351 1.758421,0.35057 L 79.350251,25.14118 79.2291,25.024713 c -0.374946,-0.360453 -1.340206,-0.758242 -2.154748,-0.887981 -0.418213,-0.06661 -0.772846,-0.333953 -0.996453,-0.751173 -0.118618,-0.221326 -0.182049,-0.461348 -0.12192,-0.461348 0.01934,0 0.165842,0.07776 0.325578,0.172794 0.572225,0.340454 1.234161,0.519578 2.079783,0.562807 0.509513,0.02604 0.552311,0.03448 0.778925,0.153368 0.131886,0.06919 0.350293,0.219773 0.485351,0.334619 0.135057,0.114845 0.315585,0.248125 0.40117,0.296178 0.601495,0.337711 1.660325,0.526245 2.640018,0.470079 0.537065,-0.03079 0.518972,-0.04232 -0.280175,-0.178552 -0.84176,-0.143494 -1.116775,-0.253425 -1.66494,-0.665522 -0.434355,-0.326534 -1.280435,-1.332758 -1.23941,-1.474001 0.0391,-0.134611 0.554554,-0.178617 0.904808,-0.07725 0.352405,0.101994 0.881126,0.427037 1.286631,0.790987 0.183471,0.164669 0.514559,0.341063 0.767352,0.408822 0.262861,0.07046 1.909053,0.125359 1.813881,0.0605 -0.16691,-0.113761 -0.488534,-0.204582 -0.824125,-0.23272 -0.660201,-0.05536 -0.901526,-0.217866 -1.285947,-0.865982 -0.432896,-0.72984 -0.856465,-1.208186 -1.341706,-1.51522 -0.171138,-0.108286 -0.244803,-0.226122 -0.141929,-0.227032 0.103914,-9.19e-4 1.148122,-0.154456 1.162863,-0.170984 0.03369,-0.03777 -0.784276,-0.451398 -1.078575,-0.5454 -0.168522,-0.05382 -0.47816,-0.127432 -0.688083,-0.163564 -0.329141,-0.05665 -0.414513,-0.05874 -0.620214,-0.01524 -0.143905,0.03044 -0.346244,0.0416 -0.510043,0.02813 -0.511492,-0.04207 -0.907267,-0.265727 -1.403817,-0.793324 -0.346506,-0.368171 -0.675938,-0.618985 -1.005055,-0.765202 -0.288714,-0.128266 -0.472789,-0.174039 -0.893608,-0.222207 -0.867132,-0.09925 -1.912578,-0.548781 -2.818186,-1.211786 -0.280135,-0.205089 -0.334098,-0.283812 -0.219613,-0.320375 0.405756,-0.129593 1.136351,-0.150535 1.583064,-0.04538 0.337124,0.07936 0.814829,0.264664 1.056287,0.409739 0.100273,0.06025 0.182323,0.105543 0.182323,0.100658 0,-0.0049 -0.187533,-0.189528 -0.416739,-0.410307 -0.229207,-0.220779 -0.41674,-0.425348 -0.41674,-0.454598 0,-0.09054 0.30578,-0.06156 0.612211,0.05804 0.155259,0.06059 0.405303,0.194641 0.555652,0.297876 0.558243,0.383311 0.953762,0.590153 1.263119,0.660566 0.11089,0.02524 0.103447,0.01526 -0.08484,-0.113848 -0.289614,-0.198582 -0.679187,-0.558654 -0.679187,-0.627754 0,-0.03187 0.02478,-0.0686 0.05504,-0.08163 0.04771,-0.02052 0.391982,0.02204 0.72634,0.08978 l 0.104185,0.02111 -0.104185,-0.0833 c -0.151054,-0.120783 -0.425737,-0.275479 -0.622137,-0.350375 -0.09387,-0.03579 -0.173972,-0.0902 -0.178008,-0.120906 -0.006,-0.0457 0.05328,-0.05418 0.326945,-0.04677 l 0.334287,0.0091 -0.29519,-0.107898 c -0.162355,-0.05934 -0.783321,-0.273673 -1.379925,-0.476285 -1.326907,-0.45063 -1.343791,-0.468088 -0.52145,-0.539175 0.545496,-0.04716 0.668376,-0.07953 0.597326,-0.157382 -0.01815,-0.01989 -0.423685,-0.04787 -0.901199,-0.06219 -0.481399,-0.01443 -0.971272,-0.04912 -1.099538,-0.07784 -0.272039,-0.06092 -1.487792,-0.62782 -1.487565,-0.693636 6.9e-5,-0.02485 0.375152,-0.26189 0.83348,-0.52675 0.458327,-0.26486 0.833322,-0.496023 0.833322,-0.513697 0,-0.06001 -0.155556,-0.155404 -0.38201,-0.23427 -0.312324,-0.108773 -0.794532,-0.110751 -1.163399,-0.0048 -0.349648,0.10046 -0.814036,0.163306 -1.207668,0.163448 -0.366753,1.17e-4 -0.333168,0.05919 -0.439375,-0.772717 -0.06469,-0.506684 -0.07051,-0.639373 -0.03832,-0.872056 0.02089,-0.150944 0.04635,-0.289629 0.05658,-0.308188 0.01018,-0.01856 0.04914,-0.157298 0.08646,-0.308309 0.234138,-0.9472886 0.745496,-1.4688491 1.250623,-1.2755782 0.456251,0.17457 0.552191,0.7009522 0.215644,1.1831612 -0.109653,0.157115 -0.24124,0.245118 -0.33201,0.222046 -0.04754,-0.01209 -0.06078,-0.0562 -0.06078,-0.202507 0,-0.358839 -0.162246,-0.351823 -0.316476,0.01368 -0.17549,0.415894 -0.115453,0.615586 0.201106,0.668916 0.378575,0.06378 0.758765,-0.121433 0.93953,-0.4577 0.238486,-0.443639 0.341032,-1.3285021 0.19141,-1.6516691 -0.09897,-0.2138568 -0.287679,-0.3927287 -0.468121,-0.443785 -0.335921,-0.095048 -0.747123,-0.2476134 -0.877345,-0.3255156 -0.07641,-0.045709 -0.170168,-0.094621 -0.20837,-0.108689 -0.05495,-0.020242 -0.04756,-0.026395 0.03538,-0.029472 0.05767,-0.00209 0.21394,0.046888 0.347283,0.1089352 0.133341,0.062052 0.388645,0.1540357 0.567339,0.2044141 0.382214,0.1077578 0.540588,0.2353366 0.679157,0.5471018 0.108052,0.2430966 0.120466,0.6082854 0.03623,1.0655106 -0.108559,0.589244 -0.275857,0.896485 -0.581352,1.06764 -0.181307,0.101576 -0.247448,0.1174 -0.490527,0.117348 -0.353196,-7.7e-5 -0.511625,-0.07641 -0.54478,-0.262479 -0.03257,-0.182737 0.01941,-0.437682 0.133809,-0.656421 0.103047,-0.197035 0.17793,-0.239349 0.341912,-0.193205 0.07523,0.02117 0.08329,0.04409 0.08329,0.236843 0,0.117374 0.01172,0.213018 0.02604,0.212542 0.108448,-0.0037 0.376317,-0.411473 0.407904,-0.6210904 0.02848,-0.1890117 -0.05199,-0.3963334 -0.19957,-0.5141519 -0.125818,-0.1004398 -0.3897,-0.1355171 -0.556174,-0.073919 -0.284261,0.1051809 -0.560033,0.5749519 -0.756044,1.2878993 -0.139772,0.508391 -0.161167,0.80974 -0.09123,1.284893 0.02994,0.203441 0.06509,0.455394 0.07809,0.559895 l 0.02364,0.190001 0.524987,-0.02116 c 0.401514,-0.01619 0.609229,-0.04484 0.883166,-0.121863 0.662354,-0.186216 1.35681,-0.09356 1.664746,0.222131 0.04298,0.04406 0.07814,0.101952 0.07814,0.128657 0,0.02671 -0.160184,0.139756 -0.355965,0.251227 -0.312624,0.177998 -1.280394,0.740213 -1.301449,0.756061 -0.01937,0.01458 1.137744,0.544734 1.292766,0.592297 0.10347,0.03175 0.426276,0.06021 0.798752,0.07043 0.833748,0.02288 1.275634,0.05834 1.328358,0.106596 0.05955,0.05451 0.05449,0.166096 -0.01029,0.226356 -0.0325,0.03023 -0.245046,0.06576 -0.538589,0.09004 l -0.484908,0.04009 1.068194,0.365324 c 1.880391,0.643093 1.849581,0.631457 1.849581,0.698521 0,0.05446 -0.04528,0.0588 -0.373329,0.03578 l -0.373329,-0.0262 0.219967,0.117691 c 0.287739,0.153952 0.664592,0.435835 0.665159,0.497533 6.08e-4,0.0663 -0.07483,0.06159 -0.468386,-0.0292 -0.185661,-0.04283 -0.386635,-0.0774 -0.446609,-0.07683 l -0.109044,0.001 0.121549,0.11644 c 0.223899,0.214487 0.626735,0.501889 0.800402,0.571043 0.09594,0.0382 0.17199,0.09275 0.17199,0.123373 0,0.04426 -0.04875,0.0505 -0.25178,0.03224 -0.416744,-0.03749 -0.841949,-0.233461 -1.52199,-0.701447 -0.144698,-0.09958 -0.363486,-0.22291 -0.486196,-0.274071 -0.246568,-0.102796 -0.521807,-0.169498 -0.466206,-0.112974 0.0191,0.01942 0.217008,0.213213 0.439793,0.430655 0.391691,0.382295 0.549964,0.565204 0.549964,0.635563 0,0.06325 -0.07464,0.03371 -0.308686,-0.122181 -0.722565,-0.48128 -1.648742,-0.706265 -2.4092,-0.585239 -0.166913,0.02656 -0.303477,0.06231 -0.303477,0.07943 0,0.03624 0.648922,0.478601 0.962114,0.655856 0.630887,0.357058 1.444406,0.638089 1.989793,0.687376 0.809748,0.07318 1.313671,0.338334 1.966552,1.034767 0.554548,0.591543 1.15123,0.849427 1.69558,0.732826 0.649652,-0.139156 1.722256,0.149844 2.528189,0.681191 0.206512,0.136153 0.211697,0.206429 0.01737,0.235392 -0.415773,0.06197 -0.984127,0.138518 -1.028428,0.138518 -0.02762,0 0.04923,0.07207 0.170802,0.160175 0.474314,0.343708 0.832545,0.769892 1.262059,1.501461 0.333688,0.56835 0.614073,0.747451 1.2049,0.769653 0.187966,0.0071 0.380688,0.04201 0.520925,0.09444 0.248791,0.09302 0.448319,0.216783 0.448319,0.278064 0,0.08155 -0.191951,0.1207 -0.485076,0.09894 -0.162971,-0.0121 -0.555066,-0.03058 -0.87132,-0.04107 -0.792306,-0.02627 -1.0469,-0.120467 -1.604063,-0.593458 -0.657515,-0.558183 -1.357532,-0.838472 -1.756293,-0.703225 l -0.149977,0.05087 0.273829,0.369893 c 0.453371,0.612422 0.921023,1.032194 1.472305,1.321567 0.311856,0.163695 0.484565,0.208144 1.572564,0.40472 0.662866,0.119764 0.835194,0.185089 0.636075,0.24112 -0.04588,0.01291 -0.504096,0.0267 -1.01827,0.03064 -0.769851,0.0059 -1.002104,-0.0055 -1.315832,-0.06471 -0.75024,-0.141559 -1.177145,-0.32149 -1.581358,-0.666505 -0.486815,-0.415518 -0.679041,-0.493592 -1.253329,-0.509038 -0.736339,-0.0198 -1.406871,-0.188925 -2.003611,-0.505348 L 76.03099,23.083415 76.11047,23.2433 c 0.234541,0.471817 0.600156,0.742318 1.097026,0.811641 0.450385,0.06283 1.087515,0.285112 1.552348,0.541563 0.431138,0.237863 0.814776,0.554675 0.815628,0.673555 6.39e-4,0.08942 -0.0067,0.08825 -0.330223,-0.05189 -0.658884,-0.285478 -1.535599,-0.470382 -2.170105,-0.457689 -0.624501,0.01249 -1.133402,-0.238756 -1.651874,-0.815543 -0.129295,-0.143837 -0.226426,-0.234862 -0.215848,-0.202276 0.01062,0.03259 0.04626,0.199038 0.07929,0.369893 0.06987,0.361399 0.171631,0.579977 0.3533,0.758811 0.112135,0.110386 0.413816,0.290082 0.610718,0.363774 0.03343,0.01251 0.06077,0.05172 0.06077,0.08713 0,0.05625 -0.0384,0.06229 -0.303872,0.04782 -0.523977,-0.02858 -0.757876,-0.193226 -1.190783,-0.838217 -0.140729,-0.209672 -0.26676,-0.396115 -0.28007,-0.414316 -0.01331,-0.0182 -0.05058,0.06865 -0.08283,0.193017 -0.03225,0.124362 -0.09412,0.305707 -0.137497,0.402988 -0.06557,0.147066 -0.08253,0.265463 -0.100598,0.702514 -0.01195,0.289101 -0.05302,0.69209 -0.09125,0.895531 -0.03824,0.203442 -0.06973,0.382272 -0.06998,0.397401 -6.15e-4,0.03712 0.483019,0.206464 0.971936,0.340326 0.475312,0.130135 1.258979,0.2914 1.788509,0.368043 0.456731,0.06611 0.503695,0.04565 0.434535,-0.189305 -0.05663,-0.192368 -0.01855,-0.395196 0.08905,-0.474232 0.06533,-0.04798 0.138857,-0.05861 0.303271,-0.04381 0.256139,0.02305 0.455736,0.127747 0.674441,0.353768 0.156657,0.161898 0.158542,0.162614 0.428628,0.162713 0.260189,7.8e-5 0.276154,0.0054 0.390474,0.129522 l 0.119193,0.129424 0.201762,-0.04182 c 0.292475,-0.06062 0.840028,-0.05211 1.045297,0.01623 0.09589,0.03192 0.227648,0.09854 0.292812,0.148031 l 0.118481,0.08999 0.268106,-0.08704 c 0.147459,-0.04787 0.428269,-0.124251 0.624024,-0.16973 1.086062,-0.252323 1.627661,-0.255641 1.799284,-0.01102 0.06409,0.09136 0.06926,0.092 0.544611,0.06799 0.445715,-0.02251 0.487944,-0.01852 0.592771,0.05598 0.09996,0.07105 0.112866,0.100221 0.112866,0.255113 0,0.225895 -0.04532,0.258988 -0.557166,0.406843 -0.248805,0.07188 -0.35493,0.115927 -0.283271,0.117596 0.331606,0.0077 0.476609,0.342678 0.224274,0.518073 l -0.09577,0.06657 0.08682,0.0011 c 0.115299,0.0016 0.300767,0.131526 0.328742,0.23035 0.01232,0.0435 0.0052,0.115038 -0.01574,0.158977 -0.05163,0.108157 -0.01154,0.319352 0.08986,0.473455 0.04584,0.06965 0.08334,0.148268 0.08334,0.174699 0,0.0847 -0.106058,0.170432 -0.21085,0.170432 -0.0928,0 -0.101703,0.01176 -0.101703,0.134341 0,0.07929 -0.02147,0.147817 -0.05241,0.167228 -0.04293,0.02694 -0.03037,0.05685 0.06945,0.165317 0.06703,0.07283 0.121869,0.153563 0.121869,0.179389 0,0.05888 -0.183055,0.132448 -0.329546,0.132448 -0.102451,0 -0.545769,-0.113728 -0.686258,-0.176052 -0.04001,-0.01775 -0.06037,-0.0089 -0.05959,0.02587 6.46e-4,0.02906 0.153017,0.166724 0.338601,0.305921 0.395748,0.29683 0.419797,0.362259 0.182471,0.496436 -0.11119,0.06287 -0.216011,0.0876 -0.371146,0.0876 h -0.216196 l 0.01858,0.128349 c 0.02908,0.200884 -0.0432,0.244424 -0.303091,0.182588 -0.11536,-0.02745 -0.246795,-0.08258 -0.292079,-0.122514 -0.04528,-0.03993 -0.251518,-0.197238 -0.458301,-0.349563 -0.660815,-0.486781 -1.303372,-1.049032 -1.670874,-1.462052 -0.353132,-0.396872 -0.359138,-0.401488 -0.52231,-0.401488 -0.324547,0 -0.801437,-0.195119 -1.099165,-0.449721 -0.112238,-0.09598 -0.159679,-0.110111 -0.377148,-0.112323 -0.194352,-0.002 -0.278267,-0.02208 -0.383673,-0.09192 l -0.134911,-0.08939 -0.292325,0.118593 c -0.333848,0.135437 -0.506387,0.150615 -0.573531,0.05045 -0.02512,-0.03747 -0.09243,-0.09497 -0.149565,-0.12777 -0.208657,-0.119772 -0.123242,-0.462413 0.117159,-0.469979 0.06943,-0.0022 -0.259006,-0.06206 -0.72986,-0.133057 -1.107338,-0.166965 -1.764523,-0.320399 -2.491606,-0.581719 -0.08082,-0.02904 -0.08266,-0.02508 -0.06334,0.136421 0.03331,0.278413 0.252797,0.721649 0.483435,0.976249 0.293093,0.323543 0.638104,0.564777 1.268995,0.887292 0.868455,0.443958 1.087029,0.572549 1.345034,0.791306 0.265595,0.225191 0.532094,0.571196 0.642173,0.833753 0.136177,0.324804 0.09801,0.323932 -0.346598,-0.0079 -0.629573,-0.469834 -1.030119,-0.659898 -1.83996,-0.87301 -0.453697,-0.119391 -0.825849,-0.343475 -1.122452,-0.675861 -0.452007,-0.506539 -0.974445,-0.999303 -1.343257,-1.266965 -0.06685,-0.04852 0.193298,0.259129 0.57811,0.683658 0.768182,0.847466 1.176598,1.414318 1.019016,1.414318 -0.01931,0 -0.195119,-0.148517 -0.390692,-0.330037 -0.195575,-0.181519 -0.446601,-0.387395 -0.557835,-0.457499 -0.111235,-0.0701 -0.408161,-0.265724 -0.659838,-0.434709 -0.251676,-0.16896 -0.583319,-0.380284 -0.736985,-0.469583 -0.153666,-0.0893 -0.349013,-0.216726 -0.434105,-0.28317 -0.188548,-0.147229 -0.488401,-0.490298 -0.580908,-0.664632 l -0.06807,-0.128271 -0.02142,0.120038 c -0.01772,0.09935 0.0088,0.174018 0.153633,0.433186 0.186699,0.333998 0.202358,0.435241 0.07056,0.456227 -0.215585,0.03432 -1.184467,-1.349164 -1.184467,-1.691329 0,-0.123462 -0.03409,-0.121189 -0.595138,0.03967 -0.255242,0.07318 -0.596912,0.154046 -0.759267,0.179699 -0.162354,0.02565 -0.362013,0.05776 -0.443685,0.07135 l -0.148495,0.02472 1.102988,0.65508 c 1.256685,0.746362 1.412445,0.808215 2.076451,0.824562 0.210107,0.0052 0.413267,0.02336 0.451468,0.04042 0.171691,0.07668 0.370249,0.269907 0.521411,0.50741 0.09023,0.141773 0.248155,0.350557 0.350933,0.463961 0.232064,0.256058 0.240215,0.346208 0.04884,0.540062 -0.164247,0.166367 -0.281684,0.206319 -0.454466,0.154613 l -0.12787,-0.03826 -0.02004,0.24068 c -0.02482,0.297964 -0.211232,0.862636 -0.408027,1.235959 -0.179955,0.341378 -0.551546,0.781829 -0.802584,0.951307 -0.140026,0.09454 -0.251127,0.133854 -0.458871,0.162399 -0.333898,0.04588 -0.437819,0.01287 -0.437819,-0.139084 0,-0.08383 0.06993,-0.182992 0.323283,-0.458463 0.511983,-0.55667 0.592636,-0.828825 0.406509,-1.371709 -0.198164,-0.577991 -0.519195,-1.019787 -0.897001,-1.234432 -0.09704,-0.05513 -0.34525,-0.151867 -0.551582,-0.214967 -0.692038,-0.211641 -1.476835,-0.551678 -1.983866,-0.859571 l -0.189541,-0.115099 0.02163,0.232043 c 0.02926,0.313932 0.116848,0.590441 0.389765,1.230561 0.223362,0.523891 0.241464,0.552815 0.571202,0.912696 0.513722,0.560681 0.609654,0.837367 0.582561,1.680218 -0.01699,0.528579 -0.03153,0.57539 -0.2109,0.679388 -0.135195,0.07838 -0.254804,0.04023 -0.394489,-0.125821 l -0.112916,-0.134233 -0.357779,0.247129 c -0.773728,0.534437 -0.771724,0.533525 -1.159866,0.527399 l -0.343946,-0.0054 z m 16.791099,-9.171385 c -0.01154,-0.01294 -0.04149,-0.01432 -0.06656,-0.003 -0.0277,0.01243 -0.01948,0.02166 0.02098,0.02353 0.03661,0.0017 0.05712,-0.0075 0.04558,-0.02045 z M 65.259247,24.493732 c -0.167129,-0.07628 -0.303873,-0.158995 -0.303873,-0.183829 0,-0.02483 0.105485,-0.103005 0.234417,-0.173704 0.309025,-0.169462 0.515882,-0.315871 0.895568,-0.633863 0.494126,-0.413834 1.473,-1.576816 1.4153,-1.681488 -0.01146,-0.0208 -0.0061,-0.02759 0.01195,-0.0151 0.01804,0.01249 0.07779,-0.05926 0.13279,-0.159462 0.055,-0.1002 0.127121,-0.217228 0.160272,-0.260058 0.06837,-0.08833 0.169181,-0.272968 0.282357,-0.517148 0.04683,-0.101045 0.09783,-0.162285 0.12945,-0.155459 0.02999,0.0065 0.114964,0.184981 0.199842,0.419809 0.08122,0.224698 0.162199,0.443584 0.17996,0.486414 0.01776,0.04283 0.05202,0.139197 0.07615,0.214149 0.02412,0.07495 0.07648,0.178524 0.116371,0.230162 0.03989,0.05163 0.05033,0.07943 0.02321,0.06175 -0.03494,-0.02277 -0.04364,-0.01609 -0.02985,0.02292 0.01072,0.03028 0.08369,0.235002 0.162178,0.454935 0.0785,0.219933 0.142718,0.423419 0.142718,0.452192 0,0.03146 -0.148763,0.110671 -0.373329,0.198763 -0.483652,0.189725 -1.590978,0.683915 -2.407185,1.074306 -0.354597,0.169604 -0.667152,0.307248 -0.694566,0.305875 -0.02742,-0.0014 -0.186586,-0.0649 -0.353716,-0.141168 z m 0.861472,-0.191667 c 0.677647,-0.329419 1.997963,-0.920242 2.429036,-1.086962 0.210106,-0.08126 0.395471,-0.160878 0.41192,-0.176929 0.01646,-0.01605 -0.129802,-0.473152 -0.325006,-1.015778 -0.195205,-0.542626 -0.369457,-1.028952 -0.387227,-1.080721 -0.03067,-0.08937 -0.03899,-0.08148 -0.164386,0.155743 -0.324176,0.613305 -0.700141,1.162669 -1.162958,1.699323 -0.555968,0.644668 -1.06683,1.086219 -1.593806,1.377569 l -0.233794,0.129258 0.23431,0.106473 c 0.128872,0.05856 0.25863,0.107388 0.288351,0.108508 0.02972,0.0011 0.256323,-0.0963 0.50356,-0.216484 z"
       id="path6338"
       sodipodi:nodetypes="ccssssscssssssscsssssssssccscsssssssssscsscsssssscccsssssscsssscssccscsssssscsssssssscsccssssssssssssssssssssssccsssscsssccccsssssssssscssssscssssscsssssscssssssssssscsssssscsssssscsssssssssssssscscsscssssssscscssscscssssscsscsscsscsssssssssssssssscssssssscssssssssssssssssssssssssssssssssssssssssscscsssccsssssscsssccssccssssssscssscsssssssssscsssssscssssssssssccssscsssccssssssssssssssssssscscsssssscssssscssscsssscsscsssscssssssssssssscscssscssssssscsccscssssssssssssscssssssscscssssssssssscssssssscssscscssssscscssssscsssssssssscsssssscsccsccsccssssssssscssssscsssscssssssscsscscs" /></g><g
     inkscape:groupmode="layer"
     id="layer8"
     inkscape:label="2-fill" /><plotdata
     application="axidraw"
     model="4"
     plob_version="n/a"
     layer="-2"
     pause_dist="-25400"
     pause_ref="-25400"
     last_x="6.398900506687788e-14"
     last_y="-8.419142119575617e-14"
     rand_seed="1"
     row="0" /></svg>
