<?xml version="1.0" encoding="UTF-8" standalone="no"?>
<!-- Created with Inkscape (http://www.inkscape.org/) -->

<svg
   width="210.0mm"
   height="148.0mm"
   viewBox="0 0 210.0 148.0"
   version="1.1"
   id="SVGRoot"
   xml:space="preserve"
   sodipodi:docname="postcard1_.svg"
   inkscape:version="1.2.2 (732a01da63, 2022-12-09)"
   xmlns:inkscape="http://www.inkscape.org/namespaces/inkscape"
   xmlns:sodipodi="http://sodipodi.sourceforge.net/DTD/sodipodi-0.dtd"
   xmlns="http://www.w3.org/2000/svg"
   xmlns:svg="http://www.w3.org/2000/svg"><sodipodi:namedview
     id="namedview24"
     pagecolor="#ffffff"
     bordercolor="#000000"
     borderopacity="0.25"
     inkscape:showpageshadow="2"
     inkscape:pageopacity="0.0"
     inkscape:pagecheckerboard="0"
     inkscape:deskcolor="#d1d1d1"
     inkscape:document-units="mm"
     showgrid="false"
     inkscape:zoom="1.5070524"
     inkscape:cx="397.13285"
     inkscape:cy="227.26483"
     inkscape:window-width="1920"
     inkscape:window-height="1001"
     inkscape:window-x="2391"
     inkscape:window-y="147"
     inkscape:window-maximized="1"
     inkscape:current-layer="SVGRoot" /><defs
     id="defs9" /><g
     id="layer1"
     transform="matrix(0.4960203,0,0,0.53935684,-4.3068581,-4.1306839)"><path
       style="fill:none;stroke:#000000;stroke-width:0.153361;stroke-opacity:1"
       d="m 105.59527,12.621358 c 1.82837,-0.240066 3.9909,0.03786 5.8277,0.215607 4.82917,0.467326 9.52139,1.308386 14.10917,2.837637 25.83206,8.610674 42.89281,33.928371 41.7081,60.986388 -0.77677,17.73799 -10.2132,34.78601 -24.37835,45.41083 -8.58513,6.43931 -18.70278,10.43143 -29.29187,11.74896 -8.63573,1.07444 -17.710082,0.14814 -25.917932,-2.56358 -2.17895,-0.71987 -4.32201,-1.61995 -6.44115,-2.54195 -14.64164,-6.36999 -26.77557,-19.67662 -31.99958,-34.724516 -5.594795,-16.116048 -4.480957,-34.303077 3.67521,-49.382101 4.91,-9.077565 12.13655,-16.851566 20.80971,-22.437862 3.19802,-2.059801 6.59941,-3.805152 10.12179,-5.22774 1.35142,-0.545794 2.76065,-1.017271 4.14074,-1.472782 3.17778,-1.048818 6.4939,-1.744293 9.81507,-2.235927 2.592102,-0.383719 5.234972,-0.27336 7.821392,-0.612964 m -2.30041,1.993691 c 5.61361,-0.737082 11.8925,0.358311 17.32975,1.71796 24.9674,6.243385 43.49566,28.77972 44.62194,54.50028 1.3008,29.706711 -21.14029,56.946611 -50.75637,60.840901 -24.170392,3.1784 -48.255972,-8.91746 -59.916652,-30.47551 -8.61142,-15.920666 -9.09225,-35.527047 -1.75559,-51.98923 3.15292,-7.074676 7.85082,-13.57149 13.51703,-18.8497 7.58935,-7.069616 16.92548,-11.907589 26.99146,-14.293926 3.30952,-0.784592 6.6195,-1.01106 9.968432,-1.450775 m 0.85944,2.853028 c 1.16124,-0.926037 1.49741,0.785037 1.56826,1.529342 0.169,1.773875 0.77739,4.905115 -0.7691,6.16672 -1.47042,1.199494 -4.38351,1.225535 -5.410872,-0.498529 -0.63016,-1.057713 -0.49413,-2.612237 -0.5478,-3.827864 -0.0345,-0.781004 -0.50579,-2.371936 0.0985,-2.974674 0.69733,-0.695367 1.389902,0.127044 1.434382,0.827748 0.0942,1.485896 -0.25351,4.140061 0.72033,5.334724 0.4541,0.557129 1.21661,0.775683 1.89278,0.443979 1.66135,-0.814851 0.95636,-3.65084 0.91863,-5.165383 -0.0123,-0.498176 -0.35503,-1.477184 0.0949,-1.836063 m 7.57539,2.296145 c -0.0208,0.981385 -0.1894,1.115483 -0.29844,1.993687 -0.12345,0.994789 -0.0932,2.792911 -0.54719,3.657343 -0.21669,0.41254 -0.8171,0.534783 -1.20894,0.186011 -0.44229,-0.393784 -0.18142,-1.305605 -0.11624,-1.849667 0.18986,-1.586254 0.42281,-3.167999 0.61344,-4.754177 0.0807,-0.671336 0.0722,-1.512135 0.94685,-1.498456 1.93234,0.03023 2.42279,3.391033 2.9643,4.872388 0.25642,0.70164 0.52296,0.944701 0.71344,1.686966 m -0.15337,-0.613442 c 0.59106,-1.024939 0.55977,-2.327476 0.76681,-3.834014 0.1052,-0.765729 0.15934,-1.764889 1.20434,-1.356811 0.68153,0.266187 0.44612,1.096052 0.37251,1.663532 -0.20566,1.583203 -0.36346,3.174119 -0.59212,4.754178 -0.0804,0.554275 -0.0442,1.614518 -0.70056,1.789319 -0.58829,0.156642 -1.41996,-0.06121 -1.73236,-0.585025 -1.05435,-1.767741 -1.08533,-3.922871 -2.23247,-5.34503 m 10.35384,-0.756512 c 0.46299,-0.298378 1.29881,0.04457 1.32718,0.612032 0.0831,1.654438 -1.068,3.926781 -1.55538,5.5121 -0.15291,0.49721 -0.2325,1.527778 -0.70362,1.82223 -0.71359,0.445973 -1.31829,-0.433243 -1.241,-1.05555 0.19477,-1.568495 0.98304,-3.388271 1.41613,-4.907415 0.1483,-0.520184 0.28526,-1.679482 0.75669,-1.983397 m -36.271772,1.369955 c 0.67601,1.269273 1.21155,3.015866 1.77914,4.447456 0.19614,0.494619 0.35886,1.383926 0.78229,1.733435 0.80867,0.667578 2.69194,-1.415503 3.21612,-0.177239 0.19278,0.455435 -0.21608,0.754488 -0.56636,0.929932 -0.66037,0.330799 -3.10095,1.595257 -3.72375,1.087633 -0.43033,-0.350582 -0.6185,-1.232712 -0.80897,-1.733434 -0.47925,-1.259903 -0.97967,-2.568437 -1.45294,-3.834014 -0.17161,-0.45861 -0.61145,-1.161384 -0.48109,-1.666493 0.15182,-0.588 0.81112,-0.61542 1.25556,-0.787276 m 42.940962,7.054586 c 1.30141,-0.607308 2.72736,-3.499228 4.32016,-4.062752 0.53232,-0.188372 0.9743,0.23021 1.35418,0.535459 -1.2137,1.592987 -3.11997,3.429755 -4.60082,4.907538 -0.81036,0.80867 -1.47594,1.472414 -2.58443,0.711133 -0.63537,-0.436311 -0.45502,-1.117539 -0.37313,-1.784657 0.2006,-1.633382 0.33479,-3.274954 0.54704,-4.907538 0.0679,-0.523159 0.0101,-1.860954 0.61298,-2.021737 0.81557,-0.217542 1.20649,0.768628 1.15741,1.408294 -0.12974,1.685832 -0.78198,4.023737 -0.43339,5.21426 M 77.530298,25.285202 c 0.79686,1.204233 1.66304,2.675835 2.41067,3.987375 0.2805,0.49198 0.61513,1.418125 1.16708,1.650006 0.88995,0.3742 2.28308,-1.70721 3.0301,-0.828301 0.76281,0.897313 -3.0485,3.136684 -3.7969,2.821988 -0.51269,-0.215471 -0.82278,-1.043465 -1.09316,-1.496646 -0.72647,-1.217222 -2.84116,-3.645994 -2.8318,-5.058536 0.004,-0.615866 0.65976,-0.849204 1.11401,-1.075886 m 60.577422,1.533606 c 0.98703,0.671412 2.12941,1.39006 3.06184,2.218207 0.35335,0.313775 0.84625,0.962031 0.2486,1.335003 -1.1936,0.745179 -2.37233,-2.668167 -3.5141,-0.485846 -0.61851,1.182257 2.45929,2.083557 1.36107,2.965687 -0.9404,0.755301 -1.99215,-1.764107 -3.0715,-0.640281 -1.24054,1.29145 0.0972,1.804901 0.97828,2.653138 0.34461,0.331719 0.63476,1.041165 -0.0178,1.258324 -0.71803,0.238935 -3.7216,-2.098126 -3.66531,-2.863702 0.0471,-0.641201 0.82002,-1.341292 1.17995,-1.839714 1.08166,-1.497872 2.27403,-3.254617 3.43896,-4.600816 m -32.51244,0.985188 c 4.88975,-0.641967 10.76913,0.814958 15.33606,2.337675 17.11918,5.707313 30.32858,22.32439 31.12621,40.538257 0.38248,8.736185 -1.57041,17.415166 -5.80056,24.997772 -6.91364,12.39292 -19.75299,21.11898 -33.76048,22.96084 -14.123742,1.8572 -28.673062,-3.08101 -38.644562,-13.29912 -13.44066,-13.772856 -17.03217,-35.656335 -8.01064,-52.756038 5.76007,-10.917892 15.69998,-19.382015 27.48513,-22.893511 4.06697,-1.211856 8.085632,-1.336538 12.268842,-1.885875 m -33.438892,1.208788 c 0.61022,-0.13281 0.80699,0.58507 0.53278,1.012946 -0.49781,0.776618 -2.84315,2.08141 -0.82708,2.941763 0.93029,0.39705 2.0055,-1.912867 2.80328,-1.030123 0.9559,1.057727 -2.04568,1.732667 -1.25019,3.010007 1.50247,2.412362 2.40147,-1.395734 3.7489,-0.499188 1.03917,0.691349 -2.25471,3.390802 -3.00771,3.471316 -0.85361,0.0914 -1.95535,-1.781283 -2.45377,-2.359145 -0.63491,-0.735978 -2.90143,-2.655745 -2.77261,-3.678353 0.0909,-0.722482 1.33639,-1.448798 1.85245,-1.880354 0.3834,-0.320677 0.86786,-0.878603 1.37395,-0.988869 m 31.445212,0.93826 c 5.10322,-0.670033 10.61316,0.437231 15.48941,1.863637 4.86352,1.422573 9.45223,3.776197 13.49573,6.832827 18.59298,14.054575 22.85149,40.96644 9.28951,59.944039 -3.28698,4.599443 -7.45547,8.492653 -12.20336,11.549283 -5.20582,3.35139 -11.17569,5.58447 -17.32974,6.3502 -5.96159,0.74181 -12.14861,0.40487 -17.943192,-1.24866 -4.18889,-1.19545 -8.18347,-3.0942 -11.80876,-5.50656 -12.6455,-8.4149 -20.66564,-23.426753 -19.61635,-38.74916 0.45533,-6.650788 2.36896,-13.02798 5.5426,-18.86335 2.6421,-4.858002 6.38594,-9.214056 10.69982,-12.660067 7.20978,-5.75915 15.38329,-8.330239 24.384332,-9.512189 m 42.17415,9.136609 c -0.46422,1.210781 -1.04699,2.872903 -1.84033,3.987374 -0.56774,-0.404718 -1.1663,-0.885197 -0.92246,-1.686966 0.26715,-0.877836 1.54081,-2.27403 0.82937,-3.194961 -1.04009,-1.346045 -2.98976,3.109846 -3.71991,0.740425 -0.20857,-0.676627 0.62203,-1.196059 1.05251,-1.5767 1.15312,-1.019081 2.26008,-2.108861 3.37393,-3.170729 0.3377,-0.321904 0.8579,-0.927218 1.3801,-0.835355 0.53691,0.09447 0.93611,0.752233 1.27028,1.136095 0.91526,1.0519 2.26452,2.416809 1.23685,3.827419 -0.69472,0.95375 -1.66043,1.068923 -2.66034,0.773398 m 0.15275,-3.597533 c 1.20556,-0.07683 1.57348,2.283999 0.1532,2.301176 -1.57164,0.01902 -1.78389,-2.19735 -0.1532,-2.301176 m -81.587212,5.897941 c 0.49306,0.787506 1.53039,1.525171 2.60698,2.392425 0.54565,0.439685 1.34252,0.992396 0.67847,1.716871 -0.57281,0.624791 -1.27903,-0.143392 -1.75184,-0.520659 -1.27918,-1.020614 -2.55959,-2.040615 -3.83386,-3.067211 -0.44398,-0.357637 -1.15419,-0.784439 -0.92078,-1.44389 0.91464,-2.584279 4.92747,0.573875 6.59496,-0.764502 l -1.68696,-1.349573 c -0.50947,-0.407479 -1.43423,-0.914029 -1.64771,-1.566578 -0.17207,-0.526027 0.3512,-1.080732 0.88152,-0.952983 1.53882,0.370519 3.50981,2.62814 4.75356,3.623757 0.42604,0.341074 1.2913,0.82646 1.15665,1.472875 -0.48523,2.332 -4.57659,0.515905 -5.91006,0.354263 -0.44643,-0.05414 -0.66604,0.0319 -0.92093,0.105205 m 3.37393,-1.686966 c 0.31838,0.352729 0.39813,0.475418 0.92017,0.766803 m -0.61344,-0.306721 -0.61345,0.15336 m -3.83401,0.613442 0.61344,0.306721 m 12.57557,0.306722 c 0.73858,0.739504 0.93749,0.429869 1.19943,1.533605 0.0644,0.271295 0.0284,0.778152 0.0276,1.073524 -0.003,0.903447 -1.5e-4,1.852596 -1.5e-4,2.76049 v 17.483104 c 0,7.958493 -1.11233,16.830709 1.18409,24.53769 2.38001,7.987632 8.69754,14.391055 15.22549,19.266075 2.70252,2.01823 5.58247,3.92389 8.588192,5.46255 1.07904,0.55225 2.27097,1.51689 3.5273,1.50646 1.17412,-0.01 2.52676,-1.01034 3.52729,-1.56535 2.80159,-1.55385 5.5176,-3.22302 8.12811,-5.08421 7.1946,-5.12945 14.0239,-12.284795 16.12065,-21.11913 0.75545,-3.183612 0.59565,-6.563526 0.59565,-9.815076 V 63.625343 46.755681 c 0,-0.782446 9.2e-4,-1.685893 0,-2.453769 -3.1e-4,-0.314696 -0.0366,-0.760209 0.005,-1.073524 0.15857,-1.193912 0.37926,-0.843023 1.22197,-1.686966 m 15.33606,0.54581 c 1.24974,-0.321904 2.35454,0.5636 2.99544,1.601237 0.31224,0.50563 0.85468,1.415979 0.1986,1.870846 -0.86971,0.603167 -1.83649,-2.96676 -3.08009,-1.497566 -0.52603,0.621417 -0.0486,1.659975 0.0127,2.387211 0.0797,0.944087 -0.25719,1.78343 -1.04914,2.354238 -0.31577,0.227587 -0.68921,0.402724 -1.07123,0.47235 -1.31,0.238476 -2.37233,-1.016627 -2.96338,-2.059786 -0.30995,-0.546883 -0.83935,-1.498946 -0.0817,-1.920687 1.18578,-0.660064 1.56473,3.554131 3.11966,2.005189 0.68199,-0.679387 0.2032,-1.852902 0.12483,-2.691631 -0.11027,-1.18057 0.61406,-2.217594 1.79432,-2.521401 m -73.306452,0.834435 c 1.8023,0 3.68342,0 5.67434,0 h 9.66172 26.838102 c 4.67305,0 9.99788,0 14.41589,0 m -2.30041,24.997771 c 0.19952,0.27743 0.40518,0.506857 0.45134,1.073831 0.0762,0.937033 0.009,3.622376 0.009,4.753871 0,5.083289 0.43539,10.68233 -1.35126,15.489417 -1.01647,2.734878 -2.55621,5.457795 -4.34302,7.82139 -3.37623,4.466473 -7.7582,8.201573 -12.40226,11.297613 -2.15273,1.43515 -5.72357,4.32615 -8.12811,4.44286 -0.5541,0.0268 -1.01955,-0.0518 -1.53361,-0.29139 -1.16661,-0.54351 -2.41313,-1.25572 -3.52729,-1.92268 -4.656492,-2.78794 -9.239822,-5.96281 -12.908362,-9.99926 -3.04237,-3.347563 -5.90101,-7.278344 -7.42188,-11.501894 -0.88443,-2.456376 -1.2936,-5.332654 -1.2936,-7.974749 0,-3.775737 -3.1e-4,-7.575245 0,-11.348682 0,-0.922617 0.0889,-1.200506 0.0889,-1.840327 0,-0.519892 -0.0854,-0.807443 -0.0888,-1.380245 -0.009,-1.483763 -1.5e-4,-3.66409 -1.5e-4,-5.214259 V 49.976252 c 0,-1.231792 -0.44046,-3.468862 0.0925,-4.552048 0.29491,-0.599179 2.18769,-0.35549 2.82137,-0.35549 h 8.89491 30.212032 7.82139 c 0.7211,0 2.27756,-0.272981 2.82137,0.157655 0.35611,0.28203 0.24569,0.944548 0.24584,1.375951 6.2e-4,1.431008 0,2.862935 0,4.294096 v 11.195321 c 0,1.238847 0.0431,3.47377 -0.003,4.600817 -0.0279,0.681994 -0.24814,0.936266 -0.45717,1.226884 M 65.568168,48.596007 c -0.24737,0.518512 -0.36868,1.145757 -1.08012,1.331323 -0.99117,0.25872 -2.67001,-0.69917 -3.40384,0.250898 -1.01563,1.314914 3.08469,1.574093 2.11653,3.146806 -0.40058,0.650709 -1.10527,0.165936 -1.61995,-0.09033 -1.43699,-0.71558 -2.83895,-1.419352 -4.29409,-2.147048 -0.45587,-0.228047 -1.28619,-0.477258 -1.4967,-0.990709 -0.50759,-1.23808 1.87686,-4.13092 3.0303,-4.2441 1.83649,-0.180352 1.56729,1.412297 2.65529,2.125424 1.16462,0.763429 2.91753,-0.0094 4.09258,0.617736 m 21.7772,13.035648 c -0.80637,-0.430329 -1.58176,-0.947615 -1.99292,-1.993687 -0.36439,-0.927371 -0.15413,-2.06408 -0.15413,-3.067211 0,-2.065767 0.006,-4.151317 1.5e-4,-5.981062 -0.002,-0.727696 -0.005,-1.879587 0,-2.60713 0.003,-0.410393 -0.0733,-0.923384 0.35534,-1.134408 0.83857,-0.41254 2.68703,-0.09248 3.63188,-0.09248 h 9.20164 c 0.90145,0 3.175172,-0.412387 3.894892,0.157654 0.60133,0.476338 0.246,2.652371 0.24584,3.369639 v 7.054585 c 0,1.370891 0.0607,2.462818 -0.93626,3.52438 -0.38095,0.405485 -0.91679,0.688895 -1.33808,1.000524 -0.452872,0.334939 -0.735052,0.650709 -1.253562,0.964178 -0.4081,0.246604 -0.81282,0.391223 -1.2002,0.626478 -0.31087,0.188633 -0.50594,0.387235 -0.80668,0.583383 -0.66068,0.43079 -2.1311,1.376718 -2.90005,1.570566 -0.72969,0.184032 -1.19667,-0.465143 -1.71304,-0.765116 -0.36039,-0.209491 -0.70561,-0.306414 -1.04745,-0.505477 -0.47005,-0.273748 -0.9559,-0.530934 -1.15557,-1.024448 -0.16502,-0.407479 -0.0747,-0.780299 -0.0718,-1.22029 0.0158,-2.390738 4.6e-4,-5.234963 4.6e-4,-7.668028 0,-0.603321 0.19799,-2.242285 -0.35549,-2.514653 -0.53324,-0.2624 -1.77546,-0.20489 -2.0058,0.263013 -0.32988,0.670492 -0.0925,1.792938 -0.0925,2.558361 0,2.255474 0.50363,5.382649 -0.30673,6.901225 m 34.199462,-12.11548 c 0.79441,-0.330646 1.64357,-0.75162 2.45377,-1.205721 0.874,-0.489834 0.91019,-0.793487 1.59111,-1.25817 0.29599,-0.201976 1.4442,-0.421895 1.88741,-0.204123 0.74181,0.364692 0.35657,2.003963 0.35549,2.821374 -6.1e-4,0.496122 -0.0232,0.910349 -0.0232,1.380245 0,0.499956 0.0261,0.842103 0.023,1.380245 -0.002,0.404106 0.0532,0.808824 -0.24568,1.115392 -0.35703,0.366072 -1.11202,0.486153 -1.59449,0.704385 -0.49275,0.222833 -0.7461,0.499955 -1.22689,0.611448 -0.53231,0.123302 -1.0657,-0.330492 -1.5336,-0.620343 -0.80085,-0.496121 -2.07114,-0.97384 -2.44472,-1.817476 -0.39491,-0.891485 0.33156,-2.025586 -1.08319,-2.599001 -0.82355,-0.333713 -1.81349,0.06671 -2.09997,0.92093 -0.14477,0.432016 0.0149,0.949762 -0.20949,1.33577 -0.46897,0.806677 -2.45545,1.221517 -3.36427,1.57532 -0.4087,0.159035 -0.78873,0.357637 -1.20081,0.237402 -0.43478,-0.126829 -0.70699,-0.489373 -1.1019,-0.740885 -0.43815,-0.279269 -0.81357,-0.305954 -1.1321,-0.655309 -0.55379,-0.607768 -0.24584,-2.475393 -0.24584,-3.288204 0,-0.752847 -0.33433,-2.163918 0.48278,-2.405001 0.45072,-0.132963 1.30648,0.01564 1.63221,0.235562 0.40273,0.272062 0.45288,0.510844 0.83091,0.794561 0.61298,0.459929 2.38062,1.343439 3.18852,1.681599 m -3.68065,-2.76049 c 0.73122,0 1.7092,0 2.76049,0 2.29995,1.53e-4 4.60128,7.66e-4 6.90122,0 1.05129,-3.07e-4 2.02927,0 2.76049,0 m -7.97475,0.15336 0.61345,1.533606 m 2.91385,-1.380245 -0.46008,1.226884 M 58.680788,47.652993 c 1.35279,-0.395363 1.71456,2.06178 0.56682,2.351324 -1.48583,0.374814 -2.04289,-1.91992 -0.56682,-2.351324 m 98.437042,2.469259 c 0.69855,-0.0184 1.06785,0.965558 0.56896,1.433768 -1.18639,1.113397 -3.66961,1.65292 -5.16319,2.297341 -0.49504,0.213478 -1.26215,0.739351 -1.8075,0.598566 -0.70991,-0.183266 -0.68568,-1.167227 -0.16333,-1.529005 1.34896,-0.934426 3.22134,-1.446803 4.73132,-2.091071 0.53769,-0.229427 1.24115,-0.693956 1.83374,-0.709599 m -46.61502,0.927524 c 1.23225,0 3.76654,0 5.36762,0 m 6.44114,0 c 1.74985,0 3.88539,0 5.36762,0 m -42.327512,0.766803 c 0.83581,0 1.45646,-0.143699 2.30041,0.306721 m 2.60713,-0.306721 c 0.75024,0 2.01899,-0.3012 2.36129,0.482779 0.35886,0.822166 0.0925,2.129718 0.0925,3.044514 0,2.442881 0.27436,7.907884 -0.15336,9.354994 m 0.15336,-12.728926 c 0.72601,-0.214552 1.85183,-0.463916 2.29611,0.202129 0.48033,0.719721 0.15766,2.300715 0.15766,3.171803 v 6.134423 c 0,1.271512 0,2.261301 0,3.220571 m 0,-12.728926 c 0.72601,-0.214552 1.85183,-0.463916 2.29611,0.202129 0.44506,0.666812 0.15766,2.059632 0.15766,2.865082 0,2.209772 0,6.91104 0,8.12811 m 0,-11.195321 c 0.72601,-0.214552 1.85183,-0.463916 2.29611,0.202129 0.427112,0.639974 0.157662,1.939551 0.157662,2.711721 0,2.201491 0,5.408567 0,6.747865 m 0,-9.661715 c 0.88995,-0.263014 1.48744,-0.153361 2.30041,-0.153361 m 15.18269,0.306721 c 1.01126,-0.231114 1.95534,-0.120081 2.91385,0.153361 m -10.1218,0.460082 c 0,0.937186 -0.009,3.011694 4.6e-4,4.294095 0.004,0.563294 -0.006,0.889185 0.0558,1.533606 0.27574,2.857721 3.68541,4.273392 5.92478,5.645356 0.7392,0.452873 1.60783,1.246821 2.45377,1.438368 0.83029,0.18802 1.91057,-0.748859 2.60713,-1.145756 1.13809,-0.648409 2.10978,-1.336691 3.09328,-2.024667 0.37727,-0.263933 0.80699,-0.377113 1.20082,-0.633379 0.88657,-0.576789 1.59847,-1.347579 1.93801,-2.359759 0.28525,-0.850537 0.18281,-1.714264 0.18572,-2.607129 0.004,-1.376105 0.0233,-1.719172 0.0233,-3.067211 m -15.18269,0.15336 -1.07353,0.613442 m 6.28779,1.226885 c -0.41883,0.645955 -1.65952,0.460082 -2.45377,0.460082 -0.0468,-1.044999 0.52173,-2.602836 1.94568,-1.682673 0.94348,0.609609 1.87039,1.70445 2.60391,2.600536 0.3423,0.418367 0.61421,0.738737 1.1249,0.879216 0.40303,0.110726 0.93811,0.04371 1.38009,0.04325 1.65476,-0.0018 3.82681,0 5.21426,0 M 55.906448,54.951729 c 5.44568,-0.792721 7.26806,7.423878 1.68697,8.293433 -1.74242,0.271448 -4.00948,-0.795942 -4.80198,-2.38031 -1.19752,-2.394111 0.55125,-5.539997 3.11501,-5.913123 m 68.858892,0.08542 c 0.90621,0.827227 1.72761,1.491278 2.91385,1.840327 m 31.59289,-1.397115 c 0.67279,-0.02899 0.78107,0.923997 0.90008,1.397115 0.28739,1.141769 0.65408,2.387364 0.91955,3.527293 0.11471,0.493054 0.26071,1.159712 -0.44061,1.269672 -1.08641,0.170537 -0.61605,-1.825451 -1.55339,-1.941698 -1.72254,-0.213631 -4.07525,1.282708 -5.80439,1.431621 -0.64779,0.05582 -1.11616,-0.735824 -0.75944,-1.294824 0.27927,-0.437537 1.06279,-0.517592 1.52333,-0.634299 1.26415,-0.320217 3.3178,-0.564367 4.42414,-1.196826 0.80714,-0.461308 -0.40471,-2.506371 0.79073,-2.558054 m -44.01509,0.937033 c -0.10736,0.643501 -1.15788,1.217376 -1.68053,0.520966 -0.78934,-1.0519 1.19514,-1.287769 1.68053,-1.287769 m 2.76049,0.766803 c 0.04,0.933659 -0.0736,1.902591 0.4498,2.544559 0.30473,0.373739 0.7826,0.195228 1.23716,0.09401 0.64642,-0.143853 1.01724,-0.368219 1.38025,-0.644882 M 55.293008,56.824262 c 1.56934,-0.492901 4.5213,0.422355 4.41421,2.506985 -0.0452,0.880289 -0.48812,1.63283 -1.34712,1.97099 -1.27299,0.501029 -3.16733,0.0074 -4.05282,-1.079199 -0.92583,-1.136095 -0.27243,-3.003719 0.98573,-3.398776 m 58.123652,0.206576 c -0.23771,0.35595 -0.5501,0.802229 -0.58522,1.223971 -0.0543,0.651322 0.42189,0.768336 1.04546,0.768336 0.45962,0 0.83673,0.0083 1.091,-0.354109 0.31408,-0.44766 0.18726,-0.768643 0.28909,-1.331477 m -4.75418,0.766803 c 0.78521,0 1.24253,0 2.14705,0 m 2.60713,0.460082 h 2.91385 m 0.15336,0.766803 c 0.20243,1.213389 1.97513,0.78766 2.91385,0.613442 m -8.43483,0.153361 h 5.36762 m -30.518752,1.686966 c 0.62893,0.814498 1.31276,1.250962 2.30041,1.380245 m 28.678422,-1.073524 c 1.9759,0 4.6778,-0.225133 5.67434,0.306721 m 38.03342,10.275158 c -1.62823,-0.46913 -3.23253,-1.76242 -4.90754,-2.303323 -0.95896,-0.309788 -1.91056,0.237709 -2.89345,-0.04585 -0.44705,-0.128977 -0.71497,-0.681688 -0.53508,-1.14315 0.30688,-0.787353 1.93296,-0.436618 2.66173,-0.592125 1.81625,-0.387849 3.72513,-2.343043 5.21426,-3.276855 0.35487,0.737357 0.52802,1.411684 -0.17606,2.067607 -0.84088,0.783366 -1.84309,1.090393 -2.58443,1.919767 0.7987,0.656384 2.86186,1.129194 3.2813,2.163151 0.21931,0.540749 0.0524,0.961571 0.24599,1.517503 M 51.340538,66.546401 c 0.33971,-0.191547 0.78878,-0.06932 0.86727,0.322211 0.10595,0.528634 -0.14573,1.075824 -0.13301,1.664269 0.035,1.622094 1.32608,2.669087 2.91149,2.744387 1.46734,0.06978 2.76116,-0.969546 3.0168,-2.437666 0.0991,-0.569275 -0.32519,-1.762267 0.37974,-1.942005 1.01722,-0.259179 1.087,1.102049 1.00595,1.788644 -0.18163,1.538513 -0.72245,2.979642 -2.10208,3.834781 -2.12659,1.318287 -5.72419,0.125449 -6.36175,-2.301175 -0.23814,-0.906361 -0.58421,-3.109386 0.41559,-3.673446 m 28.95024,1.373037 h 52.142592 m -25.91793,0.153361 c 0,0.935039 -0.0127,2.895907 4.6e-4,4.754177 0.003,0.416374 0.0227,0.640741 0.0227,1.073524 0,0.453948 -0.0218,0.836122 -0.023,1.226885 -0.002,0.686288 -1.5e-4,1.864251 -1.5e-4,2.607129 V 90.15672 c 0,1.421346 -0.005,4.083838 1.5e-4,5.36762 0.002,0.595192 0.0558,0.897617 0.15321,1.226887 0.66481,-0.37712 1.71871,-0.927221 3.22057,-0.920013 0.37251,0.0017 0.69411,0.01518 1.07352,0.06487 0.48646,0.06395 0.85928,0.08726 1.38025,0.08834 0.51789,0.0011 0.89624,0.0015 1.38024,0.06503 0.4426,0.05812 0.7642,0.08527 1.22689,0.08818 0.97966,0.0063 1.12321,0.126216 2.14704,0.151214 0.82125,0.02025 2.61695,0.225289 2.97474,-0.506397 0.52127,-1.066316 0.0925,-3.236828 0.0925,-4.552201 V 79.26812 c 0,-1.021228 -0.007,-2.219434 4.6e-4,-3.220572 0.004,-0.505936 0.23755,-1.271359 -0.15429,-1.74785 -0.58062,-0.705766 -2.55805,-0.241236 -3.52683,-0.245991 -1.83802,-0.0089 -3.70688,-0.39567 -5.52098,-0.461615 -0.39751,-0.01442 -0.67847,-0.07453 -1.07352,-0.09416 -0.48815,-0.02423 -0.79564,0.06641 -1.22689,0.09048 -0.94792,0.05276 -1.56918,0.249671 -1.99368,0.312088 m 51.83587,-4.600817 h 0.61344 M 106.3621,96.751227 c -0.82109,-0.31991 -1.83112,-0.927528 -3.37393,-0.920013 -0.37251,0.0017 -0.69411,0.01518 -1.07352,0.06487 -0.49443,0.06502 -0.84778,0.08665 -1.38025,0.08834 -1.492352,0.0048 -3.090212,0.267461 -4.600812,0.304421 -0.88106,0.02163 -2.58489,0.298742 -2.97474,-0.505937 -0.54642,-1.12812 -0.0925,-3.451532 -0.0925,-4.706022 V 79.26812 c 0,-1.169834 0.0187,-2.359912 -0.004,-3.527293 -0.008,-0.436004 -0.13511,-1.085179 0.15766,-1.441129 0.6073,-0.738125 2.65145,-0.234182 3.68019,-0.246451 1.77316,-0.02101 3.413652,-0.371286 5.214262,-0.459468 0.44873,-0.02193 0.77094,-0.101371 1.22688,-0.11364 0.52342,-0.01396 0.88581,0.08143 1.38025,0.117474 0.8924,0.06533 1.4468,0.292765 1.99369,0.609608 m 13.80245,0.766803 c 0.71527,0 1.43514,-0.260406 1.83603,0.245837 0.41837,0.528327 0.18081,1.346506 0.18081,1.901211 0,0.502563 -0.0232,0.832748 -0.0232,1.380245 0,0.465143 0.0155,0.784899 0.0213,1.226885 0.0104,0.778918 -0.0213,1.989853 -0.0213,2.91385 0,0.88213 0.0107,1.502014 0.0213,2.300409 0.007,0.542283 -0.0213,0.957736 -0.0213,1.533605 0,0.465143 0.0155,0.7849 0.0213,1.226885 0.007,0.510997 -0.0207,0.99623 -0.0213,1.533606 -0.002,1.372116 0.005,2.42693 0.0213,3.680653 0.006,0.49014 -0.0198,0.88305 -0.0212,1.380245 -0.002,0.547651 0.0144,0.877529 0.0212,1.380245 0.005,0.40978 -0.0121,0.683987 -0.0198,1.073527 -0.007,0.3676 0.0449,0.72325 -0.15919,0.98104 -0.45702,0.57695 -3.07856,0.24584 -3.82972,0.24584 -3.01354,0 -6.54574,-0.44428 -9.50606,0.0227 -1.0154,0.16026 -1.20526,1.09453 -2.3027,1.14852 -0.98979,0.0488 -1.51306,-1.07813 -2.45607,-1.16217 -3.16322,-0.28218 -6.481942,-0.009 -9.659422,-0.009 -0.71957,0 -3.22946,0.37328 -3.58818,-0.35549 -0.60976,-1.2393 -0.12268,-3.945812 -0.0963,-5.318849 0.0814,-4.220943 -0.11026,-8.511051 -0.014,-12.728927 0.0262,-1.143763 -0.39137,-3.225939 0.11027,-4.245327 0.3719,-0.755608 1.1568,-0.35549 1.90121,-0.35549 m 2.45377,1.993688 c 0.93918,-0.174371 1.32442,-0.14876 2.30041,-0.153514 1.60476,-0.0077 3.226862,-0.235869 4.754182,-0.416221 0.6139,-0.07239 1.1594,-0.04371 1.84032,-0.04371 m 4.90754,0 1.68697,0.04371 1.07352,0.109653 3.68066,0.306107 2.30041,0.153975 m -27.144832,2.91385 c -1.41689,0 -2.98133,0.191548 -2.58443,-2.137999 0.12361,-0.725549 0.77493,-0.621264 1.35755,-0.622491 0.52081,-0.0011 0.87553,0 1.22688,0 m 31.899002,0 c 0.40748,0 0.78291,-0.004 1.38025,1.53e-4 0.33601,0.0023 0.82569,-0.0618 1.06923,0.245684 0.24476,0.309022 0.15965,0.711593 0.1575,1.134408 -0.002,0.400271 0.0486,0.839956 -0.24568,1.134408 -0.64627,0.646108 -1.4669,0.245837 -2.3613,0.245837 m -27.144822,-1.226884 6.134422,-0.395057 2.60713,-0.06502 m 4.75418,0 2.76049,0.06502 6.13443,0.395057 m -22.390652,3.067211 h 1.84033 l 4.907542,-0.416374 1.99368,-0.04371 m 4.75418,0 1.99369,0.04371 4.90754,0.416374 h 1.84033 m 38.95358,6.901225 c -0.94992,-0.267614 -3.256,-0.425269 -3.82911,-1.292829 -0.42726,-0.646568 0.45257,-4.423992 1.37411,-4.292256 0.70515,0.100758 0.47588,0.833055 0.36515,1.29099 -0.194,0.801615 -0.6823,1.854896 0.40518,2.152875 1.18824,0.325585 1.34129,-2.046903 2.60483,-2.393038 0.86219,-0.236329 1.91686,-0.0753 2.60483,0.457781 1.27427,0.987642 1.57885,3.571308 0.36285,4.788377 -0.35365,0.353956 -1.0407,0.272062 -1.12459,-0.272215 -0.075,-0.487687 0.36852,-1.022762 0.44014,-1.513209 0.0894,-0.612675 -0.0914,-1.225351 -0.61283,-1.594489 -1.78895,-1.265839 -2.25424,1.675004 -2.59056,2.668013 m -61.344232,-5.060898 6.134422,-0.395057 2.76049,-0.06502 m 4.75418,0 2.76049,0.06502 6.13443,0.395057 m -59.197182,1.686966 c -0.58642,0.198909 -1.34706,0.14968 -1.5884,0.788887 -0.29205,0.773704 0.75764,2.089537 -0.12118,2.509592 -1.15695,0.553018 -0.94612,-1.82131 -1.58921,-2.206859 -0.8423,-0.505016 -3.78193,1.577774 -3.57298,-0.469436 0.0766,-0.750547 1.07064,-0.834742 1.65751,-0.985649 1.47976,-0.380487 2.99599,-0.755914 4.44745,-1.170141 0.48815,-0.139251 1.28989,-0.48784 1.70933,-0.06027 0.56378,0.574795 1.17723,2.957098 1.03305,3.720527 -0.0685,0.362851 -0.49816,0.619883 -0.85566,0.512377 -0.77643,-0.233568 -0.78137,-1.965315 -1.11991,-2.639028 m 32.05235,2.607129 c -1.41689,0 -2.98133,0.191548 -2.58443,-2.137999 0.12361,-0.725549 0.77493,-0.621264 1.35755,-0.622491 0.52081,-0.0011 0.87553,0 1.22688,0 m 31.899002,0 c 0.40748,0 0.78291,-0.004 1.38025,1.54e-4 0.33601,0.0023 0.82569,-0.0618 1.06923,0.245683 0.24476,0.309022 0.15965,0.711593 0.1575,1.134408 -0.002,0.400271 0.0486,0.839956 -0.24568,1.134408 -0.64627,0.646109 -1.4669,0.245837 -2.3613,0.245837 M 95.319868,86.629427 c 1.56397,0 3.10401,-0.02484 4.754172,-0.241696 1.34451,-0.176518 2.56757,-0.218386 3.98738,-0.218386 m 4.75417,0 c 1.41966,0 2.64302,0.04187 3.98738,0.218386 1.68313,0.221146 3.28038,-0.08588 4.90754,0.395056 m -8.89492,1.226885 c 1.00206,-0.123915 1.21355,-0.05506 2.30041,0.0054 2.24827,0.125295 4.2941,0.454714 6.59451,0.454714 m -22.544012,0 6.134432,-0.395057 2.76049,-0.06503 m -8.741552,3.527293 h 1.84032 l 4.907542,-0.416221 1.99369,-0.04386 m 4.75417,0 1.99369,0.04386 4.90754,0.416221 h 1.84033 m -58.277022,-0.23927 c 2.68749,-0.410239 5.04035,2.635348 4.32646,5.146785 -0.53017,1.86547 -2.36896,2.97841 -4.1731,3.24449 -1.22581,0.18081 -2.47179,-0.3676 -3.27121,-1.27749 -1.10059,-1.2525 -1.53077,-3.032093 -0.74137,-4.574134 0.7451,-1.455391 2.31339,-2.303629 3.85922,-2.539651 m 92.783142,0.852685 c -0.93826,1.321508 -1.34727,3.171957 0.46008,3.680654 -0.0302,-0.785053 0.0106,-1.617801 0.94854,-2.353625 1.50033,-1.177042 4.02372,0.184186 4.38458,1.893543 0.169,0.800695 -0.13726,1.683438 -0.63936,2.293818 -0.51177,0.62218 -1.2709,1.0249 -2.08663,0.9861 -1.87744,-0.0891 -4.60894,-1.57731 -5.23665,-3.433279 -0.46943,-1.387913 0.53937,-4.349152 2.16944,-3.067211 m -92.169692,0.858666 c 1.76027,-0.07821 2.9709,1.807661 2.01224,3.281456 -0.66421,1.021228 -1.90613,1.689418 -3.08577,1.746928 -1.6883,0.0824 -2.91066,-1.866856 -2.03321,-3.279767 0.65499,-1.05466 1.90147,-1.695248 3.10674,-1.748617 m 35.27292,0.368219 6.134432,-0.395057 2.76049,-0.06503 m 4.75417,0 2.76049,0.06503 6.13443,0.395057 m -27.144822,2.453769 c -1.4169,0 -2.98133,0.191547 -2.58443,-2.138 0.1236,-0.725549 0.77493,-0.621264 1.35754,-0.62249 0.52082,-0.0011 0.87554,0 1.22689,0 m 31.898992,0 c 0.40748,0 0.78291,-0.004 1.38025,1.53e-4 0.33601,0.0023 0.82569,-0.0618 1.06923,0.245684 0.24476,0.309021 0.15965,0.711593 0.1575,1.134408 -0.002,0.400271 0.0486,0.839955 -0.24568,1.134408 -0.64627,0.646108 -1.4669,0.245837 -2.3613,0.245837 m 31.76236,-0.959577 c 1.22918,-0.521426 3.2471,1.333316 1.6612,2.156713 -1.22167,0.63445 -3.23545,-1.488828 -1.6612,-2.156713 m -2.31713,0.652856 c 0.30826,-0.308255 0.0672,-0.175752 0.46008,-0.306722 m -45.8548,4.140739 c 0,0.913263 0,2.045063 0,3.220573 v 6.74786 c 0,1.18487 0,2.37172 0,3.37394 m 41.25399,-8.28147 c -0.86664,0.25611 -1.75767,0.32052 -2.52539,-0.51054 -1.40432,-1.52027 0.32052,-4.159913 2.0653,-4.488103 1.54772,-0.29108 1.69096,1.262013 2.53966,1.986173 0.40916,0.34921 0.90559,0.073 1.44772,0.2236 1.87805,0.52143 2.22342,2.48122 1.21032,4.0156 -0.8921,1.3511 -2.81432,2.19781 -4.05823,0.73812 -0.5797,-0.68031 -0.44643,-1.22842 -0.67938,-1.96485 m -81.154422,-4.20208 c 1.21706,0.29951 0.40257,1.4379 -0.12745,1.87099 -1.21323,0.99163 -5.13604,3.15678 -3.31274,5.03882 1.48238,1.53008 3.83954,-1.02138 5.00048,-1.94139 0.44842,-0.35534 1.18118,-1.19376 1.81118,-0.81051 1.0789,0.65623 0.01,1.50815 -0.5843,1.97283 -1.31859,1.03165 -3.38221,3.33743 -5.21426,2.97611 -1.92621,-0.37987 -3.64293,-2.94713 -2.91247,-4.75141 0.4584,-1.13211 1.82024,-1.93956 2.75911,-2.67216 0.55578,-0.43386 1.81012,-1.87299 2.58045,-1.68328 m 80.250972,0.98641 c 1.12291,-0.60869 2.02467,1.17306 0.8944,1.74708 -1.2479,0.63369 -2.0877,-1.1002 -0.8944,-1.74708 m 3.20677,2.08954 c 1.40463,-0.43278 2.25256,1.69141 0.60976,2.18155 -1.32948,0.39659 -1.88127,-1.78972 -0.60976,-2.18155 m -7.97766,4.96014 c -0.15045,0.50318 -0.36209,2.04629 -1.28777,1.23563 -0.38187,-0.33448 -0.18894,-0.94271 -0.13634,-1.38899 0.0985,-0.83398 -0.002,-1.9371 0.96632,-2.29474 0.63676,-0.2351 1.29498,0.67878 1.68467,1.06785 1.23593,1.23379 2.65728,2.3932 3.81055,3.69431 0.44965,0.50731 0.44536,1.22903 -0.28617,1.49296 -0.60041,0.2167 -1.1591,-0.52418 -1.53069,-0.89332 -0.99608,-0.98903 -2.04553,-2.30409 -3.22057,-2.9137 m -68.858902,2.45377 c -0.22835,0.26838 -0.31776,0.39153 -0.64304,0.70546 -0.3038,0.29338 -0.54504,0.49428 -0.8467,0.83044 -0.54688,0.60931 -2.25961,3.50751 -3.21275,2.42586 -0.52787,-0.59902 0.0808,-1.18732 0.47189,-1.66135 1.0154,-1.23088 2.04598,-2.45439 3.06721,-3.68066 0.3377,-0.40564 0.85223,-1.29605 1.47242,-1.15296 2.31589,0.53461 0.47127,4.45497 0.22268,5.90714 -0.0986,0.57541 -0.0727,0.94363 -0.22498,1.38025 m 0.46008,-0.30673 c 0.72401,-0.75637 1.62424,-1.89415 2.49165,-2.91308 0.4337,-0.50977 0.98887,-1.10251 1.56611,-0.38601 0.4518,0.56053 -0.16716,1.18119 -0.51866,1.61213 -1.00559,1.23256 -2.02237,2.45867 -3.04114,3.68065 -0.32022,0.38402 -0.84502,1.29728 -1.43193,1.19989 -0.82324,-0.13664 -1.25019,-1.08349 -1.18578,-1.81333 0.14814,-1.67684 0.88412,-4.07126 1.04622,-4.90754 m 8.95473,3.08761 c 0.80315,-0.41177 2.72797,1.07705 3.31396,1.56366 0.85054,0.70608 1.629,1.73773 1.66673,2.8634 0.0544,1.62992 -1.12935,3.53143 -2.58674,4.23229 -1.61841,0.77831 -3.28851,-0.0397 -4.75417,-0.81281 -0.40994,-0.21624 -0.97062,-0.38248 -1.11831,-0.84502 -0.17544,-0.54995 0.38156,-1.32994 0.62035,-1.80766 0.63506,-1.27013 1.25556,-2.4369 1.91179,-3.68065 0.23648,-0.44827 0.46575,-1.26676 0.94639,-1.51321 m 24.631242,0.59305 c 0,0.5751 0,0.7806 0,1.38024 m 23.00408,7.97475 c -1.0062,-1.64403 -1.80981,-3.3862 -2.76049,-5.0609 -0.29905,-0.52695 -1.03135,-1.48622 -0.92108,-2.11868 0.18142,-1.04116 3.08638,-1.93495 3.98829,-2.00779 0.96863,-0.0782 1.81318,-0.011 2.60483,0.56682 2.32847,1.69985 2.61526,5.00323 0.30672,6.79556 -0.94547,0.73429 -2.12082,1.35203 -3.21827,1.82499 m -46.774972,-8.28147 c 2.30486,1.09883 3.27409,3.80671 0.76665,5.36839 -0.78981,0.49198 -3.06553,0.57878 -3.11184,-0.63032 -0.0456,-1.19437 1.75475,-3.7265 2.34519,-4.73807 m 46.161682,0.71129 c 0.92707,-0.26977 1.89017,-0.0862 2.60038,0.54841 1.42012,1.26891 1.55922,4.06958 -0.6047,4.78424 -0.71895,0.2374 -1.07674,-0.62418 -1.34282,-1.1364 -0.5932,-1.14239 -2.61802,-3.62422 -0.65286,-4.19625 m 9.03386,0.86924 c 1.02797,0.0345 0.86188,1.68436 -0.13312,1.7227 -1.08426,0.0416 -0.96479,-1.75935 0.13312,-1.7227 m -43.693502,6.54758 c -0.70316,-0.22483 -1.85321,-0.8717 -2.56066,-0.64596 -0.49091,0.15659 -0.80208,1.50539 -0.50164,1.96026 0.52112,0.7895 1.87069,0.69472 2.75558,1.13947 -0.12606,0.30595 -0.16793,0.70208 -0.52618,0.88949 -0.65393,0.3423 -3.83616,-0.65102 -4.22156,-1.26047 -0.33125,-0.52388 0.084,-1.39804 0.23572,-1.92943 0.42956,-1.50523 0.85483,-4.25315 1.66243,-5.4716 0.2831,-0.42711 0.74272,-0.28479 1.16262,-0.17882 0.80193,0.20229 3.37716,0.58078 3.42577,1.51505 0.0374,0.71942 -0.64365,0.64534 -1.12551,0.51851 -0.92338,-0.24307 -2.06025,-0.86817 -2.42616,0.3969 -0.55502,1.919 3.03853,0.87216 2.11959,3.0666 m 22.697362,-4.37492 c 0.82478,-0.14615 1.20756,0.36423 1.66535,1.00114 0.97368,1.35509 1.90013,2.75681 2.83272,4.14058 0.29767,0.44168 1.16109,1.39328 0.87001,1.94722 -0.23418,0.44551 -0.93734,0.53078 -1.33071,0.25458 -0.4521,-0.3173 -0.61942,-0.97859 -1.15173,-1.18686 -0.69089,-0.27037 -2.63121,0.20504 -3.06077,0.73797 -0.54658,0.67786 -0.0307,1.80828 -1.2045,1.97483 -1.14131,0.16195 -0.67202,-1.35034 -0.57249,-2.04077 0.23571,-1.63636 0.50026,-3.26996 0.72524,-4.90754 0.13496,-0.98197 0.10904,-1.72316 1.22688,-1.92115 m -17.083902,1.00528 c 0.543972,-0.43079 1.834652,-0.11057 2.514652,-0.0281 1.04408,0.12652 2.08985,0.39521 2.90726,1.12996 1.75459,1.57746 1.52992,4.88821 -0.30243,6.32689 -1.17643,0.92353 -2.84453,0.97598 -4.29179,0.80453 -0.44383,-0.0525 -1.233942,-0.0437 -1.441132,-0.46499 -0.53217,-1.08227 0.0731,-3.19496 0.18817,-4.39869 0.0721,-0.75438 -0.14109,-2.92106 0.42527,-3.36964 m 17.390622,0.91587 c 0.44536,0.79195 1.31476,1.33178 1.47334,2.29366 0.10229,0.61942 -1.00911,1.14131 -1.53422,0.76328 -0.69012,-0.49689 -0.10965,-1.76779 -0.0925,-2.59686 m -15.56394,0.005 c 1.16983,-0.81603 2.81478,0.95237 3.06015,1.98878 0.26992,1.141 -0.18173,2.42908 -1.1476,3.0896 -0.62632,0.42818 -2.16131,0.82999 -2.51173,0.0828 -0.36776,-0.78444 0.10336,-2.28722 0.18756,-3.17242 0.0561,-0.58983 -0.12484,-1.61473 0.41162,-1.98878 m 23.38533,3.98247 c -0.31929,-0.60931 -0.46821,-2.63136 0.84364,-1.82944 1.25679,0.76833 -0.23633,1.55829 -0.84364,1.82944"
       id="path214" /><g
       aria-label="Greetings From...    ."
       id="text270"
       style="font-size:10.5833px;line-height:1.25;font-family:'Bradley Hand';-inkscape-font-specification:'Bradley Hand, Normal';white-space:pre;inline-size:87.5123;stroke-width:0.264583"
       transform="translate(0,2.0072775)"><g
         id="g535"
         transform="translate(-3.1021561,0.72991908)"
         style="fill:#000000"><path
           d="m 21.884419,13.110781 c -0.529567,0.553716 -0.171228,0.921722 -0.508002,1.619245 0.151351,0.44486 0.147798,0.845409 0.03176,1.301749 0.609264,1.342342 -0.841335,0.902353 -0.804337,-0.201086 -0.356546,-0.489038 0.02751,-0.945616 -0.110126,-1.514448 -0.135978,-0.404472 -1.045042,0.155999 -1.498533,0.265634 -0.690166,0.106568 -1.363323,0.209583 -2.000244,0.338673 -0.542388,-0.276221 -1.23387,-0.07006 -1.698539,-0.584115 -0.472141,-0.33761 -0.508269,-0.929876 -0.537147,-1.364795 0.337211,-0.597712 0.689644,-0.856406 1.034984,-1.296594 0.243498,-0.343637 0.724431,-0.400784 0.967867,-0.723254 0.233733,-0.150858 0.754059,-0.345617 1.046195,-0.498373 0.244757,-0.113133 0.849702,-0.393594 1.260956,-0.5493815 0.535869,-0.058986 0.919671,-0.3834431 1.376912,-0.2122358 1.268048,0.084475 0.610865,1.3341233 -0.350336,0.8049003 -0.662133,0.09863 -1.314477,0.222446 -1.971137,0.597951 -0.62473,0.363325 -1.41984,0.645461 -1.934098,1.296461 -0.348047,0.331759 -0.760583,0.987219 -0.285752,1.439326 0.858715,0.332869 1.849402,0.298732 2.73484,0.04581 0.617807,0.02905 1.466429,-0.466732 1.846714,-0.210791 0.209397,-0.02471 -0.201657,-1.736415 0.833622,-1.066158 0.240861,0.121517 0.390852,0.316946 0.564401,0.51148 z"
           id="path615"
           style="fill:#000000" /><path
           d="m 26.795055,11.068204 c -0.04922,0.653106 -0.866111,0.32784 -1.23825,0.698502 -0.504946,0.337953 -0.896123,0.848643 -1.237122,1.337388 -0.145765,0.443539 -0.278721,0.731708 -0.424979,1.205756 0.186999,0.438036 0.148392,1.157616 -0.554971,0.969571 -0.489701,-0.330526 -0.134437,-1.298217 -0.227678,-1.808799 -0.08905,-0.579969 0.06465,-1.179063 -0.1905,-1.714491 -0.312309,-0.620107 0.429615,-1.595619 0.804341,-0.698498 0.02088,0.628917 0.0813,1.267804 0.06192,1.865321 0.254037,-0.633361 0.718156,-1.216337 1.303329,-1.611333 0.456795,-0.318869 1.035192,-0.621707 1.611309,-0.428627 l 0.0926,0.185209 z"
           id="path612"
           style="fill:#000000" /><path
           d="m 30.245199,14.137361 c -0.247793,0.684453 -0.858951,0.986301 -1.388884,1.278989 -0.578462,0.28301 -1.564062,-0.01531 -1.922108,-0.657055 -0.283211,-0.627895 -0.107795,-1.469448 0.04075,-2.029521 -0.08496,-1.111008 0.461969,-1.129191 0.941919,-2.010828 0.534906,-0.8269673 2.034474,-0.677196 1.947328,0.465658 0.04271,0.729639 -0.643868,1.382681 -1.301743,1.619245 -0.46502,0.299661 -1.04913,-0.04814 -1.038647,0.676243 -0.303692,0.67921 0.252805,1.368053 0.97866,1.192781 0.605713,-0.09442 1.173882,-1.230718 1.692476,-0.704857 l 0.05027,0.169333 z m -1.047747,-3.04799 c -0.245473,-0.387381 -0.811422,0.240438 -0.952958,0.556421 -0.726699,0.779576 0.374805,0.205181 0.603709,0.04682 0.03602,-0.175923 0.351886,-0.312462 0.349249,-0.603241 z"
           id="path609"
           style="fill:#000000" /><path
           d="m 34.235091,14.137361 c -0.247793,0.684453 -0.858951,0.986301 -1.388884,1.278989 -0.578462,0.28301 -1.564062,-0.01531 -1.922108,-0.657055 -0.283211,-0.627895 -0.107795,-1.469448 0.04075,-2.029521 -0.08496,-1.111008 0.461969,-1.129191 0.941919,-2.010828 0.534906,-0.8269673 2.034474,-0.677196 1.947328,0.465658 0.04271,0.729639 -0.643868,1.382681 -1.301743,1.619245 -0.46502,0.299661 -1.04913,-0.04814 -1.038647,0.676243 -0.303692,0.67921 0.252805,1.368053 0.97866,1.192781 0.605713,-0.09442 1.173882,-1.230718 1.692476,-0.704857 l 0.05027,0.169333 z m -1.047747,-3.04799 c -0.245473,-0.387381 -0.811422,0.240438 -0.952958,0.556421 -0.726699,0.779576 0.374805,0.205181 0.603709,0.04682 0.03602,-0.175923 0.351886,-0.312462 0.349249,-0.603241 z"
           id="path606"
           style="fill:#000000" /><path
           d="m 38.161484,11.205787 c -0.493842,0.569393 -1.301552,0.253971 -1.904994,0.603255 -0.839762,-0.27303 -0.425307,0.925994 -0.518756,1.436021 0.02985,0.56094 0.233918,0.900518 0.688092,1.156889 0.585706,-0.199791 2.131542,-0.838609 1.068913,0.373048 -0.72007,0.532204 -1.89721,0.316483 -2.218256,-0.587597 -0.259152,-0.475378 -0.22422,-0.992169 -0.300573,-1.468202 0.14555,-0.438529 0.218505,-1.022957 -0.341799,-1.027093 -0.674457,-0.121494 -0.52864,-1.066425 0.194961,-0.736082 0.628733,0.12128 0.08712,-0.64425 0.283503,-1.0127214 -0.700131,-1.0632796 1.166659,-1.0541947 0.781712,-0.028493 0.05257,0.3321214 -0.230589,1.1286864 0.13696,1.0960864 0.683212,0.09188 1.370993,-0.139816 2.048246,0.02027 l 0.08202,0.174624 z"
           id="path603"
           style="fill:#000000" /><path
           d="m 40.426302,7.8508812 c -0.354738,0.575711 -0.942759,0.8763598 -1.451324,1.2858986 -0.613014,0.1948612 -0.01713,-0.9762431 0.265991,-1.0424823 0.30963,-0.4235498 0.677487,-1.2902108 1.185333,-0.2434163 z m 1.079496,5.6091488 c -0.107413,0.692865 -0.897223,0.925937 -1.34409,1.354662 -0.499334,0.303805 -1.158741,0.510448 -1.401192,-0.226968 -0.25726,-0.886662 0.07146,-1.817896 0.131204,-2.704606 -0.141592,-0.588694 0.01978,-1.9077758 0.825498,-1.174754 -0.01282,0.692043 0.03692,1.309534 -0.192793,1.944232 0.07844,0.438958 -0.444342,1.339959 0.143103,1.489503 0.413706,-0.13448 0.662031,-0.372308 0.955846,-0.606222 0.27758,-0.09059 0.70349,-0.521622 0.882424,-0.07585 z"
           id="path600"
           style="fill:#000000" /><path
           d="m 48.840016,13.290697 c -0.310939,0.607569 -0.690532,1.166538 -1.329418,1.470511 -0.664565,0.351299 -1.263994,-0.210435 -1.453995,-0.835518 -0.231894,-0.656692 -0.352002,-1.327961 -0.455082,-2.04258 -0.351108,0.0412 -0.650304,0.748363 -0.941917,1.079504 -0.213106,0.599804 -0.742629,0.97812 -1.145654,1.505486 -0.276755,0.959567 -1.472708,0.583073 -1.172093,-0.277812 -0.165466,-0.481611 0.0845,-0.935863 0.03612,-1.411981 0.116106,-0.641803 -0.192951,-1.347493 0.175556,-1.92175 0.832983,0.05741 0.642948,1.061346 0.606783,1.633429 -0.03872,0.452116 0.0029,0.836743 -0.130367,1.276458 0.204803,0.434972 0.476892,-0.68675 0.767163,-0.864767 0.803104,-0.833326 0.05908,-0.02052 0.32275,-0.362363 0.232635,-0.375037 0.384644,-0.78573 0.677332,-1.100663 0.340758,-0.405485 1.05053,-0.983856 1.342961,-0.281596 0.263128,0.350102 0.168841,0.906941 0.318624,1.41401 -0.04317,0.627892 0.362992,1.02738 0.571503,1.471083 0.425538,0.04093 0.943166,-0.50139 1.142985,-0.963095 0.138787,-0.447499 0.706957,-0.203916 0.666752,0.211644 z"
           id="path597"
           style="fill:#000000" /><path
           d="m 54.279813,13.692863 c -0.168743,0.77898 -0.0066,1.661416 -0.27518,2.412986 -0.185733,0.824683 -0.997495,1.62954 -1.915592,1.682749 -0.554448,0.108812 -1.188368,0.08088 -1.693465,-0.140888 -1.172951,-0.26412 -0.746052,-1.772543 0.198607,-1.07248 -0.0333,0.471115 0.493929,0.533556 0.859856,0.525433 0.552563,0.04983 1.178893,-0.121396 1.608664,-0.560933 0.631473,-1.021456 0.615926,-2.346359 0.341784,-3.48646 0.01733,-0.695495 -0.486249,0.533588 -0.834469,0.59497 -0.791246,0.726263 -1.716185,1.655619 -2.893967,1.483916 -0.661028,-0.430869 -0.710696,-1.267926 -0.504701,-1.939735 0.158745,-0.764571 0.493084,-1.451626 1.023272,-2.039585 0.474353,-0.419581 1.052175,-0.908728 1.856677,-0.836081 0.50942,0.0019 1.003513,0.831533 0.446814,1.08256 -0.471226,-0.29322 -0.901385,-0.447567 -1.425072,0.0075 -0.304123,0.386027 -0.748719,0.579298 -0.909511,1.147095 -0.19525,0.546987 -0.595108,1.153141 -0.360488,1.773891 0.898126,0.242655 1.714312,-0.669021 2.347029,-1.25734 0.524715,-0.359534 1.118791,-1.228415 0.865035,-1.936285 -0.483143,-0.706895 0.73681,-0.91892 0.724907,-0.140126 0.103574,0.664186 0.449393,1.162623 0.359245,1.75929 0.07515,0.343638 0.04677,0.600987 0.180555,0.9395 z"
           id="path594"
           style="fill:#000000" /><path
           d="m 59.486781,14.137361 c -0.215923,0.53904 -0.614665,0.717505 -1.09008,0.899584 -0.636384,0.08854 -1.011126,0.08246 -1.418162,0.08467 -0.607165,0.06886 -2.383661,-0.02868 -1.754815,-1.039219 0.596091,-0.405162 0.742412,0.454814 1.255626,0.360007 0.740311,-0.05805 1.548512,-0.0077 2.129014,-0.410891 -0.324084,-0.366077 -0.849991,-0.34335 -1.333503,-0.476243 -0.492926,-0.386308 -1.327285,-0.292247 -1.513409,-1.015994 -0.452855,-0.665881 0.08251,-1.458729 0.685109,-1.77575 0.627986,-0.252255 1.40424,-0.540883 2.034803,-0.309165 0.858371,0.569737 -0.142968,1.124002 -0.709081,0.666752 -0.541051,0.261443 -1.586166,0.346904 -1.4605,1.17475 0.443294,0.395347 1.063999,0.476565 1.640411,0.687917 0.325385,0.219778 1.357382,0.246301 1.460499,0.899577 l 0.07408,0.222249 z"
           id="path591"
           style="fill:#000000" /><path
           d="m 20.434507,23.090832 c -0.511446,0.548156 -1.276189,0.211727 -1.947331,0.370426 -0.547253,0.01341 -0.897643,0.14738 -1.449915,0.08466 -0.909197,-0.05389 -0.03097,0.813964 -0.391579,1.269997 -0.1714,0.613283 0.78467,0.278158 1.152989,0.259207 0.547285,0.08915 1.103169,5.28e-4 1.659359,-0.008 0.674548,-0.329907 1.251806,0.601755 0.330895,0.563683 -0.437283,0.09407 -0.962075,0.235816 -1.439335,0.14817 -0.587228,0.362152 -1.804739,-0.320072 -1.84282,0.545035 -0.06803,0.8075 -0.03679,1.983819 -0.595995,2.521794 -0.78179,0.04511 -0.08188,-0.635416 -0.347908,-1.013811 0.03795,-0.571244 0.09527,-1.20782 0.102481,-1.817108 -0.718076,0.166113 -1.515337,-1.078754 -0.09515,-0.881438 0.34213,-0.07993 0.131777,-0.928919 0.05946,-1.354723 -0.523063,0.28875 -1.256833,-1.015144 -0.211658,-0.99747 0.937841,-0.04182 1.916236,0.0084 2.804563,-0.0926 0.669696,0.126837 1.467878,0.0142 2.135178,0.148166 l 0.07673,0.253999 z"
           id="path588"
           style="fill:#000000" /><path
           d="m 24.847728,24.297328 c -0.04922,0.653106 -0.866111,0.32784 -1.23825,0.698502 -0.504945,0.337953 -0.896123,0.848642 -1.237122,1.337387 -0.145765,0.443539 -0.278721,0.731708 -0.424979,1.205756 0.186999,0.438036 0.148392,1.157616 -0.554971,0.96957 -0.489701,-0.330526 -0.134437,-1.298217 -0.227678,-1.808799 -0.08905,-0.579969 0.06465,-1.179063 -0.1905,-1.714491 -0.312308,-0.620107 0.429614,-1.595619 0.804341,-0.698499 0.02088,0.628917 0.0813,1.267804 0.06192,1.865321 0.254038,-0.63336 0.718154,-1.216338 1.303328,-1.611334 0.456795,-0.318869 1.035191,-0.621707 1.611308,-0.428627 l 0.0926,0.185209 z"
           id="path585"
           style="fill:#000000" /><path
           d="m 28.689453,25.757824 c -0.112567,0.605493 -0.205335,1.291123 -0.687915,1.672155 -0.308634,0.573196 -1.018651,0.853975 -1.650991,1.090071 -0.479018,0.255539 -1.158848,0.08404 -1.42414,-0.428136 -0.07722,-0.60647 -0.246107,-1.417256 0.217645,-1.963687 8.9e-4,-0.583805 0.169955,-1.227781 0.634999,-1.598068 0.103543,-0.615845 1.014235,-0.866147 1.532751,-0.636699 0.795924,0.234301 1.267167,1.050251 1.377651,1.864364 z m -0.698498,0.253999 c -0.109813,-0.529991 -0.289022,-1.014943 -0.709076,-1.396999 -0.572552,-0.413402 -0.679692,0.479033 -1.084146,0.658486 -0.194979,0.555551 -0.505145,0.957956 -0.583361,1.592981 -0.163491,0.424501 -0.187859,1.234759 0.4908,1.023523 0.39666,-0.104026 0.962554,-0.294985 1.307367,-0.732603 0.35387,-0.287276 0.461843,-0.726932 0.578416,-1.145388 z"
           id="path582"
           style="fill:#000000" /><path
           d="m 38.42607,26.985487 c -0.37897,0.777751 -1.19973,1.450254 -2.095502,0.984241 -0.53735,-0.621633 -0.654815,-1.487258 -0.709085,-2.254239 -0.613117,0.710791 -0.589817,1.127074 -1.227664,1.873235 -0.290849,0.462917 -1.099212,1.087435 -1.311823,0.195098 -0.166285,-0.514895 -0.147968,-1.064845 -0.152246,-1.578274 0.0035,-0.370325 0.13573,-1.468355 -0.260456,-1.365058 -0.632942,0.628642 -0.911187,1.43393 -1.492777,2.0815 -0.257785,0.412458 -0.978714,2.012759 -1.449908,0.878411 -0.153417,-0.67948 0.0314,-1.445934 -0.01059,-2.053161 0.156757,-0.482023 0.05917,-1.096192 -0.07873,-1.607366 0.654521,-1.004525 1.005869,0.227325 0.866564,0.7894 0.120439,0.640463 -0.112025,1.33863 -0.03643,1.886876 0.377081,-0.498044 0.596837,-1.094293 0.941901,-1.598076 0.479296,-0.434317 0.633745,-0.87179 1.062236,-1.215954 0.74576,-0.502667 1.100021,0.513036 1.215836,1.059856 0.03338,0.551152 -0.06339,1.067716 -0.03439,1.637769 0.05411,1.255875 0.772573,-0.779014 1.185336,-0.994841 0.211493,-0.503276 0.7371,-0.923823 0.836088,-1.386415 0.13652,-0.657836 1.308509,-0.199383 0.853248,0.331865 -0.16909,0.639158 -0.187696,1.200989 -0.122974,1.816546 -0.02501,0.854187 0.93884,1.40175 1.362164,0.386919 0.18185,-0.277457 0.715949,-0.452626 0.659202,0.131668 z"
           id="path579"
           style="fill:#000000" /><path
           d="m 40.532136,27.969733 c -0.192076,0.5047 -1.240124,0.449248 -1.227662,-0.157369 0.107087,-0.796836 1.308686,-0.599494 1.227662,0.157369 z"
           id="path576"
           style="fill:#000000" /><path
           d="m 43.336705,27.969733 c -0.192076,0.504701 -1.240123,0.449247 -1.227661,-0.157369 0.107085,-0.796834 1.308689,-0.599496 1.227661,0.157369 z"
           id="path573"
           style="fill:#000000" /><path
           d="m 46.141272,27.969733 c -0.192076,0.504701 -1.240123,0.449247 -1.227661,-0.157369 0.107086,-0.796834 1.308689,-0.599496 1.227661,0.157369 z"
           id="path570"
           style="fill:#000000" /></g></g></g><plotdata
     application="axidraw"
     model="4"
     plob_version="n/a"
     layer="-2"
     pause_dist="-25400"
     pause_ref="-25400"
     last_x="3.7635537047941976e-13"
     last_y="9.627541819323681e-15"
     rand_seed="1"
     row="0" /></svg>
